<?xml version="1.0" encoding="UTF-8" standalone="no"?>
<svg version="1.1" id="svg-cross" width="255.99953" height="323.88721" viewBox="0 0 255.99953 323.88721" xmlns="http://www.w3.org/2000/svg" xmlns:svg="http://www.w3.org/2000/svg">
   <path style="fill:#000000;stroke-width:0.0994079" d="m 125.35311,323.79338 -0.94437,-0.0964 -1.2426,-0.24993 -1.24259,-0.24996 -1.34201,-0.44672 -1.342,-0.44682 -1.2923,-0.63084 -1.2923,-0.63083 -1.04379,-0.69051 -1.04378,-0.69043 -0.79279,-0.63806 -0.79279,-0.63803 -0.89714,-0.89717 -0.89714,-0.8971 -0.639,-0.79278 -0.63901,-0.79289 -0.68639,-1.04376 -0.68639,-1.04379 -0.62767,-1.29226 -0.62765,-1.29232 -0.34715,-0.99409 -0.34715,-0.99408 -0.25395,-1.04376 -0.25396,-1.04379 -0.15,-1.04376 -0.15001,-1.04379 -0.0653,-1.19291 -0.0653,-1.19286 0.11426,-1.34198 0.11428,-1.34205 0.24816,-1.23282 0.24815,-1.23277 0.44781,-1.34039 0.44779,-1.34031 0.48603,-1.03038 0.48604,-1.0304 h -0.40282 -0.4028 l -1.05655,-0.1558 -1.05653,-0.15588 -0.99408,-0.23539 -0.99407,-0.23536 -1.1929,-0.4114 -1.19289,-0.41134 -1.292466,-0.63158 -1.292485,-0.63147 -1.192707,-0.79081 -1.19273,-0.79081 -1.098457,-0.94083 -1.098445,-0.9408 -0.79181,-0.88512 -0.791811,-0.88506 -0.453962,-0.59651 -0.453978,-0.59643 -0.516203,-0.76956 -0.516214,-0.76959 -0.539139,-1.01975 -0.539138,-1.01977 -0.410245,-1.03627 -0.410246,-1.03628 -0.332328,-1.21257 -0.332322,-1.21257 -0.181291,-1.08132 -0.181289,-1.08129 v -2.2367 -2.2367 l 0.181947,-1.09345 0.181936,-1.09348 0.330105,-1.29229 0.330106,-1.29229 0.3941,-1.04379 0.394096,-1.04376 0.406021,-0.8747 0.406024,-0.8746 0.689493,-1.16326 0.6895,-1.16316 0.779325,-1.04379 0.779331,-1.04379 1.144811,-1.18211 1.144822,-1.1821 0.782459,-0.63376 0.782459,-0.63385 0.808069,-0.53737 0.808059,-0.53735 1.006336,-0.50355 1.006337,-0.50352 0.90224,-0.29481 0.90224,-0.29481 0.80029,-0.12598 0.80028,-0.12588 v -54.5032 -54.50319 H 89.682939 75.584246 l -0.123679,0.80796 -0.123686,0.80791 -0.29248,0.8951 -0.292483,0.89498 -0.378954,0.80714 -0.378947,0.80704 -0.522501,0.84104 -0.522498,0.84106 -0.658217,0.84892 -0.658222,0.8488 -0.998738,0.99783 -0.998749,0.99781 -0.745556,0.60061 -0.745556,0.6006 -0.795262,0.5516 -0.795259,0.55153 -0.987302,0.56727 -0.987297,0.56727 -1.000856,0.45109 -1.00086,0.45105 -0.9345,0.33943 -0.934499,0.33941 -1.153063,0.28979 -1.153062,0.28987 -0.894666,0.15242 -0.894672,0.15252 -1.444349,0.10238 -1.444347,0.10248 -1.438479,-0.10258 -1.438472,-0.10251 -0.894671,-0.1536 -0.894667,-0.15352 -0.968745,-0.24415 -0.968734,-0.24414 -0.969716,-0.34722 -0.969702,-0.34716 -1.292303,-0.64079 -1.292296,-0.64072 -0.973015,-0.64742 -0.97301,-0.64738 -0.766625,-0.62261 -0.766623,-0.62257 -0.96704,-0.976 -0.967032,-0.97602 -0.832589,-1.11353 -0.832602,-1.11355 -0.512427,-0.85696 -0.512438,-0.85688 -0.492106,-1.0433 -0.492119,-1.04325 -0.443733,-1.33054 -0.443742,-1.33061 -0.257982,-1.3269 -0.257981,-1.3269 -0.06282,-0.88489 -0.06282,-0.88494 h -0.026 -0.02601 l -0.792529,0.33928 -0.792538,0.3392 -1.084286,0.35051 -1.0843,0.35054 -0.989952,0.19976 -0.989955,0.19981 -0.894671,0.12941 -0.894664,0.12935 -2.485194,-0.003 -2.485194,-0.003 -1.279683,-0.22843 -1.279685,-0.22843 -1.007953,-0.28892 -1.007945,-0.28894 -1.030848,-0.40169 -1.030848,-0.40177 -0.974742,-0.50071 -0.974732,-0.50066 -1.0250926,-0.68163 -1.0250923,-0.68152 -0.7952612,-0.6431 L 7.2070582,131.76955 6.1561897,130.68951 5.105311,129.60957 4.3375854,128.57764 3.5698596,127.5457 3.0068145,126.58947 2.4437594,125.63333 1.9287974,124.49009 1.413846,123.34694 1.0573798,122.23823 0.7009239,121.1296 0.4561321,119.90216 0.21134106,118.67471 0.1056704,117.58876 0,116.50289 v -1.06568 -1.06568 l 0.10382157,-1.02945 0.10381158,-1.02948 0.24858829,-1.24257 0.24858906,-1.24263 0.4355645,-1.30711 0.4355751,-1.30711 0.5454999,-1.12842 0.5454999,-1.12834 0.5138378,-0.84038 0.5138386,-0.84044 0.7124349,-0.9482 0.7124355,-0.94825 0.9845535,-1.02244 0.9845537,-1.022489 0.9041928,-0.733312 0.9041925,-0.733287 0.9904783,-0.656332 0.9904785,-0.65641 1.295938,-0.640973 1.295939,-0.641024 1.341964,-0.447232 1.341964,-0.447181 1.242599,-0.248832 1.242596,-0.248832 1.13761,-0.117555 1.13762,-0.117478 1.645794,0.05801 1.645806,0.05806 0.944373,0.157543 0.944371,0.157465 1.143189,0.303309 1.143191,0.303232 0.940851,0.352205 0.940854,0.352307 0.873339,0.417434 0.873333,0.417536 V 95.78112 95.339341 l 0.156352,-1.056538 0.156358,-1.056486 0.196206,-0.844954 0.196224,-0.844928 0.411486,-1.238272 0.4115,-1.238246 0.718259,-1.445786 0.718259,-1.445709 0.696423,-1.043788 0.696425,-1.043866 0.641945,-0.795238 0.641941,-0.795264 1.130772,-1.093632 1.130765,-1.093607 0.982715,-0.737689 0.982715,-0.737664 1.231024,-0.718413 1.231033,-0.718413 1.215818,-0.498022 1.215823,-0.498074 0.844967,-0.254797 0.844966,-0.254822 0.745557,-0.156698 0.745554,-0.1568 1.043786,-0.148301 1.043781,-0.148428 1.78934,0.0026 1.789338,0.0026 1.322972,0.197196 1.322969,0.197146 1.345416,0.35392 1.345413,0.35392 1.158815,0.454374 1.158807,0.454375 1.231693,0.638515 1.23169,0.638566 0.955277,0.626432 0.955279,0.626535 0.994076,0.802022 0.994076,0.802023 1.097073,1.129497 1.097075,1.129575 0.45494,0.596428 0.454936,0.59648 0.548518,0.844954 0.548506,0.844928 0.415567,0.829901 0.415565,0.830003 0.340787,1.018419 0.340787,1.018471 0.118328,0.761088 0.118324,0.761088 h 14.098068 14.098074 v -8.09728 -8.097229 l -0.32308,-0.04928 -0.32307,-0.04925 -0.79526,-0.05942 -0.79526,-0.05952 -0.96913,-0.195789 -0.969133,-0.195917 -0.919611,-0.306509 -0.919623,-0.306585 -0.994077,-0.492519 -0.994081,-0.492595 -0.918871,-0.653593 -0.918886,-0.653517 -1.075587,-1.110349 -1.075604,-1.110298 -0.659769,-0.991052 -0.65977,-0.991079 -0.541871,-1.091379 -0.541859,-1.091379 -0.354082,-0.955187 -0.354084,-0.955213 -0.256371,-0.883815 -0.256384,-0.883916 -0.240952,-1.192858 -0.240955,-1.192909 -0.172027,-1.292313 -0.172009,-1.292288 2.1e-5,-2.882816 1e-5,-2.882842 0.212956,-1.143168 0.212949,-1.143245 0.344391,-1.192832 0.344395,-1.192934 0.501355,-1.181799 0.501361,-1.181721 0.604876,-1.054899 0.604882,-1.0549 0.617501,-0.861209 0.617487,-0.861184 0.872166,-0.998221 0.872172,-0.998246 1.115978,-0.959796 1.115991,-0.959718 1.192896,-0.800026 1.192891,-0.799923 1.391711,-0.67648 1.391707,-0.676557 0.84496,-0.310476 0.84497,-0.310503 1.342,-0.339942 1.34201,-0.339891 1.4007,-0.167552 1.4007,-0.16745 -0.48925,-1.037184 -0.48926,-1.037235 -0.43478,-1.304832 -0.43479,-1.304755 -0.24901,-1.242599 -0.249,-1.242547 -0.11428,-1.342054 -0.11426,-1.341978 0.0653,-1.192934 0.0653,-1.192832 0.14899,-1.043789 0.14899,-1.043763 0.28779,-1.156788 0.28779,-1.156659 0.36195,-0.980582 0.36197,-0.980531 0.58985,-1.208909 0.58987,-1.208883 0.73154,-1.0949636 0.73154,-1.0948864 0.59921,-0.7281408 0.5992,-0.7281152 0.9789,-0.966272 0.9789,-0.9663744 0.69585,-0.5568512 0.69585,-0.5569024 0.96916,-0.6434816 0.96917,-0.643584 1.04038,-0.5334272 1.04039,-0.5334272 1.07209,-0.4147968 1.07209,-0.4148992 1.29727,-0.333184 1.29727,-0.3332352 1.18793,-0.1689856 L 125.70104,0.00512 127.58978,0.00256 129.47853,0 l 0.84497,0.121088 0.84496,0.1211904 1.14319,0.2527744 1.14319,0.2527744 1.0173,0.3394304 1.0173,0.3395328 0.91655,0.4032768 0.91655,0.4033792 1.04839,0.6015232 1.04837,0.6015744 1.04378,0.7571712 1.04378,0.7571712 1.1803,1.1443712 1.1803,1.14432 0.6377,0.795264 0.6377,0.795264 0.53028,0.7959552 0.5303,0.7958782 0.43707,0.794624 0.43707,0.794624 0.38533,0.844928 0.38534,0.845031 0.33265,0.974412 0.33265,0.974516 0.19377,0.765132 0.19376,0.765159 0.1529,0.89472 0.1529,0.894643 0.10726,1.43552 0.10724,1.435469 -0.10604,1.616333 -0.10605,1.616256 -0.19716,1.153228 -0.19716,1.15328 -0.19998,0.783232 -0.19997,0.783232 -0.29571,0.837812 -0.29573,0.837862 -0.29045,0.647322 -0.29047,0.647424 0.85582,0.0694 0.85581,0.06945 1.04785,0.189235 1.04786,0.189261 1.08539,0.305331 1.0854,0.305331 1.10157,0.449383 1.10158,0.449357 0.94437,0.501785 0.94437,0.501786 0.8835,0.590029 0.8835,0.590054 0.75466,0.61655 0.75466,0.616474 0.63653,0.595302 0.63653,0.595328 0.79261,0.94546 0.7926,0.945536 0.764,1.150284 0.764,1.150388 0.55731,1.136025 0.5573,1.136077 0.3601,0.970138 0.36008,0.970112 0.29057,1.127014 0.29059,1.126963 0.17896,1.133645 0.17896,1.133619 -0.002,2.634291 -0.002,2.634343 -0.12849,1.093478 -0.12847,1.093479 -0.19445,1.120716 -0.19445,1.120692 -0.28879,1.115929 -0.28879,1.116032 -0.31239,0.894618 -0.31239,0.89472 -0.59518,1.242598 -0.5952,1.242547 -0.45543,0.7317 -0.45544,0.73175 -0.6032,0.759398 -0.60319,0.759399 -0.69648,0.687257 -0.69647,0.68713 -0.7823,0.580096 -0.78229,0.580019 -0.65868,0.368307 -0.65869,0.36841 -0.8699,0.374989 -0.8699,0.375091 -1.12224,0.297651 -1.12225,0.297626 -1.17313,0.152115 -1.17313,0.151987 h -0.34284 -0.34283 v 8.10176 8.10176 h 14.55872 14.55872 l 0.0632,-0.372813 0.0632,-0.372761 0.19252,-0.839527 0.19253,-0.839449 0.35737,-0.900147 0.35737,-0.900173 0.35374,-0.646144 0.35372,-0.646144 0.53452,-0.81065 0.5345,-0.810675 0.78406,-0.939366 0.78407,-0.939392 0.92497,-0.871552 0.92498,-0.871655 1.09348,-0.821555 1.09348,-0.821555 0.94438,-0.575847 0.94437,-0.57582 1.1929,-0.56809 1.19289,-0.568013 1.09348,-0.398694 1.09349,-0.398797 1.24259,-0.302848 1.2426,-0.302848 1.14319,-0.175258 1.14318,-0.175232 2.08757,0.0028 2.08756,0.0026 1.27345,0.224026 1.27346,0.223974 1.02851,0.28882 1.02851,0.288793 1.02819,0.407501 1.0282,0.407424 1.03705,0.546534 1.03706,0.546484 0.95591,0.636339 0.95592,0.636416 0.94014,0.784742 0.94015,0.784717 0.87359,0.917939 0.87357,0.918016 0.69159,0.894874 0.69159,0.894822 0.56401,0.909671 0.564,0.909619 0.66713,1.391744 0.66712,1.391667 0.30258,0.89472 0.30258,0.894643 0.20782,0.819584 0.20783,0.819584 0.14151,0.770919 0.1415,0.770892 0.0604,0.59648 0.0604,0.596429 0.0529,0.370099 0.0529,0.369972 0.56332,-0.282906 0.56332,-0.282906 1.14582,-0.457088 1.14581,-0.457113 1.3404,-0.343501 1.3404,-0.343526 1.14217,-0.160768 1.14216,-0.160794 1.73963,-0.0026 1.73964,-0.0026 1.14319,0.153933 1.14318,0.15383 1.1929,0.292608 1.19289,0.292531 1.04378,0.374042 1.04378,0.374118 1.31036,0.661018 1.31035,0.661094 0.98464,0.66176 0.98466,0.661837 0.94157,0.785895 0.94149,0.785894 0.78008,0.82918 0.78006,0.82929 0.51374,0.64627 0.51374,0.64638 0.61051,0.91038 0.61038,0.91044 0.49534,0.92859 0.49531,0.92864 0.43832,1.09345 0.43827,1.09356 0.2614,0.89464 0.26143,0.8947 0.19612,0.96028 0.19617,0.96033 0.11608,1.1083 0.11604,1.10838 -0.0528,1.9573 -0.0528,1.9574 -0.16476,0.89464 -0.16476,0.8947 -0.24141,0.95856 -0.24138,0.95847 -0.30649,0.88056 -0.30653,0.88046 -0.6775,1.39175 -0.67746,1.39169 -0.75351,1.12494 -0.75348,1.12489 -0.63946,0.76662 -0.63939,0.76664 -1.02948,0.99128 -1.02948,0.99131 -0.94366,0.70641 -0.94367,0.70633 -0.94437,0.56865 -0.94438,0.56868 -0.82458,0.39498 -0.82457,0.39501 -0.91506,0.35075 -0.91506,0.35079 -1.29585,0.33357 -1.29584,0.33354 -1.13964,0.1759 -1.13965,0.17585 -2.08755,-0.003 -2.08757,-0.003 -0.94437,-0.11927 -0.94437,-0.11922 -1.04378,-0.20813 -1.04379,-0.2081 -0.96606,-0.28695 -0.96607,-0.28698 -0.95297,-0.40881 -0.95297,-0.40875 -0.0417,0.0417 -0.0417,0.0417 -0.1074,0.98837 -0.10739,0.98839 -0.24544,1.22637 -0.24542,1.22644 -0.39875,1.20909 -0.39875,1.20909 -0.73219,1.49104 -0.73219,1.49113 -0.65115,0.97103 -0.65115,0.97103 -0.62559,0.76862 -0.62557,0.76861 -0.84939,0.84496 -0.8494,0.84495 -0.79148,0.63831 -0.79146,0.63829 -0.94437,0.62005 -0.94438,0.62001 -0.97649,0.50145 -0.97648,0.50148 -1.01809,0.39808 -1.01809,0.398 -1.08706,0.30167 -1.08707,0.3017 -1.19289,0.20961 -1.19289,0.20972 -2.06468,0.053 -2.06467,0.0531 -1.56371,-0.12014 -1.5637,-0.12007 -1.40151,-0.23562 -1.4015,-0.23562 -0.98639,-0.25001 -0.98639,-0.25006 -1.14108,-0.3947 -1.14108,-0.39465 -0.79517,-0.36373 -0.79517,-0.36367 -0.89633,-0.52749 -0.89632,-0.52751 -0.8931,-0.69105 -0.89311,-0.69102 -0.86325,-0.90813 -0.86323,-0.90821 -0.65047,-0.977 -0.65046,-0.9771 -0.38542,-0.83894 -0.38543,-0.83891 -0.26237,-0.79527 -0.26236,-0.79526 -0.19721,-0.89459 -0.1972,-0.89472 -0.12292,-1.26746 -0.12292,-1.26745 h -14.54195 -14.54194 v 54.50319 54.50319 l 0.82011,0.12734 0.82011,0.12741 1.00842,0.33559 1.00842,0.33569 0.88033,0.44314 0.88032,0.44321 0.89467,0.58898 0.89467,0.589 0.89467,0.74604 0.89467,0.74606 0.9293,0.9833 0.92929,0.98334 0.71684,0.95163 0.71684,0.95163 0.58304,0.94037 0.58304,0.94044 0.6683,1.39169 0.66828,1.39172 0.39497,1.14317 0.39498,1.14324 0.2607,1.0976 0.26072,1.09763 0.1535,0.98992 0.15352,0.98993 0.0601,1.64022 0.0601,1.64027 -0.11966,1.19283 -0.11968,1.19291 -0.24615,1.23369 -0.24616,1.23361 -0.39233,1.20182 -0.39233,1.20187 -0.52928,1.14324 -0.52928,1.14312 -0.57703,0.94387 -0.57701,0.94379 -0.67381,0.89524 -0.67381,0.89515 -0.81861,0.87378 -0.81862,0.8737 -0.95661,0.80151 -0.95661,0.80162 -1.04378,0.69455 -1.04378,0.69466 -1.2923,0.63536 -1.2923,0.63545 -0.99408,0.35706 -0.99407,0.35715 -1.18313,0.28905 -1.18312,0.28907 -1.08181,0.15092 -1.08183,0.15083 h -0.39296 -0.39296 l 0.26084,0.57157 0.26083,0.57168 0.4292,1.24764 0.42918,1.24767 0.24697,1.23753 0.24696,1.2375 0.11887,0.9941 0.11887,0.99407 0.002,1.93841 0.002,1.93848 -0.17101,1.18797 -0.17103,1.18787 -0.33894,1.32247 -0.33894,1.32254 -0.40993,1.04845 -0.40993,1.04845 -0.54449,1.0636 -0.54448,1.06358 -0.65324,0.98268 -0.65324,0.98271 -0.7135,0.85632 -0.7135,0.85634 -0.93724,0.91239 -0.93724,0.91238 -0.58543,0.47117 -0.58543,0.47127 -1.08848,0.72722 -1.0885,0.72727 -1.2089,0.58982 -1.2089,0.58993 -0.98053,0.36191 -0.98054,0.36193 -1.15673,0.28769 -1.15674,0.28777 -1.04378,0.15465 -1.04377,0.1547 -1.68994,0.0427 -1.68993,0.0426 -0.94437,-0.0963 z m 3.99062,-1.48585 1.02947,-0.10322 0.84496,-0.15534 0.84497,-0.15536 1.14319,-0.32873 1.14319,-0.32873 1.09348,-0.46679 1.09348,-0.46679 1.04378,-0.59835 1.04379,-0.59843 0.49703,-0.35617 0.49704,-0.35622 0.74556,-0.59856 0.74556,-0.59845 0.8006,-0.79749 0.80061,-0.79747 0.63243,-0.79526 0.63243,-0.79526 0.59046,-0.8947 0.59046,-0.89464 0.52366,-1.04384 0.52367,-1.04379 0.3694,-0.98854 0.36941,-0.98865 0.28441,-1.09901 0.28441,-1.09888 0.16594,-1.0935 0.16595,-1.09346 v -1.8391 -1.83903 l -0.16952,-1.29231 -0.16952,-1.29226 -0.33025,-1.29232 -0.33027,-1.29228 -0.30656,-0.7712 -0.30655,-0.77118 -0.38993,-0.77553 -0.38992,-0.7755 -0.3561,-0.59054 -0.3561,-0.59061 v -0.059 -0.059 l 1.58935,-0.0655 1.58936,-0.0656 1.06979,-0.15795 1.06981,-0.158 1.12765,-0.28974 1.12765,-0.28974 1.11734,-0.43689 1.11734,-0.43694 0.63702,-0.32154 0.63702,-0.32156 0.74638,-0.45038 0.74636,-0.45038 0.92886,-0.68596 0.92886,-0.68597 0.85102,-0.81339 0.85103,-0.81337 0.74824,-0.89469 0.74824,-0.89464 0.62773,-0.95739 0.62773,-0.95736 0.64057,-1.32898 0.64057,-1.329 0.35315,-1.06803 0.35315,-1.06811 0.24577,-1.2183 0.24576,-1.21833 0.11626,-1.19293 0.11626,-1.19284 -0.0588,-1.49112 -0.0588,-1.49115 -0.15765,-0.943 -0.15766,-0.94293 -0.24171,-0.95354 -0.24171,-0.95355 -0.35919,-1.03603 -0.35919,-1.03601 -0.57033,-1.19291 -0.57033,-1.19283 -0.58313,-0.94044 -0.58314,-0.94045 -0.74787,-0.99274 -0.74788,-0.99284 -0.93652,-0.97572 -0.93651,-0.97572 -0.90612,-0.73306 -0.90612,-0.733 -0.72831,-0.46835 -0.72831,-0.4683 -1.0275,-0.49083 -1.02751,-0.49086 -0.96758,-0.24542 -0.96758,-0.24546 -0.97954,-0.0642 -0.97954,-0.0643 v -55.95154 -55.95164 h 16.0399 16.03991 l 0.0574,1.46629 0.0573,1.46632 0.16384,0.9443 0.16382,0.94439 0.38861,1.17501 0.38862,1.17496 0.46694,0.90412 0.46695,0.90404 0.57746,0.7788 0.57745,0.77883 0.79097,0.77834 0.79097,0.77837 0.85546,0.60849 0.85546,0.60846 1.16231,0.59021 1.16232,0.59013 0.97983,0.36475 0.97983,0.36485 1.30654,0.33426 1.30655,0.33431 1.342,0.20196 1.34201,0.20195 1.48738,0.11779 1.48736,0.11786 1.79309,-0.0565 1.79308,-0.0566 0.94437,-0.15859 0.94437,-0.15869 1.13327,-0.3007 1.13327,-0.30073 1.00313,-0.39767 1.00313,-0.39759 1.02229,-0.53386 1.02228,-0.53386 0.84571,-0.56863 0.8457,-0.56853 0.966,-0.81226 0.96599,-0.81226 0.92965,-1.03736 0.92967,-1.03737 0.78898,-1.17831 0.789,-1.17832 0.5882,-1.20745 0.58819,-1.2075 0.39855,-1.16908 0.39853,-1.16897 0.24507,-1.1671 0.24506,-1.167 0.10634,-0.96533 0.10634,-0.96532 v -1.24655 -1.24648 h 0.0648 0.0648 l 0.75532,0.43448 0.75533,0.43451 0.6361,0.31995 0.6361,0.31994 0.85501,0.32479 0.85502,0.32466 0.99408,0.25787 0.99408,0.25789 0.89467,0.15396 0.89467,0.15391 1.61099,0.11548 1.61099,0.11543 1.40226,-0.11745 1.40226,-0.11753 1.06246,-0.20393 1.06247,-0.20388 1.34301,-0.43776 1.34301,-0.43776 1.29129,-0.63849 1.29129,-0.63854 0.89467,-0.58957 0.89467,-0.58956 0.74556,-0.60253 0.74552,-0.60244 1.04799,-1.0794 1.04791,-1.07945 0.61681,-0.81385 0.6168,-0.8138 0.53333,-0.87605 0.53325,-0.87616 0.27491,-0.54344 0.27492,-0.54344 0.44247,-1.09678 0.44242,-1.09681 0.33854,-1.31461 0.3384,-1.31458 0.15081,-1.15077 0.15091,-1.15088 -0.003,-1.56057 -0.003,-1.56058 -0.14561,-1.02428 -0.14556,-1.02423 -0.21379,-0.91423 -0.21381,-0.91415 -0.39311,-1.14324 -0.39322,-1.14317 -0.49113,-1.00836 -0.49111,-1.00841 -0.53131,-0.84621 -0.53127,-0.84631 -0.58414,-0.77732 -0.58409,-0.77729 -0.93297,-0.97288 -0.93294,-0.9728 -0.90611,-0.733103 -0.90612,-0.733056 -0.88278,-0.572672 -0.88279,-0.572723 -0.93466,-0.475828 -0.93469,-0.475852 -0.91624,-0.3541 -0.91626,-0.354022 -0.84496,-0.241818 -0.84497,-0.241843 -0.74556,-0.150989 -0.74555,-0.151065 -0.86654,-0.106855 -0.86654,-0.106931 h -1.51924 -1.51926 l -1.08067,0.151783 -1.08067,0.151705 -0.95719,0.242944 -0.95718,0.242944 -1.04011,0.363111 -1.04011,0.363008 -0.99774,0.48128 -0.99775,0.48128 -0.93035,0.553676 -0.93035,0.553703 h -0.0389 -0.0389 v -1.246515 -1.246541 l -0.10516,-0.965223 -0.10514,-0.965324 -0.19854,-0.994074 -0.19853,-0.994099 -0.45132,-1.361024 -0.45133,-1.361127 -0.62289,-1.273241 -0.62291,-1.273216 -0.69183,-1.043789 -0.69184,-1.043789 -0.74992,-0.894617 -0.74991,-0.89472 -0.83358,-0.801229 -0.83357,-0.801229 -0.69585,-0.553984 -0.69586,-0.553984 -0.88193,-0.572518 -0.88194,-0.57257 -1.15614,-0.577946 -1.15614,-0.577996 -1.34179,-0.444314 -1.34179,-0.444339 -0.99407,-0.200013 -0.99407,-0.200013 -1.2426,-0.118758 -1.2426,-0.118733 -1.2936,0.06103 -1.29362,0.06106 -1.24128,0.210484 -1.24129,0.210508 -1.16939,0.336205 -1.16939,0.336282 -1.11699,0.455808 -1.11698,0.455885 -0.94438,0.503936 -0.94437,0.503884 -1.09349,0.724711 -1.09348,0.724659 -0.9528,0.795546 -0.95278,0.795545 -0.88626,0.936781 -0.88625,0.936678 -0.59644,0.806375 -0.59645,0.806451 -0.5233,0.87337 -0.52329,0.87342 -0.3882,0.994074 -0.38819,0.994074 -0.15714,0.766233 -0.15714,0.766234 v 0.799437 0.799436 h -16.05435 -16.05434 v -9.577625 -9.5776 l 1.41656,-0.06016 1.41655,-0.06006 0.89467,-0.156441 0.89468,-0.156416 0.89467,-0.252186 0.89466,-0.252237 1.11868,-0.534809 1.11868,-0.534861 0.77006,-0.527565 0.77008,-0.52759 0.94437,-0.945178 0.94438,-0.945152 0.61417,-0.871731 0.61419,-0.871834 0.55467,-1.084339 0.55468,-1.084365 0.33359,-0.876262 0.3336,-0.876186 0.25653,-0.894643 0.25654,-0.894694 0.25278,-1.248973 0.25277,-1.248947 0.15366,-1.28594 0.15367,-1.285964 0.0595,-1.888717 0.0595,-1.888691 -0.11724,-1.093556 -0.11724,-1.093478 -0.24448,-1.21833 -0.24449,-1.218355 -0.35591,-1.068032 -0.35592,-1.068057 -0.57009,-1.192909 -0.57009,-1.192832 -0.508,-0.817152 -0.50799,-0.817229 -0.59367,-0.779853 -0.59367,-0.779878 -0.7687,-0.817127 -0.76871,-0.817126 -0.86631,-0.726861 -0.86631,-0.726861 -0.98393,-0.652569 -0.98393,-0.652672 -0.99407,-0.50048 -0.99408,-0.500506 -0.90902,-0.350515 -0.90903,-0.350566 -0.87377,-0.25321 -0.87377,-0.25321 -1.10002,-0.206899 -1.10004,-0.206925 -1.9136,-0.05238 -1.91359,-0.05246 v -0.09838 -0.09836 l 0.33829,-0.559744 0.33829,-0.559795 0.3989,-0.795264 0.39889,-0.795238 0.31565,-0.795239 0.31565,-0.795264 0.33026,-1.292288 0.33026,-1.292288 0.16951,-1.292288 0.16952,-1.292313 v -1.839027 -1.839104 l -0.16595,-1.093453 -0.16594,-1.093504 -0.2844,-1.098906 -0.28441,-1.098982 -0.36799,-0.988647 -0.36798,-0.988544 -0.54887,-1.078067 -0.54889,-1.078016 -0.56634,-0.86039 -0.56634,-0.860493 -0.61362,-0.760832 -0.61361,-0.760832 -0.85474,-0.8541696 -0.85417,-0.854144 -0.76084,-0.614528 -0.76083,-0.6144 -0.89467,-0.5853184 -0.89467,-0.585344 -1.25374,-0.62336 -1.25374,-0.62336 -1.23145,-0.4089088 -1.23145,-0.4088832 -1.24434,-0.2513664 -1.24432,-0.2513408 -1.4637,-0.1086208 -1.4637,-0.1086208 -1.31798,0.1104384 -1.31799,0.1104128 -1.19289,0.2404864 -1.1929,0.2404608 -1.09348,0.3581952 -1.09348,0.3580672 -1.32226,0.6371072 -1.32224,0.637056 -0.86472,0.562304 -0.86472,0.5623552 -0.83359,0.6494464 -0.83358,0.649344 -0.90827,0.9036544 -0.90826,0.9036544 -0.65615,0.8449536 -0.65613,0.8449278 -0.56234,0.864768 -0.56232,0.864691 -0.63708,1.32224 -0.63708,1.32224 -0.35812,1.09353 -0.35813,1.093478 -0.24047,1.192832 -0.24046,1.192935 -0.11348,1.341977 -0.11347,1.342055 0.0656,0.994022 0.0656,0.994074 0.14667,1.014451 0.14668,1.014426 0.34242,1.249382 0.34242,1.249382 0.51151,1.244084 0.51151,1.244083 0.66686,1.164211 0.66685,1.164314 0.1164,0.217856 0.1164,0.217804 -1.51634,2.05e-4 -1.51633,2.05e-4 -1.09349,0.160333 -1.09348,0.160384 -1.04378,0.253926 -1.04378,0.253927 -0.94438,0.340838 -0.94437,0.340864 -1.09348,0.525901 -1.093485,0.525798 -0.909642,0.56361 -0.90964,0.563635 -0.9294,0.712755 -0.929408,0.71273 -1.093484,1.102105 -1.093483,1.102106 -0.707705,0.943821 -0.707701,0.943821 -0.410901,0.673126 -0.410893,0.673229 -0.539896,1.07648 -0.539904,1.076531 -0.360968,1.033702 -0.36096,1.033703 -0.242869,0.994099 -0.242875,0.994074 -0.148298,1.123404 -0.148304,1.123456 v 1.42185 1.421926 l 0.10271,1.281895 0.102707,1.281869 0.151071,1.043788 0.151076,1.043764 0.253112,1.143244 0.253123,1.143143 0.390461,1.192909 0.390477,1.192857 0.59746,1.23712 0.597448,1.237095 0.533463,0.800742 0.533463,0.800768 0.69962,0.807373 0.699612,0.807424 0.761618,0.612659 0.761626,0.612659 0.536386,0.343194 0.536371,0.343065 0.704904,0.35497 0.704888,0.355021 1.020101,0.341299 1.020089,0.34135 1.15104,0.196788 1.15103,0.196787 1.34891,0.06769 1.34891,0.06776 v 9.577677 9.577703 H 89.725757 74.180273 L 74.108393,92.308941 74.0365,91.339674 73.799583,90.39529 73.562655,89.450906 72.915704,88.158592 72.268751,86.866304 71.597325,85.927424 70.925883,84.988493 69.735058,83.754061 68.544233,82.519578 67.7469,81.876992 66.949573,81.23433 65.856092,80.504474 64.762606,79.77472 63.718825,79.22903 62.675041,78.683418 61.52789,78.233933 60.380728,77.78432 59.241508,77.48375 58.10229,77.183104 57.2111,77.019494 56.319908,76.855782 54.93067,76.79127 l -1.389235,-0.06454 -1.161603,0.06956 -1.161587,0.0695 -1.244664,0.252006 -1.244659,0.252032 -1.078969,0.352205 -1.07896,0.352128 -1.322248,0.640461 -1.322243,0.640512 -0.864729,0.563354 -0.864717,0.563328 -0.596444,0.454937 -0.596447,0.454989 -1.128952,1.097037 -1.128955,1.097062 -0.60257,0.745549 -0.602578,0.745574 -0.690483,1.043789 -0.690489,1.043763 -0.628464,1.292365 -0.628478,1.292288 -0.401595,1.209011 -0.40161,1.209063 -0.246433,1.22647 -0.246428,1.226419 -0.102797,1.192832 -0.10281,1.192909 -10e-4,0.869811 -10e-4,0.869837 h -0.06075 -0.06074 L 32.468963,98.259531 31.659895,97.773489 30.765226,97.328664 29.870557,96.883787 28.96345,96.527 28.056334,96.170238 26.925592,95.871614 25.794843,95.573041 24.850469,95.399422 23.906096,95.225726 h -2.137268 -2.137264 l -0.994079,0.180454 -0.994079,0.180378 -0.930869,0.240819 -0.930885,0.240794 -0.957863,0.357017 -0.957873,0.356916 -1.093485,0.54551 -1.093484,0.545485 -0.844966,0.549965 -0.8449652,0.550041 -0.5964462,0.455168 -0.5964462,0.455271 -1.0789016,1.047066 -1.0789017,1.04707 -0.6728609,0.845 -0.6728607,0.84498 -0.5006072,0.76913 -0.5006175,0.76915 -0.5567025,1.08836 -0.5567032,1.0883 -0.3549153,0.92596 -0.3549054,0.92595 -0.3332344,1.29451 -0.3332344,1.29449 -0.1558912,1.33981 -0.1558813,1.33975 v 1.02282 1.02287 l 0.1051433,0.96533 0.1051536,0.96532 0.1966384,0.99407 0.1966385,0.9941 0.30208,0.98374 0.3020803,0.98383 0.4753274,1.10379 0.475328,1.10375 0.5361749,0.92042 0.5361856,0.92045 0.6461499,0.91356 0.6461504,0.91351 1.1352955,1.1787 1.1353059,1.17865 0.7534406,0.60862 0.7534505,0.60853 1.0437811,0.6827 1.043781,0.6826 1.093484,0.53402 1.093485,0.53394 1.143189,0.3926 1.143188,0.39268 0.894673,0.2083 0.894669,0.20823 1.173128,0.15294 1.173127,0.15293 h 1.369352 1.369349 l 1.085904,-0.1057 1.085898,-0.10562 1.242598,-0.24694 1.242593,-0.24697 1.152571,-0.3844 1.152576,-0.38434 1.084101,-0.55178 1.084099,-0.55186 0.506393,-0.301 0.506404,-0.30101 0.06325,1.66439 0.06325,1.6643 0.158709,1.04187 0.158703,1.0419 0.293936,1.14513 0.293932,1.14504 0.534049,1.32265 0.534039,1.32273 0.614994,1.07443 0.615007,1.07446 0.801193,1.07906 0.801185,1.07904 1.054236,1.05426 1.054234,1.05426 1.031196,0.76746 1.031206,0.76744 0.930555,0.54766 0.930565,0.54764 0.970023,0.42946 0.970019,0.42942 0.926203,0.30727 0.926208,0.30736 1.111644,0.24768 1.11166,0.2477 0.894669,0.11623 0.894671,0.11619 1.739633,-0.003 1.739638,-0.003 1.093478,-0.16446 1.093489,-0.16458 1.043781,-0.25395 1.043781,-0.25395 0.994073,-0.34837 0.994077,-0.34844 1.292303,-0.61719 1.292298,-0.61724 0.937457,-0.58133 0.937451,-0.58124 0.86942,-0.65385 0.869419,-0.65393 0.899182,-0.82465 0.899175,-0.82468 0.806794,-0.96469 0.806794,-0.96465 0.524642,-0.79524 0.524636,-0.79527 0.360991,-0.71759 0.360988,-0.71762 0.235507,-0.62566 0.235494,-0.62569 0.156268,-0.69456 0.156257,-0.6946 0.06951,-0.96922 0.06951,-0.96926 h 15.543683 15.543683 v 55.95235 55.95229 l -0.99667,0.0687 -0.99666,0.0686 -0.75094,0.19208 -0.75093,0.192 -0.83638,0.34104 -0.83638,0.34097 -0.870428,0.52165 -0.870443,0.52168 -0.745557,0.54966 -0.745559,0.54965 -1.403289,1.39799 -1.403285,1.39797 -0.746148,1.009 -0.746165,1.00897 -0.500068,0.83013 -0.500084,0.83003 -0.544721,1.09345 -0.544715,1.09346 -0.372044,0.99409 -0.372053,0.99408 -0.326144,1.29231 -0.326149,1.29232 -0.158436,1.22685 -0.158428,1.22691 v 1.32776 1.3278 l 0.152107,1.17315 0.1521,1.17309 0.297846,1.19293 0.297848,1.19291 0.534782,1.32263 0.534794,1.32265 0.621855,1.08644 0.621865,1.08641 0.782638,1.04243 0.782643,1.04233 0.807956,0.85353 0.807965,0.85355 0.90337,0.75797 0.90337,0.75794 1.043784,0.68882 1.043776,0.68879 1.143177,0.57285 1.1432,0.57283 0.97014,0.36249 0.97013,0.36258 1.12413,0.28981 1.12413,0.28982 1.08679,0.15107 1.08676,0.15091 1.5508,0.0687 1.55079,0.0686 -0.53865,0.90514 -0.53866,0.90517 -0.44001,0.90956 -0.44002,0.90967 -0.34569,0.90589 -0.34569,0.90583 -0.24942,0.91827 -0.24943,0.91819 -0.21394,1.19291 -0.21394,1.19294 -0.003,1.88869 -0.003,1.88874 0.22518,1.29229 0.22518,1.29229 0.32926,1.14324 0.32924,1.14314 0.4665,1.09356 0.4665,1.09345 0.35748,0.64612 0.35748,0.64619 0.44106,0.69586 0.44107,0.69579 0.6563,0.84505 0.65629,0.84493 0.94572,0.95173 0.94574,0.95171 0.76231,0.60236 0.76232,0.60232 0.82821,0.54044 0.8282,0.54044 0.64615,0.35582 0.64615,0.35571 1.07604,0.45868 1.07604,0.4587 0.9946,0.29547 0.9946,0.29545 1.0607,0.20165 1.06071,0.20168 0.89467,0.0846 0.89466,0.0846 0.85929,0.0136 0.85929,0.0133 1.02945,-0.10324 z m -5.85967,-52.25019 -0.32824,-0.16363 -0.14395,-0.27835 -0.14395,-0.27837 v -19.72544 -19.72544 l -6.53606,-3.76382 -6.53606,-3.76376 -0.37278,-0.33546 -0.37277,-0.33539 v -4.70556 -4.70567 l 0.11644,-0.25559 0.11646,-0.25559 0.2243,-0.0563 0.22431,-0.0563 0.21304,0.0676 0.21305,0.0676 6.13137,3.52916 6.13136,3.52909 0.22367,0.14229 0.22367,0.14233 v -49.457 -49.45699 l -23.7169,-0.0253 -23.716888,-0.0253 -0.290076,-0.32464 -0.290055,-0.3246 v -3.95267 -3.95259 l 0.155141,-0.22151 0.155143,-0.22155 0.287248,-0.14848 0.287263,-0.14858 H 99.303352 122.86792 V 100.43366 89.995955 h -6.55934 -6.55934 l -0.32465,-0.290048 -0.32463,-0.289971 -0.0281,-3.97737 -0.0281,-3.97742 0.31177,-0.355047 0.31177,-0.355149 h 6.60031 6.60032 V 67.569536 54.388019 l 0.33799,-0.337945 0.33798,-0.337972 h 3.96413 3.96413 l 0.2215,0.155085 0.2215,0.155187 0.14855,0.287258 0.14854,0.287232 V 67.673907 80.75095 h 6.53879 6.53879 l 0.2215,0.155188 0.2215,0.155161 0.14854,0.287232 0.14855,0.287283 v 3.68617 3.686272 l -0.14128,0.338099 -0.14128,0.338099 -0.30112,0.155751 -0.30112,0.15575 h -6.46643 -6.46644 v 10.437125 10.43722 l 24.15416,0.0253 24.15417,0.0254 0.32498,0.32494 0.32498,0.32483 0.0282,3.8281 0.0282,3.8281 -0.1659,0.34956 -0.16591,0.3496 -0.27988,0.14477 -0.27988,0.14476 h -24.0617 -24.06169 l 0.0249,52.15319 0.0249,52.15327 6.61062,3.80833 6.61061,3.80836 0.27337,0.30472 0.27337,0.30474 -0.006,4.59605 -0.006,4.59602 -0.11865,0.3479 -0.11865,0.34798 -0.34793,0.0277 -0.34793,0.0277 -6.31238,-3.6419 -6.31239,-3.64194 -0.12342,-0.0493 -0.12342,-0.0493 -0.0257,17.10656 -0.0257,17.10654 -0.32489,0.32496 -0.32489,0.32497 -3.85023,0.0243 -3.85023,0.0243 -0.32823,-0.16353 z M 58.1038,128.26217 l -0.894668,-0.0925 -0.844967,-0.15752 -0.844964,-0.15751 -1.044557,-0.33746 -1.044556,-0.33744 -0.884163,-0.45117 -0.884162,-0.45117 -0.797307,-0.57055 -0.797312,-0.57057 -0.8288,-0.83111 -0.828811,-0.83115 -0.555525,-0.8349 -0.555504,-0.83484 -0.392466,-0.88942 -0.392469,-0.88934 -0.241431,-0.95181 -0.241444,-0.95178 -0.11341,-1.11527 -0.113411,-1.11529 0.06268,-1.04379 0.06267,-1.04378 0.187284,-0.89467 0.187277,-0.89465 0.311831,-0.85358 0.311818,-0.8535 0.446116,-0.7828 0.446101,-0.78282 0.555036,-0.72463 0.555028,-0.72466 0.749998,-0.70044 0.749986,-0.70037 0.960504,-0.63946 0.960499,-0.63939 0.755351,-0.34905 0.755351,-0.34898 0.8786,-0.2933 0.8786,-0.29328 1.002109,-0.20326 1.002099,-0.20324 1.234571,-0.10974 1.234565,-0.10983 1.292303,0.0666 1.292296,0.0667 1.242598,0.14123 1.242596,0.14134 1.416563,0.26977 1.416558,0.2698 0.0018,0.59976 0.0018,0.59983 0.198111,1.49105 0.198123,1.49112 0.06355,0.62823 0.06356,0.62817 -0.374769,-0.0317 -0.374758,-0.0318 -0.168602,-0.54687 -0.168599,-0.54689 -0.389617,-0.74542 -0.389627,-0.74539 -0.697405,-0.69643 -0.697416,-0.69637 -0.618782,-0.32701 -0.618783,-0.32704 -0.574111,-0.19774 -0.574111,-0.19776 -0.894666,-0.14525 -0.894671,-0.14536 h -1.093484 -1.093483 l -0.911731,0.14792 -0.911727,0.14781 -0.778206,0.24781 -0.778197,0.24781 -0.646151,0.32747 -0.646155,0.32756 -0.590141,0.39186 -0.590154,0.39193 -0.673009,0.67295 -0.673009,0.67305 -0.388515,0.57241 -0.388519,0.57255 -0.410552,0.81692 -0.410555,0.81692 -0.252117,0.87002 -0.252126,0.87004 -0.14559,0.89761 -0.145585,0.89767 v 1.54083 1.54079 l 0.144871,0.94433 0.144875,0.94441 0.153052,0.57754 0.15306,0.57761 0.333502,0.88789 0.333504,0.88793 0.486313,0.80784 0.486323,0.80783 0.615562,0.72364 0.615562,0.72361 0.715415,0.55974 0.715421,0.55974 0.63425,0.35469 0.634263,0.35474 0.917778,0.32801 0.917793,0.32802 1.029655,0.17218 1.029655,0.17219 1.256522,-0.0539 1.256523,-0.0538 0.646151,-0.16752 0.646152,-0.16758 0.812595,-0.38707 0.8126,-0.387 0.728226,-0.57945 0.728217,-0.57954 0.589576,-0.75023 0.589576,-0.75026 0.508741,-0.88287 0.508738,-0.88286 0.252196,-0.03 0.252199,-0.0298 0.117109,0.14116 0.117125,0.14108 -0.150602,0.73375 -0.150605,0.73372 -0.351872,1.09348 -0.351872,1.09353 -0.368704,0.74281 -0.368711,0.74275 -0.795264,0.23153 -0.795259,0.2316 -0.890168,0.19897 -0.890166,0.19901 -0.998582,0.14377 -0.998579,0.14387 -1.540816,0.0435 -1.540823,0.0436 -0.894668,-0.0925 z m 156.75615,-0.003 -0.90446,-0.0808 -0.99071,-0.2019 -0.99071,-0.20191 -0.77879,-0.25423 -0.77879,-0.25421 -0.74933,-0.34619 -0.74932,-0.34627 -1.00036,-0.66555 -1.00035,-0.6656 -0.89668,-0.89794 -0.89668,-0.898 -0.47319,-0.71375 -0.47318,-0.7137 -0.43852,-0.92649 -0.4385,-0.92652 -0.24453,-0.94433 -0.24452,-0.94441 -0.12338,-0.98419 -0.12338,-0.98422 0.0607,-1.35186 0.0607,-1.35186 0.19279,-0.845 0.1928,-0.84496 0.24396,-0.64612 0.24396,-0.64619 0.40135,-0.798 0.40134,-0.79801 0.59069,-0.7925 0.59068,-0.7925 0.83588,-0.79779 0.83587,-0.79785 0.84496,-0.55824 0.84497,-0.55826 0.70343,-0.35125 0.70343,-0.35131 0.99154,-0.34512 0.99154,-0.34511 1.03874,-0.20851 1.03875,-0.20854 1.24259,-0.10875 1.2426,-0.10882 1.2923,0.0666 1.2923,0.0667 1.24259,0.13983 1.2426,0.13993 1.36094,0.26834 1.36095,0.26836 0.0618,0.65229 0.0618,0.65234 0.20575,1.64022 0.20575,1.64027 0.0117,0.39757 0.0117,0.39767 -0.34793,0.0272 -0.34792,0.0272 -0.23346,-0.74186 -0.23346,-0.74189 -0.36299,-0.62379 -0.36299,-0.6239 -0.60171,-0.59991 -0.60172,-0.59991 -0.55791,-0.33017 -0.55792,-0.33008 -0.68468,-0.23811 -0.6847,-0.23813 -0.93909,-0.16397 -0.93909,-0.16404 -1.49112,0.053 -1.49112,0.053 -0.95171,0.24653 -0.9517,0.24655 -0.76709,0.31941 -0.76709,0.31934 -0.7664,0.50004 -0.76639,0.50007 -0.70306,0.70677 -0.70307,0.70666 -0.40166,0.5965 -0.40168,0.59641 -0.31751,0.62968 -0.31751,0.62979 -0.28132,0.86136 -0.28132,0.86144 -0.17825,0.99402 -0.17825,0.99407 0.002,1.68996 0.002,1.68999 0.17503,0.99399 0.17503,0.9941 0.30036,0.94439 0.30036,0.94438 0.39898,0.79527 0.399,0.79526 0.38873,0.57275 0.38873,0.57275 0.60527,0.64709 0.60527,0.64699 0.65768,0.49487 0.65767,0.49493 0.74555,0.38658 0.74556,0.38648 0.79078,0.26274 0.79079,0.26273 0.8376,0.1461 0.83763,0.1461 h 1.07171 1.07173 l 0.72944,-0.14011 0.72945,-0.14008 0.68287,-0.25759 0.68287,-0.25759 0.60826,-0.36946 0.60826,-0.36943 0.77834,-0.74366 0.77835,-0.74365 0.52892,-0.80044 0.52893,-0.80053 0.26124,-0.52188 0.26125,-0.52189 h 0.29967 0.29967 l 0.0639,0.16643 0.0639,0.16643 -0.12034,0.70172 -0.12035,0.7018 -0.34655,1.03564 -0.34655,1.03568 -0.38019,0.81129 -0.38019,0.81136 -1.38201,0.36309 -1.38201,0.36308 -0.89467,0.15081 -0.89466,0.15081 -1.09349,0.10102 -1.09348,0.10099 -0.84497,-0.0136 -0.84496,-0.0136 -0.90446,-0.0808 z m -180.730358,-0.66957 -0.05796,-0.23096 0.0945,-0.0945 0.09448,-0.0944 0.578667,-0.0942 0.578662,-0.0942 0.510252,-0.14835 0.510257,-0.1483 0.258621,-0.27699 0.258622,-0.27702 0.108869,-0.34798 0.108879,-0.34788 0.101844,-1.0935 0.101842,-1.09353 -0.0033,-7.75378 -0.0033,-7.75378 -0.0918,-1.01804 -0.0918,-1.01803 -0.120832,-0.40333 -0.120842,-0.40325 -0.325041,-0.28539 -0.32505,-0.28539 -0.726429,-0.15275 -0.72641,-0.15273 -0.318569,-0.061 -0.318576,-0.0611 -0.05646,-0.17792 -0.05646,-0.17792 0.05305,-0.13821 0.05304,-0.13829 4.646223,0.0136 4.646221,0.0136 v 0.28107 0.28098 l -0.298227,0.074 -0.29822,0.0739 -0.776131,0.16148 -0.776112,0.16151 -0.325056,0.28539 -0.325051,0.28539 -0.11264,0.37753 -0.112645,0.37757 -0.103255,1.09348 -0.103245,1.09345 v 7.70412 7.70406 l 0.101844,1.09353 0.10184,1.0935 0.108882,0.34788 0.108869,0.34798 0.258619,0.27702 0.258621,0.27699 0.510257,0.1483 0.510249,0.14836 0.578667,0.0941 0.57866,0.0942 0.09449,0.0944 0.0945,0.0945 -0.05797,0.23097 -0.05797,0.23093 h -4.63115 -4.631143 l -0.05797,-0.23093 z m 145.342748,0.18952 -0.0414,-0.0414 v -0.2261 -0.22608 l 0.083,-0.0513 0.0831,-0.0513 0.78677,-0.16071 0.78677,-0.16067 0.69586,-0.37153 0.69585,-0.37151 0.9649,-1.08019 0.96491,-1.08017 2.46466,-3.37623 2.46466,-3.37628 0.37278,-0.54277 0.37278,-0.54275 v -0.12912 -0.12905 l -0.32844,-0.48218 -0.32842,-0.48218 -1.98862,-2.83312 -1.98861,-2.8331 -1.11715,-1.66221 -1.11716,-1.66208 -0.48717,-0.53304 -0.48717,-0.53305 -0.57684,-0.30226 -0.57682,-0.30218 -0.29822,-0.0679 -0.29822,-0.0678 -0.37867,-0.0994 -0.37868,-0.0993 0.0307,-0.30643 0.0307,-0.30651 4.16521,0.003 4.16521,0.003 0.0846,0.15127 0.0846,0.15124 -0.0595,0.15491 -0.0595,0.15498 -0.36318,0.0615 -0.36318,0.0615 -0.63592,0.16492 -0.63595,0.16491 -0.10707,0.17068 -0.10706,0.17072 0.27365,0.55798 0.27366,0.55795 1.71708,2.55176 1.71709,2.55178 0.91981,1.26743 0.91982,1.26748 h 0.0379 0.038 l 0.88887,-1.26748 0.88888,-1.26743 1.04256,-1.5905 1.04256,-1.59053 0.75665,-1.29229 0.75665,-1.29228 0.0628,-0.31494 0.0627,-0.315 -0.28545,-0.14756 -0.28544,-0.14764 -0.64489,-0.12326 -0.64487,-0.12332 -0.17992,-0.0918 -0.17993,-0.0919 0.0308,-0.25444 0.0308,-0.25444 3.80668,-0.0123 3.80669,-0.0123 0.058,0.23093 0.058,0.23097 -0.0942,0.0943 -0.0942,0.0942 -0.83788,0.15721 -0.83788,0.15708 -0.54647,0.26322 -0.54648,0.26322 -0.70223,0.69586 -0.70224,0.69588 -0.65371,0.84496 -0.65373,0.84492 -2.29754,3.21088 -2.29755,3.21078 v 0.27605 0.27604 l 1.30497,1.93088 1.30497,1.93086 0.94735,1.342 0.94734,1.342 1.36616,1.88872 1.36616,1.88877 0.63415,0.60851 0.63414,0.60856 0.50158,0.25416 0.50159,0.25418 0.83459,0.15829 0.83459,0.15833 0.09,0.09 0.0901,0.09 -0.058,0.23096 -0.058,0.23096 -4.60195,-0.0113 -4.60195,-0.0113 -0.0312,-0.31186 -0.0311,-0.31184 h 0.0495 0.0495 l 0.72721,-0.14925 0.7272,-0.14919 0.43044,-0.16028 0.43044,-0.16029 -0.0602,-0.23997 -0.0602,-0.23992 -0.31607,-0.51922 -0.31607,-0.5192 -1.47137,-2.15953 -1.47138,-2.15954 -1.27004,-1.77657 -1.27005,-1.77653 -0.8914,1.20209 -0.8914,1.20218 -1.19654,1.78959 -1.19654,1.78957 -0.67086,1.11363 -0.67087,1.11367 -0.20269,0.45824 -0.20269,0.45814 0.14652,0.22364 0.14652,0.22362 0.38275,0.11272 0.38276,0.11276 0.67647,0.11592 0.67647,0.11602 -0.0303,0.30121 -0.0303,0.30118 -3.91002,0.0108 -3.91002,0.0108 -0.0414,-0.0414 z" id="path1" />
</svg>
