<?xml version="1.0" encoding="UTF-8" standalone="no"?>
<svg version="1.1" id="logo-combined" width="41.841114" height="49.902615" viewBox="0 0 41.841115 49.902615" xml:space="preserve" xmlns="http://www.w3.org/2000/svg" xmlns:svg="http://www.w3.org/2000/svg">
  <g id="group-entire-logo" transform="translate(-45.516372,-71.302807)">
    <path id="cross" style="fill:#000000;stroke-width:0.0103547" d="m 66.162965,105.03054 -0.09836,-0.0101 -0.129435,-0.0261 -0.129435,-0.0261 -0.139787,-0.0465 -0.139788,-0.0465 -0.134608,-0.0657 -0.134607,-0.0657 -0.108722,-0.0719 -0.108723,-0.0719 -0.08257,-0.0665 -0.08259,-0.0665 -0.09345,-0.0934 -0.09345,-0.0934 -0.06655,-0.0826 -0.06655,-0.0826 -0.0715,-0.10869 -0.07151,-0.10868 -0.0654,-0.13461 -0.0654,-0.13462 -0.03614,-0.10351 -0.03614,-0.10352 -0.02644,-0.10868 -0.02643,-0.10869 -0.01566,-0.10868 -0.01566,-0.10869 -0.0069,-0.12432 -0.0069,-0.12419 0.01198,-0.13979 0.01198,-0.13979 0.02582,-0.12841 0.02582,-0.12841 0.0466,-0.13962 0.0466,-0.13962 0.05065,-0.10729 0.05065,-0.1073 h -0.04195 -0.04195 l -0.110046,-0.0161 -0.110047,-0.0163 -0.10354,-0.0246 -0.10354,-0.0245 -0.124256,-0.0429 -0.124256,-0.0429 -0.13463,-0.0658 -0.13463,-0.0658 -0.12423,-0.0823 -0.124244,-0.0823 -0.114408,-0.098 -0.114422,-0.098 -0.08247,-0.0922 -0.08248,-0.0922 -0.04729,-0.0622 -0.04729,-0.0622 -0.05379,-0.0802 -0.05379,-0.0802 -0.05616,-0.10617 -0.05616,-0.10616 -0.04271,-0.10793 -0.0427,-0.10792 -0.03461,-0.1263 -0.03461,-0.126314 -0.01887,-0.1126 -0.01888,-0.11259 v -0.23298 -0.23298 l 0.01895,-0.11385 0.01895,-0.11385 0.03438,-0.13461 0.03438,-0.134609 0.04103,-0.108685 0.04103,-0.108684 0.04233,-0.09116 0.04233,-0.09116 0.07182,-0.121166 0.07182,-0.121167 0.08119,-0.108685 0.08118,-0.108684 0.119251,-0.123184 0.119237,-0.123184 0.0815,-0.06607 0.08151,-0.06607 0.08417,-0.05598 0.08417,-0.05598 0.104826,-0.05245 0.104814,-0.05245 0.09398,-0.03077 0.09398,-0.03076 0.08335,-0.01311 0.08335,-0.01311 V 91.490634 85.813409 H 62.447365 60.9788 l -0.01291,0.0841 -0.01291,0.0841 -0.03049,0.09318 -0.03049,0.09318 -0.0395,0.0841 -0.0395,0.0841 -0.05439,0.08763 -0.05439,0.08763 -0.06853,0.08838 -0.06853,0.08839 -0.104032,0.103894 -0.104032,0.103893 -0.07766,0.06254 -0.07766,0.06254 -0.08284,0.0575 -0.08284,0.05749 -0.102834,0.05901 -0.102847,0.05901 -0.104259,0.04703 -0.104246,0.04703 -0.09734,0.03543 -0.09734,0.03543 -0.120108,0.03013 -0.120107,0.03013 -0.09319,0.01589 -0.09319,0.01589 -0.150453,0.01009 -0.150445,0.01009 -0.149841,-0.01009 -0.149834,-0.01009 -0.09319,-0.01601 -0.09319,-0.01601 -0.100905,-0.02547 -0.100905,-0.02547 -0.101006,-0.03619 -0.101006,-0.03619 -0.134607,-0.06682 -0.134615,-0.06682 -0.101347,-0.06746 -0.101346,-0.06745 -0.07985,-0.06481 -0.07985,-0.06493 -0.100729,-0.101624 -0.100728,-0.101624 -0.08672,-0.115997 -0.08673,-0.115997 -0.05341,-0.08927 -0.05341,-0.08927 -0.05127,-0.108685 -0.05127,-0.108684 -0.04622,-0.138579 -0.04622,-0.138604 -0.02689,-0.138214 -0.02689,-0.138213 -0.0069,-0.09217 -0.0069,-0.09217 h -0.003 -0.003 l -0.08256,0.0353 -0.08255,0.0353 -0.112946,0.03656 -0.112946,0.03657 -0.103111,0.0208 -0.103112,0.0208 -0.09319,0.01349 -0.09319,0.01349 -0.258871,-2.9e-4 -0.258862,-2.9e-4 -0.133293,-0.02383 -0.133302,-0.02383 -0.10499,-0.03013 -0.10499,-0.03013 -0.107373,-0.04186 -0.107373,-0.04186 -0.101536,-0.0522 -0.101523,-0.0522 -0.10678,-0.07099 -0.106781,-0.07098 -0.08284,-0.06695 -0.08284,-0.06695 -0.109466,-0.112467 -0.109454,-0.112467 -0.07998,-0.107549 -0.07996,-0.10755 -0.05868,-0.09961 -0.05868,-0.09961 -0.05364,-0.119023 -0.05364,-0.119024 -0.03713,-0.115493 -0.03713,-0.115493 -0.02552,-0.127836 -0.02552,-0.127862 -0.01097,-0.113097 -0.01097,-0.113098 v -0.110954 -0.11108 l 0.01072,-0.107171 0.01084,-0.107298 0.0259,-0.129438 0.0259,-0.129438 0.04538,-0.136145 0.04538,-0.136146 0.05684,-0.11751 0.05684,-0.11751 0.05356,-0.0875 0.05356,-0.0875 0.07419,-0.09872 0.07419,-0.09872 0.102557,-0.106541 0.102557,-0.106541 0.09418,-0.07641 0.09418,-0.07641 0.103175,-0.06834 0.103174,-0.06834 0.13499,-0.06682 0.134989,-0.06682 0.139787,-0.04665 0.139781,-0.04665 0.129434,-0.02585 0.129435,-0.02597 0.118494,-0.01261 0.118494,-0.01261 0.171431,0.0063 0.171432,0.0063 0.09837,0.01639 0.09837,0.01639 0.119074,0.03165 0.119074,0.03152 0.09801,0.03669 0.09801,0.03669 0.09097,0.0435 0.09097,0.0435 v -0.04602 -0.04602 l 0.01628,-0.110071 0.01628,-0.110071 0.0204,-0.08801 0.0204,-0.08801 0.04286,-0.128977 0.04286,-0.128986 0.07479,-0.150597 0.07479,-0.15059 0.0725,-0.108722 0.0725,-0.108735 0.06685,-0.08284 0.06685,-0.08284 0.117788,-0.113917 0.117788,-0.113905 0.102355,-0.07685 0.102367,-0.07683 0.128228,-0.07479 0.128229,-0.07487 0.126646,-0.05187 0.126639,-0.05187 0.08801,-0.02659 0.08802,-0.02652 0.07766,-0.01628 0.07766,-0.01635 0.108722,-0.01543 0.108723,-0.01543 0.186382,2.69e-4 0.186384,2.67e-4 0.1378,0.02055 0.137808,0.02055 0.140147,0.03683 0.140138,0.03683 0.120713,0.04729 0.1207,0.04737 0.128305,0.06655 0.128297,0.06655 0.09951,0.06525 0.09951,0.06525 0.103552,0.08353 0.103541,0.08354 0.114282,0.117649 0.11427,0.117662 0.04737,0.06211 0.04737,0.06211 0.05714,0.08801 0.05714,0.08801 0.04332,0.08644 0.04332,0.08646 0.03553,0.106075 0.03553,0.106087 0.01236,0.07928 0.01236,0.07931 h 1.468496 1.468496 v -0.843085 -0.843431 l -0.03361,-0.0053 -0.03361,-0.0053 -0.08284,-0.0061 -0.08284,-0.0061 -0.100943,-0.0204 -0.100943,-0.0204 -0.09579,-0.03194 -0.09579,-0.03194 -0.103552,-0.05134 -0.103541,-0.05134 -0.09571,-0.06807 -0.09571,-0.06807 -0.112038,-0.115657 -0.112038,-0.115657 -0.06875,-0.103225 -0.06868,-0.103225 -0.05646,-0.113678 -0.05646,-0.113677 -0.0369,-0.09949 -0.0369,-0.09951 -0.02674,-0.09207 -0.02667,-0.09207 -0.02514,-0.124255 -0.02514,-0.124256 -0.01795,-0.134608 -0.01788,-0.134608 v -0.300286 -0.300287 l 0.02215,-0.119073 0.02215,-0.119087 0.03591,-0.124243 0.03591,-0.124268 0.05226,-0.123096 0.05226,-0.123084 0.06303,-0.109882 0.06303,-0.109882 0.06433,-0.0897 0.06433,-0.08971 0.09086,-0.103982 0.09084,-0.103981 0.116237,-0.09997 0.116249,-0.09997 0.124256,-0.08333 0.124256,-0.08332 0.144959,-0.07044 0.144968,-0.07044 0.08801,-0.03232 0.08802,-0.03232 0.139786,-0.03537 0.139787,-0.03537 0.1459,-0.01743 0.145899,-0.01741 -0.05096,-0.108041 -0.05096,-0.108042 -0.0453,-0.135913 -0.0453,-0.135907 -0.0259,-0.129435 -0.0259,-0.129427 -0.01198,-0.139796 -0.01198,-0.139779 0.0069,-0.124269 0.0069,-0.124243 0.01551,-0.108722 0.01551,-0.108723 0.02994,-0.120498 0.02994,-0.120486 0.03774,-0.102141 0.03766,-0.10214 0.06143,-0.125921 0.06143,-0.12592 0.07617,-0.114055 0.07617,-0.114043 0.06242,-0.07586 0.06241,-0.07587 0.101965,-0.100653 0.101964,-0.100653 0.0725,-0.05799 0.0725,-0.05799 0.100943,-0.067 0.100956,-0.067 0.108369,-0.05554 0.108369,-0.05554 0.111673,-0.04325 0.111673,-0.04325 0.135126,-0.03468 0.135127,-0.03469 0.123739,-0.01758 0.123739,-0.01758 0.196734,-2.68e-4 0.196743,-2.67e-4 0.08801,0.01261 0.08801,0.01261 0.119087,0.02636 0.119073,0.02635 0.105961,0.03538 0.105961,0.03537 0.09547,0.04202 0.09547,0.04202 0.109202,0.06265 0.109201,0.06265 0.108722,0.07887 0.108723,0.07888 0.122944,0.1192 0.122945,0.1192 0.0664,0.08284 0.06647,0.08284 0.05524,0.08291 0.05524,0.0829 0.04553,0.08277 0.04553,0.08277 0.04011,0.08801 0.04011,0.08802 0.03461,0.101497 0.03468,0.101511 0.02017,0.0797 0.02017,0.07971 0.01589,0.09319 0.01589,0.09319 0.0111,0.149528 0.0111,0.149521 -0.01097,0.168361 -0.0111,0.168353 -0.02055,0.120133 -0.02055,0.120132 -0.02085,0.08158 -0.02085,0.08159 -0.03079,0.08728 -0.03079,0.08728 -0.03025,0.06747 -0.03025,0.06745 0.08914,0.0069 0.08914,0.0069 0.109151,0.01971 0.109138,0.01971 0.11306,0.03179 0.113059,0.03179 0.114749,0.04683 0.114737,0.04683 0.09837,0.05226 0.09836,0.05226 0.09203,0.06143 0.09203,0.06143 0.0786,0.06425 0.07861,0.06418 0.06631,0.06203 0.06632,0.06203 0.08256,0.09848 0.08256,0.09848 0.07958,0.119818 0.07957,0.11983 0.05806,0.11833 0.05806,0.118343 0.03751,0.101056 0.03751,0.101044 0.03025,0.117397 0.03025,0.117384 0.01865,0.11809 0.01864,0.118078 -1.82e-4,0.274403 -1.92e-4,0.274402 -0.01337,0.113892 -0.01336,0.113904 -0.02025,0.116741 -0.02025,0.116729 -0.0301,0.116237 -0.0301,0.116249 -0.03254,0.09319 -0.03254,0.0932 -0.06196,0.129434 -0.06203,0.129428 -0.04745,0.07624 -0.04744,0.07624 -0.0628,0.0791 -0.0628,0.07911 -0.07257,0.07159 -0.07257,0.07159 -0.08149,0.06043 -0.08149,0.06043 -0.0686,0.03835 -0.0686,0.03835 -0.0906,0.03904 -0.09062,0.03904 -0.116892,0.03102 -0.116893,0.03102 -0.1222,0.01581 -0.122188,0.01581 h -0.03576 -0.03568 v 0.843903 0.843922 h 1.516483 1.516481 l 0.0069,-0.03883 0.0069,-0.03883 0.0201,-0.08745 0.0201,-0.08744 0.03721,-0.09377 0.03721,-0.09377 0.03683,-0.0673 0.03683,-0.0673 0.05569,-0.08444 0.05569,-0.08444 0.08167,-0.09785 0.08167,-0.09784 0.09634,-0.09078 0.09634,-0.09081 0.113905,-0.08557 0.113904,-0.08557 0.09836,-0.05998 0.09837,-0.05998 0.124256,-0.05913 0.124256,-0.05913 0.113904,-0.04148 0.113904,-0.04156 0.129428,-0.03155 0.129435,-0.03155 0.119074,-0.01826 0.119074,-0.01826 0.217455,2.83e-4 0.217439,2.67e-4 0.132652,0.02338 0.132643,0.0233 0.107134,0.0301 0.107133,0.0301 0.107109,0.04248 0.107095,0.04248 0.108017,0.05691 0.108016,0.05691 0.09957,0.06632 0.09958,0.06631 0.09793,0.08175 0.09793,0.08173 0.09099,0.09562 0.09099,0.09562 0.07205,0.09321 0.07204,0.0932 0.05875,0.09476 0.05876,0.09474 0.06952,0.144975 0.06952,0.144959 0.03147,0.09319 0.03155,0.09319 0.02162,0.08536 0.02162,0.08536 0.01474,0.08032 0.01474,0.08032 0.0061,0.06216 0.0061,0.06216 0.0053,0.03858 0.0053,0.03846 0.05868,-0.0295 0.05868,-0.0295 0.119351,-0.04766 0.119352,-0.04766 0.139619,-0.03581 0.139619,-0.03568 0.118973,-0.01677 0.118973,-0.01677 0.18121,-2.77e-4 0.181205,-2.53e-4 0.119073,0.01601 0.119074,0.01601 0.124256,0.03051 0.124268,0.03051 0.108723,0.03896 0.108722,0.03896 0.136487,0.06884 0.136495,0.06884 0.102557,0.06884 0.102569,0.06897 0.09807,0.08183 0.09807,0.08183 0.08126,0.08637 0.08125,0.08637 0.05349,0.06733 0.05348,0.06733 0.06356,0.09481 0.06356,0.09481 0.05157,0.09671 0.05157,0.09671 0.04569,0.113854 0.04568,0.11398 0.02727,0.09318 0.02727,0.09318 0.0204,0.09998 0.0204,0.09999 0.0121,0.115493 0.0121,0.115493 -0.0053,0.203878 -0.0053,0.20389 -0.01719,0.09318 -0.01718,0.09318 -0.02514,0.09986 -0.02514,0.09986 -0.03194,0.09179 -0.03194,0.09166 -0.0706,0.144971 -0.07059,0.144959 -0.07849,0.117132 -0.07849,0.117132 -0.06662,0.07981 -0.06662,0.07981 -0.107234,0.103263 -0.107235,0.103262 -0.09831,0.07363 -0.09828,0.07363 -0.09837,0.05926 -0.09837,0.05926 -0.08589,0.0411 -0.0859,0.04123 -0.09531,0.03656 -0.09532,0.03656 -0.134982,0.0348 -0.134982,0.0348 -0.118708,0.01828 -0.118708,0.01828 -0.217447,-2.77e-4 -0.217447,-2.65e-4 -0.09837,-0.01261 -0.09836,-0.01261 -0.108723,-0.02169 -0.108722,-0.02169 -0.100628,-0.02988 -0.100627,-0.02988 -0.09927,-0.04249 -0.09927,-0.04249 -0.0045,0.005 -0.0045,0.005 -0.0111,0.102885 -0.01109,0.103011 -0.02559,0.127748 -0.0256,0.127748 -0.04156,0.125958 -0.04156,0.125958 -0.07624,0.155311 -0.07624,0.155323 -0.06785,0.101119 -0.06785,0.101119 -0.06517,0.08006 -0.06517,0.08006 -0.08847,0.08801 -0.08847,0.08801 -0.08245,0.06645 -0.08245,0.06645 -0.09837,0.06455 -0.09837,0.06455 -0.101712,0.0522 -0.101712,0.0522 -0.106037,0.04148 -0.106049,0.04148 -0.113236,0.0314 -0.113236,0.0314 -0.124256,0.02181 -0.124256,0.02181 -0.215063,0.005 -0.215063,0.005 -0.162882,-0.01261 -0.162876,-0.01261 -0.14599,-0.02446 -0.145984,-0.02459 -0.102746,-0.0261 -0.102746,-0.0261 -0.118859,-0.0411 -0.11886,-0.0411 -0.08284,-0.03795 -0.08282,-0.03795 -0.09337,-0.05497 -0.09335,-0.05497 -0.09304,-0.07199 -0.09304,-0.07199 -0.08991,-0.09456 -0.08992,-0.09456 -0.06777,-0.10175 -0.06777,-0.10175 -0.04011,-0.08738 -0.04018,-0.08738 -0.02735,-0.08284 -0.02735,-0.08284 -0.02055,-0.09318 -0.02055,-0.09318 -0.01284,-0.132023 -0.01283,-0.132022 h -1.514895 -1.514732 v 5.677224 5.677225 l 0.08542,0.01324 0.08543,0.01324 0.105041,0.03493 0.105041,0.03493 0.0917,0.04615 0.09169,0.04615 0.0932,0.0614 0.09319,0.0614 0.09319,0.07767 0.09319,0.07767 0.09681,0.10238 0.0968,0.102381 0.07464,0.0991 0.07464,0.0991 0.06073,0.09797 0.06073,0.09797 0.0696,0.144959 0.0696,0.144972 0.0411,0.119023 0.04118,0.119023 0.02712,0.114358 0.02712,0.11435 0.01596,0.10314 0.01596,0.10314 0.0061,0.17084 0.0061,0.17086 -0.01248,0.12432 -0.01248,0.12419 -0.02567,0.12852 -0.02567,0.128494 -0.04088,0.1252 -0.04088,0.1252 -0.05516,0.11903 -0.05516,0.11902 -0.06013,0.0984 -0.06013,0.0983 -0.07022,0.0933 -0.0702,0.0932 -0.08526,0.091 -0.08527,0.091 -0.09964,0.0835 -0.09964,0.0835 -0.108722,0.0724 -0.108722,0.0724 -0.134608,0.0662 -0.134607,0.0662 -0.103553,0.0372 -0.10354,0.0372 -0.123235,0.0301 -0.123234,0.0301 -0.112682,0.0158 -0.112681,0.0158 h -0.04095 -0.04095 l 0.0272,0.0595 0.0272,0.0595 0.0447,0.12997 0.0447,0.12996 0.02575,0.12891 0.02575,0.12889 0.01236,0.10352 0.01236,0.10351 2.37e-4,0.20191 2.45e-4,0.20193 -0.0178,0.12368 -0.0178,0.12369 -0.03529,0.13775 -0.03529,0.13776 -0.04271,0.10919 -0.0427,0.10919 -0.05669,0.11082 -0.05669,0.11083 -0.06807,0.10238 -0.06807,0.10238 -0.07434,0.0891 -0.07434,0.0892 -0.09763,0.0951 -0.09763,0.0951 -0.06096,0.049 -0.06096,0.049 -0.113387,0.0758 -0.113375,0.0758 -0.12592,0.0614 -0.125933,0.0614 -0.102128,0.0377 -0.102141,0.0377 -0.120486,0.03 -0.120486,0.0299 -0.108722,0.0161 -0.108722,0.0161 -0.176031,0.005 -0.176031,0.005 -0.09837,-0.0101 z m 0.415679,-0.15478 0.107234,-0.0113 0.08801,-0.0163 0.08801,-0.0163 0.119087,-0.0342 0.119074,-0.0343 0.113904,-0.0486 0.113904,-0.0485 0.108722,-0.0624 0.108723,-0.0623 0.05179,-0.0371 0.05179,-0.0371 0.07766,-0.0623 0.07765,-0.0623 0.08339,-0.0831 0.08339,-0.0831 0.06585,-0.0828 0.06585,-0.0828 0.0615,-0.0932 0.0615,-0.0932 0.05454,-0.10868 0.05454,-0.10869 0.03851,-0.10301 0.03851,-0.10301 0.02964,-0.11448 0.02964,-0.11449 0.01726,-0.11385 0.01726,-0.11386 v -0.19156 -0.19157 l -0.01765,-0.13461 -0.01765,-0.1346 -0.03438,-0.13461 -0.03438,-0.13461 -0.03194,-0.0803 -0.03194,-0.0803 -0.04065,-0.0808 -0.04065,-0.0808 -0.03706,-0.0615 -0.03713,-0.0615 v -0.006 -0.006 l 0.165557,-0.006 0.165548,-0.006 0.111433,-0.0164 0.111433,-0.0164 0.11746,-0.0301 0.11746,-0.0301 0.116388,-0.0455 0.116376,-0.0455 0.0664,-0.0334 0.06632,-0.0334 0.07774,-0.0469 0.07774,-0.0469 0.09676,-0.0715 0.09676,-0.0714 0.08865,-0.0847 0.08865,-0.0847 0.07794,-0.0932 0.07794,-0.0932 0.0654,-0.0997 0.0654,-0.0997 0.0667,-0.13844 0.0667,-0.13843 0.03674,-0.11121 0.03675,-0.11133 0.0256,-0.126894 0.02559,-0.12692 0.0121,-0.12432 0.01211,-0.12419 -0.0061,-0.15532 -0.0061,-0.15533 -0.01643,-0.0982 -0.01643,-0.0982 -0.02514,-0.0994 -0.02514,-0.0994 -0.03743,-0.107931 -0.03743,-0.107928 -0.05944,-0.124319 -0.05944,-0.124193 -0.06074,-0.09797 -0.06073,-0.09797 -0.07791,-0.103389 -0.0779,-0.103389 -0.09755,-0.101624 -0.09755,-0.101624 -0.09439,-0.07628 -0.09439,-0.07628 -0.07587,-0.04879 -0.07586,-0.04879 -0.107032,-0.05106 -0.107021,-0.05106 -0.100791,-0.0256 -0.100792,-0.0256 -0.10204,-0.0063 -0.102027,-0.0063 V 91.487706 85.65961 h 1.67077 1.670763 l 0.0061,0.152725 0.0061,0.152738 0.01703,0.09835 0.01703,0.09835 0.0405,0.122427 0.04049,0.122428 0.04867,0.09418 0.04867,0.09418 0.06013,0.08107 0.06013,0.08107 0.08238,0.08107 0.08238,0.08107 0.08912,0.06342 0.0891,0.06342 0.121066,0.06153 0.121066,0.06153 0.102065,0.03795 0.102065,0.03808 0.13609,0.0348 0.136089,0.0348 0.139794,0.02106 0.139788,0.02106 0.15493,0.01261 0.154929,0.01261 0.186773,-0.0063 0.186772,-0.0063 0.09837,-0.01652 0.09837,-0.01652 0.11804,-0.0314 0.11804,-0.03127 0.104486,-0.04136 0.104486,-0.04136 0.106478,-0.0556 0.10649,-0.0556 0.08808,-0.05926 0.08808,-0.05926 0.100628,-0.0846 0.100627,-0.0846 0.09683,-0.108054 0.09683,-0.108054 0.08218,-0.12268 0.08218,-0.12268 0.06128,-0.125832 0.06128,-0.125832 0.04148,-0.121797 0.04148,-0.121797 0.02552,-0.121545 0.02552,-0.121545 0.0111,-0.100489 0.01109,-0.100615 v -0.129832 -0.129841 h 0.0069 0.0069 l 0.07868,0.04526 0.07868,0.04526 0.06623,0.03329 0.06623,0.03329 0.08907,0.03379 0.08905,0.03379 0.10354,0.02685 0.103553,0.02686 0.09319,0.01601 0.09319,0.01601 0.167802,0.01261 0.167803,0.01261 0.146067,-0.01261 0.14606,-0.01261 0.110676,-0.02118 0.110677,-0.02118 0.139895,-0.04564 0.139887,-0.04564 0.134508,-0.06657 0.134507,-0.06657 0.09319,-0.0614 0.09319,-0.0614 0.07766,-0.06279 0.07765,-0.06279 0.109164,-0.112467 0.109151,-0.112467 0.06425,-0.08473 0.06425,-0.08473 0.05554,-0.09128 0.05554,-0.09128 0.02865,-0.05661 0.02865,-0.05661 0.04607,-0.114232 0.04607,-0.114232 0.03529,-0.136927 0.03522,-0.136928 0.01574,-0.119906 0.01573,-0.119906 -2.67e-4,-0.16256 -2.67e-4,-0.16256 -0.01513,-0.106667 -0.01513,-0.106667 -0.0223,-0.09519 -0.02223,-0.09519 -0.04095,-0.119023 -0.04095,-0.119024 -0.05119,-0.105028 -0.05119,-0.105028 -0.05531,-0.08813 -0.05531,-0.08813 -0.06081,-0.08095 -0.06081,-0.08095 -0.09717,-0.101372 -0.09719,-0.101371 -0.09439,-0.07641 -0.09439,-0.07628 -0.09195,-0.05964 -0.09195,-0.05964 -0.09736,-0.04955 -0.09735,-0.04955 -0.09543,-0.03694 -0.09545,-0.03694 -0.08801,-0.02522 -0.08801,-0.02522 -0.07766,-0.01576 -0.07766,-0.01576 -0.09026,-0.01135 -0.09025,-0.01135 h -0.158253 -0.158246 l -0.112568,0.01576 -0.11258,0.01576 -0.09971,0.02534 -0.09971,0.02522 -0.108344,0.03782 -0.108344,0.03782 -0.103931,0.05018 -0.103931,0.05006 -0.09691,0.05762 -0.09691,0.05762 h -0.0038 -0.0038 V 81.470461 81.34062 l -0.01097,-0.100489 -0.01097,-0.100615 -0.0207,-0.103515 -0.0207,-0.103515 -0.04699,-0.141769 -0.04698,-0.141778 -0.06486,-0.13262 -0.06486,-0.132629 -0.07204,-0.108722 -0.07205,-0.108723 -0.07811,-0.09319 -0.07811,-0.0932 -0.08683,-0.08346 -0.08683,-0.08346 -0.0725,-0.05768 -0.0725,-0.05768 -0.09186,-0.05966 -0.09186,-0.05966 -0.120423,-0.0602 -0.120423,-0.0602 -0.139764,-0.0463 -0.139764,-0.0463 -0.103541,-0.02085 -0.103552,-0.02085 -0.129428,-0.01236 -0.129436,-0.01236 -0.134744,0.0061 -0.134745,0.0061 -0.129298,0.02193 -0.129298,0.02193 -0.12181,0.03499 -0.121797,0.03506 -0.11635,0.04752 -0.116351,0.04752 -0.09837,0.05249 -0.09837,0.05249 -0.113892,0.07549 -0.113904,0.07549 -0.09924,0.08288 -0.09925,0.08286 -0.09232,0.09758 -0.09232,0.09756 -0.06211,0.084 -0.06211,0.084 -0.05447,0.09097 -0.05447,0.09097 -0.04041,0.103553 -0.04041,0.10354 -0.01635,0.07981 -0.01635,0.07981 v 0.08334 0.08322 h -1.672266 -1.672275 v -0.997633 -0.997632 l 0.147556,-0.0061 0.14755,-0.0061 0.09319,-0.01628 0.09319,-0.01628 0.09319,-0.02628 0.09319,-0.02628 0.116527,-0.05569 0.116527,-0.05569 0.08021,-0.05493 0.08021,-0.05494 0.09837,-0.09846 0.09836,-0.09845 0.06395,-0.09081 0.06395,-0.09082 0.05776,-0.112946 0.05776,-0.112946 0.03476,-0.09127 0.03476,-0.09127 0.02674,-0.09319 0.02674,-0.09319 0.02635,-0.1301 0.02635,-0.130092 0.01596,-0.13395 0.01596,-0.133951 0.0061,-0.196735 0.0061,-0.196727 -0.01223,-0.113917 -0.01223,-0.113904 -0.02552,-0.126898 -0.02544,-0.126907 -0.03706,-0.111256 -0.03706,-0.111257 -0.05936,-0.124256 -0.05936,-0.124243 -0.05294,-0.08512 -0.05294,-0.08512 -0.06181,-0.08122 -0.06181,-0.08124 -0.08008,-0.08511 -0.08008,-0.08512 -0.09024,-0.07571 -0.09024,-0.07571 -0.102494,-0.068 -0.102481,-0.068 -0.103553,-0.05211 -0.10354,-0.05211 -0.09469,-0.03651 -0.09468,-0.03651 -0.09102,-0.02635 -0.09102,-0.02635 -0.114572,-0.02155 -0.114585,-0.02155 -0.199333,-0.0053 -0.199325,-0.0053 v -0.01021 -0.01021 l 0.03522,-0.05829 0.03522,-0.05829 0.04156,-0.08284 0.04156,-0.08284 0.03284,-0.08282 0.03284,-0.08284 0.03438,-0.134607 0.03438,-0.134608 0.01765,-0.134607 0.01765,-0.134615 V 73.58633 73.394767 l -0.01726,-0.113892 -0.01726,-0.113904 -0.02964,-0.114472 -0.02964,-0.114471 -0.03835,-0.102986 -0.03836,-0.10296 -0.05714,-0.112303 -0.05715,-0.112291 -0.05898,-0.08962 -0.05898,-0.08963 -0.06395,-0.07926 -0.06395,-0.07924 -0.08904,-0.08898 -0.08898,-0.08897 -0.07924,-0.06403 -0.07924,-0.06403 -0.09319,-0.06096 -0.0932,-0.06096 -0.130589,-0.06493 -0.130597,-0.06493 -0.128266,-0.04255 -0.128275,-0.04255 -0.12961,-0.0262 -0.129618,-0.0262 -0.152462,-0.01135 -0.152463,-0.01135 -0.137289,0.01147 -0.137281,0.01147 -0.124256,0.02505 -0.124256,0.02505 -0.113904,0.03728 -0.113905,0.03728 -0.137724,0.0664 -0.137733,0.0664 -0.09006,0.0586 -0.09007,0.05859 -0.08683,0.06762 -0.08683,0.06761 -0.0946,0.09413 -0.0946,0.09412 -0.06837,0.08801 -0.06838,0.08801 -0.0586,0.09009 -0.0586,0.09006 -0.0664,0.137732 -0.0664,0.137724 -0.03728,0.113904 -0.03728,0.113905 -0.02505,0.124243 -0.02505,0.124256 -0.01185,0.139787 -0.01185,0.139794 0.0069,0.10354 0.0069,0.103541 0.01528,0.105671 0.01528,0.105671 0.03568,0.130137 0.03568,0.130139 0.05324,0.129588 0.05325,0.129588 0.06945,0.121268 0.06945,0.12128 0.0121,0.02269 0.0121,0.02269 -0.157947,2.3e-5 -0.157948,2.3e-5 -0.113904,0.01673 -0.113892,0.01673 -0.108722,0.02644 -0.108735,0.02644 -0.09836,0.03553 -0.09837,0.03553 -0.113892,0.05478 -0.113904,0.05478 -0.09475,0.05868 -0.09475,0.05875 -0.09681,0.07426 -0.09681,0.07426 -0.113905,0.114799 -0.113904,0.1148 -0.07372,0.09831 -0.07372,0.09831 -0.04278,0.07013 -0.04278,0.07014 -0.05623,0.112126 -0.05623,0.112127 -0.03759,0.107676 -0.03759,0.107676 -0.02529,0.103552 -0.02529,0.103541 -0.01543,0.117018 -0.01543,0.117019 v 0.148107 0.148115 l 0.01072,0.133521 0.01072,0.133523 0.01574,0.108723 0.01573,0.108722 0.02635,0.119086 0.02635,0.119074 0.04065,0.124256 0.04065,0.124256 0.06226,0.128862 0.06226,0.128855 0.05554,0.08342 0.05554,0.08342 0.07289,0.0841 0.07289,0.08411 0.07933,0.0638 0.07933,0.0638 0.05584,0.03576 0.05584,0.03576 0.07342,0.03698 0.07342,0.03698 0.106251,0.03553 0.106251,0.03553 0.119893,0.02048 0.119906,0.02048 0.140505,0.0069 0.140505,0.0069 v 0.997642 0.997633 h -1.619055 -1.619261 l -0.0077,-0.100993 -0.0077,-0.100993 -0.02468,-0.09837 -0.02467,-0.09837 -0.06738,-0.134615 -0.06738,-0.134608 -0.06998,-0.0978 -0.0699,-0.0978 -0.124042,-0.128587 -0.124041,-0.128587 -0.08305,-0.06692 -0.08305,-0.06693 -0.113905,-0.07602 -0.113904,-0.07602 -0.108722,-0.05684 -0.108722,-0.05684 -0.11949,-0.04683 -0.11949,-0.04683 -0.11867,-0.03132 -0.118658,-0.03132 -0.09284,-0.01703 -0.09282,-0.01703 -0.144707,-0.0069 -0.144708,-0.0069 -0.121002,0.0069 -0.120991,0.0069 -0.129649,0.0262 -0.129641,0.0262 -0.112392,0.03666 -0.112391,0.03668 -0.137733,0.0667 -0.137724,0.0667 -0.09007,0.05868 -0.09008,0.05868 -0.06211,0.04737 -0.06211,0.04737 -0.117599,0.11427 -0.117598,0.11427 -0.0628,0.07765 -0.06273,0.07766 -0.07189,0.108722 -0.07189,0.108722 -0.06547,0.134615 -0.06548,0.134615 -0.04178,0.125945 -0.04187,0.125958 -0.02567,0.127749 -0.02567,0.127748 -0.01072,0.124319 -0.01072,0.124319 -10e-5,0.09065 -1.07e-4,0.09065 h -0.0061 -0.0061 l -0.08427,-0.05069 -0.08427,-0.05069 -0.09319,-0.0464 -0.09319,-0.0464 -0.09449,-0.03707 -0.09449,-0.03707 -0.117788,-0.03114 -0.117775,-0.03114 -0.09837,-0.01816 -0.09837,-0.01816 h -0.222408 -0.222619 l -0.103553,0.01879 -0.10354,0.01879 -0.09696,0.02509 -0.09697,0.02509 -0.09977,0.03719 -0.09977,0.0372 -0.113904,0.05686 -0.113905,0.05686 -0.08801,0.05737 -0.08802,0.05724 -0.06211,0.04741 -0.06211,0.04741 -0.112378,0.109062 -0.112379,0.109063 -0.07005,0.08801 -0.07005,0.08801 -0.05211,0.08006 -0.05219,0.08006 -0.05799,0.11335 -0.05799,0.113349 -0.03698,0.09645 -0.03698,0.09645 -0.03469,0.134847 -0.03469,0.134834 -0.0162,0.139562 -0.01619,0.13955 v 0.106541 0.106541 l 0.01097,0.100615 0.01097,0.100616 0.02048,0.103515 0.02048,0.103515 0.03147,0.102506 0.03148,0.102506 0.0495,0.114989 0.04951,0.114989 0.05584,0.09582 0.05584,0.09582 0.0673,0.09519 0.0673,0.09519 0.118254,0.122806 0.118255,0.122806 0.07847,0.06342 0.07849,0.06342 0.108722,0.07111 0.108722,0.07111 0.113904,0.0556 0.113892,0.0556 0.119074,0.04085 0.119086,0.04085 0.09319,0.02169 0.09319,0.02169 0.1222,0.01589 0.122189,0.01601 h 0.142637 0.142637 l 0.11311,-0.01135 0.11311,-0.01135 0.129435,-0.02572 0.129435,-0.02572 0.120058,-0.04009 0.120057,-0.0401 0.112921,-0.05749 0.112921,-0.05749 0.05271,-0.03127 0.05272,-0.03127 0.0069,0.173365 0.0069,0.173366 0.01658,0.108558 0.01658,0.108559 0.03064,0.119275 0.03064,0.119276 0.05562,0.137772 0.05562,0.137772 0.06403,0.111963 0.06403,0.111962 0.08346,0.112341 0.08346,0.112467 0.109819,0.109819 0.109806,0.10982 0.107411,0.07994 0.107411,0.07994 0.09693,0.05712 0.09693,0.05712 0.101031,0.04476 0.101044,0.04463 0.09648,0.03203 0.09647,0.03203 0.115795,0.02585 0.115796,0.02585 0.09319,0.01261 0.09319,0.01261 0.181203,-2.65e-4 0.181211,-2.9e-4 0.113904,-0.01715 0.113892,-0.01715 0.108722,-0.02648 0.108722,-0.02648 0.103553,-0.03631 0.10354,-0.03631 0.134615,-0.0643 0.134608,-0.0643 0.09764,-0.06065 0.09764,-0.06065 0.09057,-0.06809 0.09057,-0.06808 0.09366,-0.08586 0.09367,-0.08586 0.08404,-0.100489 0.08404,-0.100489 0.05462,-0.08284 0.05462,-0.08284 0.03759,-0.07477 0.03759,-0.07477 0.02452,-0.06518 0.02452,-0.06518 0.01628,-0.07237 0.01628,-0.07237 0.0069,-0.100993 0.0069,-0.100994 h 1.619078 1.619078 v 5.828173 5.828172 l -0.103818,0.0063 -0.103817,0.0063 -0.07822,0.02005 -0.07822,0.02005 -0.08713,0.03556 -0.08711,0.03556 -0.09067,0.05434 -0.09067,0.05434 -0.07766,0.05724 -0.07765,0.05724 -0.146175,0.145627 -0.146166,0.145614 -0.07772,0.105028 -0.07773,0.105154 -0.0521,0.08649 -0.05211,0.08649 -0.05676,0.113854 -0.05676,0.113853 -0.03873,0.103515 -0.03873,0.103515 -0.03399,0.134624 -0.03399,0.13461 -0.0165,0.1278 -0.0165,0.1278 v 0.1383 0.1383 l 0.01581,0.12217 0.01581,0.12218 0.03102,0.12432 0.03102,0.124324 0.05569,0.13777 0.05569,0.13777 0.06478,0.1131 0.06478,0.11322 0.08151,0.10856 0.08151,0.10856 0.08417,0.0889 0.08415,0.0889 0.0941,0.0789 0.0941,0.0789 0.108723,0.0717 0.108722,0.0717 0.119086,0.0596 0.119074,0.0596 0.101057,0.0377 0.101056,0.0377 0.117094,0.0301 0.117094,0.0301 0.113199,0.0158 0.113198,0.0158 0.161538,0.006 0.161537,0.006 -0.05607,0.0943 -0.05608,0.0943 -0.04584,0.0947 -0.04584,0.0947 -0.03598,0.0943 -0.03598,0.0943 -0.02597,0.0957 -0.02597,0.0957 -0.02231,0.12419 -0.02223,0.12432 -2.83e-4,0.19674 -2.9e-4,0.19673 0.02345,0.13461 0.02345,0.13462 0.03431,0.11915 0.03431,0.11902 0.04859,0.11385 0.04859,0.11386 0.03721,0.0673 0.03721,0.0673 0.04592,0.0725 0.04592,0.0725 0.06838,0.088 0.06838,0.088 0.09851,0.0991 0.09852,0.0991 0.0794,0.0627 0.07941,0.0628 0.08627,0.0564 0.08627,0.0564 0.0673,0.0371 0.0673,0.0371 0.112088,0.0478 0.112076,0.0478 0.103604,0.0308 0.103603,0.0308 0.110487,0.0211 0.110488,0.0211 0.09319,0.009 0.09319,0.009 0.08951,10e-4 0.08951,0.001 0.107235,-0.0113 z m -0.61036,-5.442554 -0.03423,-0.017 -0.01498,-0.029 -0.01498,-0.029 v -2.054663 -2.054666 l -0.680813,-0.392059 -0.680823,-0.392033 -0.03881,-0.03493 -0.03881,-0.03493 v -0.490152 -0.490152 l 0.0121,-0.0266 0.0121,-0.0266 0.02338,-0.0063 0.02338,-0.0063 0.02215,0.0063 0.02215,0.0063 0.638665,0.36761 0.638658,0.367598 0.0233,0.01488 0.0233,0.01488 V 88.974776 83.82317 l -2.470423,-0.0025 -2.47043,-0.0025 -0.03017,-0.03379 -0.03018,-0.03379 v -0.411772 -0.411702 l 0.01613,-0.02307 0.0162,-0.02307 0.02994,-0.01538 0.02994,-0.01538 h 2.454554 2.454563 V 81.762957 80.67574 h -0.683233 -0.683243 l -0.03384,-0.03017 -0.03384,-0.03017 -0.003,-0.414296 -0.003,-0.414304 0.03247,-0.03698 0.03247,-0.03698 h 0.687513 0.687508 v -1.373011 -1.373036 l 0.03521,-0.03521 0.03521,-0.03521 h 0.412914 0.412922 l 0.02307,0.01613 0.02307,0.01619 0.01543,0.02994 0.01543,0.02994 v 1.36214 1.362148 h 0.681103 0.681097 l 0.02307,0.0162 0.02307,0.0162 0.01543,0.02994 0.01543,0.02994 v 0.383957 0.383974 l -0.01475,0.03521 -0.01474,0.03522 -0.0314,0.0162 -0.03132,0.01619 h -0.673584 -0.673564 v 1.087172 1.087172 l 2.515971,0.0025 2.515972,0.0025 0.03384,0.03379 0.03384,0.03379 0.003,0.398741 0.003,0.398753 -0.01726,0.03644 -0.01726,0.03644 -0.02919,0.01513 -0.02919,0.015 h -2.506283 -2.506346 l 0.0023,5.432432 0.0023,5.432445 0.688585,0.396686 0.688584,0.396698 0.0285,0.03165 0.02849,0.03177 -5.65e-4,0.478741 -5.74e-4,0.478741 -0.01236,0.03619 -0.01236,0.03619 -0.03621,0.0025 -0.03621,0.0025 -0.65752,-0.379349 -0.657513,-0.379349 -0.01284,-0.005 -0.01283,-0.005 -0.0023,1.781882 -0.0023,1.781869 -0.03384,0.0338 -0.03384,0.0338 -0.401057,0.003 -0.401049,0.003 -0.03423,-0.017 z m -6.810213,-14.769824 -0.09319,-0.01009 -0.08801,-0.01639 -0.08802,-0.01639 -0.108798,-0.03518 -0.10881,-0.03518 -0.09211,-0.04703 -0.0921,-0.04703 -0.08305,-0.05938 -0.08305,-0.05939 -0.08633,-0.08662 -0.08633,-0.08662 -0.05783,-0.087 -0.05783,-0.087 -0.04088,-0.09267 -0.04088,-0.09267 -0.02514,-0.0991 -0.02514,-0.0991 -0.01185,-0.116123 -0.01185,-0.116124 0.0069,-0.108684 0.0069,-0.108685 0.01948,-0.09318 0.01948,-0.09318 0.03247,-0.08889 0.03247,-0.08889 0.04645,-0.08158 0.04645,-0.08158 0.05784,-0.07552 0.05783,-0.07552 0.07812,-0.073 0.07812,-0.073 0.100048,-0.06657 0.100047,-0.06657 0.07868,-0.03631 0.07868,-0.03631 0.09151,-0.03051 0.09152,-0.03051 0.104385,-0.02118 0.104385,-0.02118 0.128594,-0.01135 0.128594,-0.01135 0.134615,0.0063 0.134608,0.0063 0.129435,0.01475 0.129428,0.01475 0.147557,0.02812 0.147556,0.02812 1.84e-4,0.06254 1.83e-4,0.06254 0.02063,0.15531 0.02063,0.155323 0.0069,0.06544 0.0069,0.06544 -0.03903,-0.0025 -0.03904,-0.0025 -0.01758,-0.05699 -0.01758,-0.05699 -0.04057,-0.07767 -0.04057,-0.07767 -0.07265,-0.07262 -0.07266,-0.0725 -0.06448,-0.03404 -0.06448,-0.03404 -0.05981,-0.02068 -0.05981,-0.02068 -0.09319,-0.01513 -0.09319,-0.01513 h -0.113904 -0.113892 l -0.09497,0.01538 -0.09497,0.01538 -0.08106,0.02585 -0.08106,0.02585 -0.0673,0.03404 -0.0673,0.03417 -0.0615,0.04085 -0.0615,0.04085 -0.07013,0.0701 -0.07014,0.0701 -0.04049,0.05964 -0.0405,0.05964 -0.04278,0.08511 -0.04278,0.08511 -0.02628,0.09065 -0.02628,0.09065 -0.01513,0.09355 -0.01513,0.09343 v 0.160505 0.160493 l 0.01513,0.09834 0.01513,0.09835 0.01596,0.06014 0.01596,0.06014 0.03476,0.09255 0.03476,0.09242 0.05065,0.0841 0.05065,0.0841 0.0641,0.0754 0.0641,0.0754 0.07449,0.05825 0.07449,0.05825 0.06608,0.03694 0.06608,0.03694 0.0956,0.03417 0.0956,0.03417 0.10726,0.0179 0.107247,0.0179 0.130888,-0.005 0.130879,-0.005 0.0673,-0.0174 0.0673,-0.0174 0.08464,-0.04035 0.08465,-0.04035 0.07587,-0.06039 0.07587,-0.06039 0.06143,-0.07817 0.06143,-0.07817 0.05302,-0.09192 0.05302,-0.09192 0.02628,-0.0025 0.02628,-0.0025 0.01223,0.01463 0.01223,0.01462 -0.01566,0.07641 -0.01566,0.07641 -0.03667,0.113854 -0.03668,0.113854 -0.03843,0.07742 -0.03843,0.07742 -0.08284,0.02408 -0.08284,0.02408 -0.09272,0.02068 -0.09272,0.0208 -0.104019,0.015 -0.10402,0.015 -0.160492,0.005 -0.160499,0.005 -0.09319,-0.01009 z m 16.328207,-2.78e-4 -0.09421,-0.0088 -0.1032,-0.02106 -0.103187,-0.02106 -0.08112,-0.02648 -0.08112,-0.02648 -0.07806,-0.03606 -0.07805,-0.03606 -0.104196,-0.06935 -0.104196,-0.06935 -0.0934,-0.09355 -0.0934,-0.09355 -0.04927,-0.07439 -0.04927,-0.07426 -0.04568,-0.09645 -0.04569,-0.09645 -0.02544,-0.09835 -0.02552,-0.09835 -0.01284,-0.102506 -0.01283,-0.102507 0.0061,-0.14081 0.0061,-0.140811 0.0201,-0.08801 0.0201,-0.08801 0.02544,-0.06733 0.02544,-0.06733 0.0418,-0.08309 0.04178,-0.08309 0.0615,-0.08259 0.0615,-0.08258 0.08706,-0.08309 0.08707,-0.08309 0.08801,-0.05813 0.08802,-0.05812 0.07327,-0.03656 0.07327,-0.03656 0.103289,-0.03593 0.103275,-0.03593 0.108205,-0.02169 0.108193,-0.02169 0.129435,-0.01135 0.129428,-0.01135 0.134615,0.0063 0.134607,0.0063 0.129436,0.0145 0.129428,0.01463 0.141765,0.02799 0.141759,0.02799 0.0061,0.06796 0.0061,0.06796 0.0214,0.170844 0.0214,0.170856 7.64e-4,0.04136 7.64e-4,0.04135 -0.03621,0.0025 -0.03621,0.0025 -0.0243,-0.07729 -0.0243,-0.07729 -0.03781,-0.06493 -0.03781,-0.06506 -0.06265,-0.06254 -0.06265,-0.06254 -0.05814,-0.03442 -0.05814,-0.03442 -0.07127,-0.02484 -0.07136,-0.02484 -0.09782,-0.01715 -0.09782,-0.01715 -0.155319,0.005 -0.155312,0.005 -0.09914,0.02572 -0.09914,0.02572 -0.0799,0.03329 -0.0799,0.03329 -0.07982,0.05207 -0.07982,0.05207 -0.07327,0.07363 -0.07327,0.07363 -0.04186,0.06216 -0.04187,0.06216 -0.03308,0.06556 -0.03308,0.06556 -0.02934,0.08977 -0.02934,0.08977 -0.01856,0.103515 -0.01856,0.103515 1.9e-4,0.176038 1.85e-4,0.176026 0.01826,0.103515 0.01826,0.103515 0.03124,0.09835 0.03132,0.09835 0.04156,0.08284 0.04156,0.08284 0.04049,0.05964 0.04049,0.05964 0.06303,0.06733 0.06303,0.06733 0.06853,0.05157 0.06853,0.05157 0.07766,0.04022 0.07765,0.04022 0.08237,0.02736 0.08237,0.02736 0.08725,0.01526 0.08725,0.01526 h 0.111635 0.111635 l 0.07594,-0.01463 0.07594,-0.01462 0.07112,-0.02686 0.07112,-0.02686 0.06333,-0.03846 0.06333,-0.03845 0.08107,-0.07742 0.08107,-0.07742 0.05509,-0.08334 0.05509,-0.08334 0.0272,-0.05434 0.0272,-0.05434 h 0.03124 0.03124 l 0.0069,0.01727 0.0069,0.0174 -0.01248,0.07313 -0.01248,0.07313 -0.03606,0.107928 -0.03606,0.107928 -0.03958,0.08448 -0.03958,0.08448 -0.143951,0.03782 -0.14395,0.03782 -0.0932,0.01576 -0.09319,0.01576 -0.113905,0.01009 -0.113904,0.01009 -0.08801,-0.0013 -0.08802,-0.0013 -0.09421,-0.0088 z m -18.825438,-0.06972 -0.0061,-0.02408 0.0098,-0.01009 0.0098,-0.01009 0.06028,-0.01009 0.06028,-0.01009 0.05317,-0.01538 0.05317,-0.01538 0.02697,-0.02887 0.02697,-0.02887 0.01135,-0.03619 0.01135,-0.03619 0.01059,-0.11398 0.01059,-0.113854 -2.9e-4,-0.80767 -2.82e-4,-0.807644 -0.0096,-0.106036 -0.0096,-0.106037 -0.01261,-0.04199 -0.01261,-0.04199 -0.03384,-0.02976 -0.03384,-0.02976 -0.07564,-0.01589 -0.07564,-0.01589 -0.03316,-0.0063 -0.03316,-0.0063 -0.0061,-0.01853 -0.0061,-0.01853 0.0053,-0.01437 0.0053,-0.0145 0.483965,0.0013 0.483964,0.0013 v 0.02925 0.02925 l -0.03109,0.0076 -0.03109,0.0076 -0.08084,0.01677 -0.08083,0.01677 -0.03384,0.02976 -0.03384,0.02976 -0.01173,0.03934 -0.01173,0.03934 -0.01072,0.113854 -0.01072,0.113854 v 0.802487 0.802462 l 0.01059,0.11398 0.01059,0.113854 0.01135,0.03619 0.01135,0.03619 0.02689,0.02887 0.02697,0.02887 0.05317,0.01538 0.05317,0.01538 0.06028,0.01009 0.06028,0.01009 0.0098,0.01009 0.0098,0.01009 -0.0061,0.02408 -0.0061,0.02408 h -0.482398 -0.482391 l -0.0061,-0.02408 z m 15.139354,0.0198 -0.0045,-0.005 v -0.02358 -0.02358 l 0.0086,-0.005 0.0086,-0.005 0.08195,-0.01677 0.08195,-0.01677 0.0725,-0.03871 0.0725,-0.03871 0.100502,-0.112466 0.100514,-0.112467 0.256724,-0.351687 0.256731,-0.351686 0.03881,-0.05649 0.03881,-0.05649 v -0.01349 -0.01349 l -0.03423,-0.05018 -0.03423,-0.05018 -0.207141,-0.2951 -0.207141,-0.295112 -0.116363,-0.173139 -0.116376,-0.173126 -0.05072,-0.05548 -0.05072,-0.05548 -0.06005,-0.03152 -0.06013,-0.03152 -0.03109,-0.0063 -0.03109,-0.0063 -0.03943,-0.01009 -0.03943,-0.01009 0.003,-0.0319 0.003,-0.0319 0.433861,2.9e-4 0.433856,2.77e-4 0.0088,0.01576 0.0088,0.01576 -0.0061,0.01614 -0.0061,0.01614 -0.03781,0.0063 -0.03781,0.0063 -0.06623,0.01715 -0.06623,0.01715 -0.0111,0.01778 -0.0111,0.01778 0.0285,0.05812 0.02849,0.05813 0.178858,0.265798 0.178858,0.265798 0.09581,0.132022 0.09581,0.132023 h 0.0038 0.0038 l 0.09258,-0.132023 0.09258,-0.132022 0.108596,-0.165675 0.108596,-0.165662 0.07881,-0.134607 0.07882,-0.13462 0.0069,-0.03278 0.0069,-0.03278 -0.02972,-0.01538 -0.02972,-0.01538 -0.06715,-0.01286 -0.06715,-0.01286 -0.01872,-0.01009 -0.01872,-0.01009 0.003,-0.02648 0.003,-0.02648 0.396519,-0.0013 0.396518,-0.0013 0.0061,0.02408 0.0061,0.02408 -0.0098,0.01009 -0.0098,0.01009 -0.08728,0.01639 -0.08728,0.01639 -0.05691,0.02736 -0.05691,0.02749 -0.07312,0.0725 -0.07319,0.0725 -0.06807,0.08801 -0.06807,0.08801 -0.239319,0.334463 -0.239312,0.334438 v 0.02875 0.02875 l 0.135928,0.201116 0.13593,0.20113 0.09867,0.139789 0.09867,0.13979 0.142309,0.196728 0.142301,0.196742 0.06608,0.06342 0.06608,0.06342 0.05226,0.02648 0.05226,0.02648 0.08693,0.01652 0.08693,0.01652 0.0095,0.0088 0.0095,0.0088 -0.0061,0.02408 -0.0061,0.02408 -0.47935,-7.69e-4 -0.479358,-7.57e-4 -0.003,-0.03253 -0.003,-0.03253 h 0.0053 0.0053 l 0.07579,-0.01551 0.07571,-0.01563 0.04485,-0.01664 0.04485,-0.01677 -0.0061,-0.02497 -0.0061,-0.02496 -0.03293,-0.05409 -0.03293,-0.05409 -0.153264,-0.224934 -0.153264,-0.224946 -0.132293,-0.185054 -0.132292,-0.185041 -0.09285,0.125202 -0.09285,0.125201 -0.124634,0.186416 -0.124634,0.186402 -0.0699,0.115998 -0.0699,0.115997 -0.02108,0.04779 -0.02108,0.04779 0.01528,0.02332 0.01528,0.02333 0.03988,0.01135 0.03988,0.01135 0.07044,0.01261 0.07044,0.01261 -0.003,0.03139 -0.003,0.03139 -0.407275,7.7e-4 -0.407283,7.56e-4 -0.0045,-0.005 z" />
    <g id="text-st-alexis">
      <path d="m 53.749435,108.17774 q -0.109375,0.40625 -0.117187,1.07813 h -0.269531 v -0.3125 q 0,-0.30469 -0.08203,-0.41407 -0.08203,-0.10937 -0.429687,-0.23046 -0.34375,-0.125 -0.726563,-0.125 -0.625,0 -0.984375,0.3164 -0.355468,0.31641 -0.355468,0.8125 0,0.3125 0.144531,0.53906 0.148437,0.22266 0.394531,0.32422 0.25,0.0977 1.054688,0.17188 0.804687,0.0781 1.085937,0.20703 0.285156,0.12891 0.453125,0.41406 0.171875,0.28516 0.171875,0.67578 0,0.78516 -0.65625,1.35157 -0.65625,0.5664 -1.75,0.5664 -0.375,0 -0.757812,-0.0781 -0.378907,-0.0742 -0.765625,-0.22266 0.07031,-0.46875 0.06641,-1.20312 h 0.265625 v 0.19531 q 0,0.3789 0.03906,0.46875 0.03906,0.0898 0.183594,0.1914 0.214844,0.15235 0.511719,0.23438 0.296875,0.0781 0.640625,0.0781 0.738281,0 1.140625,-0.34765 0.402344,-0.34766 0.402344,-0.88281 0,-0.3125 -0.136719,-0.52735 -0.136719,-0.21875 -0.382813,-0.32422 -0.246093,-0.10547 -0.910156,-0.16015 -0.882812,-0.0703 -1.199219,-0.21094 -0.316406,-0.14063 -0.496093,-0.44141 -0.179688,-0.30468 -0.179688,-0.7539 0,-0.76172 0.550781,-1.2461 0.550782,-0.48437 1.523438,-0.48437 0.390625,0 0.78125,0.0859 0.394531,0.082 0.789062,0.2539 z" id="path242" />
      <path d="m 55.647873,110.4043 v 1.53125 q 0,0.59766 0.03906,0.76563 0.03906,0.16797 0.15625,0.26172 0.121094,0.0937 0.304688,0.0937 0.113281,0 0.21875,-0.043 0.109375,-0.0469 0.214844,-0.13672 l 0.113281,0.13672 -0.378906,0.44922 q -0.125,0.043 -0.242188,0.0664 -0.117187,0.0234 -0.226562,0.0234 -0.289063,0 -0.488282,-0.10547 -0.199218,-0.10156 -0.289062,-0.26562 -0.08984,-0.16797 -0.08984,-0.50391 l 0.01172,-0.7539 v -1.48438 q -0.300781,0 -0.621094,0.0273 v -0.16796 q 0.335938,-0.12891 0.621094,-0.26954 -0.0039,-0.55859 -0.03125,-1.21093 0.453125,-0.19141 0.652344,-0.3086 l 0.101562,0.0781 q -0.03125,0.30469 -0.06641,1.4414 0.476562,0 0.777344,-0.0117 l 0.3125,-0.0156 -0.04297,0.40234 -0.160156,-0.004 -0.75,0.004 z" id="path244" />
      <path d="m 57.808029,112.63868 q 0.1875,0 0.320313,0.13281 0.132812,0.13281 0.132812,0.32422 0,0.1875 -0.132812,0.32422 -0.132813,0.13281 -0.320313,0.13281 -0.191406,0 -0.324219,-0.13281 -0.132812,-0.13672 -0.132812,-0.32422 0,-0.19141 0.132812,-0.32422 0.132813,-0.13281 0.324219,-0.13281 z" id="path246" />
      <path d="m 64.905685,111.59962 h -2.257812 l -0.265625,0.6289 q -0.261719,0.625 -0.261719,0.76563 0,0.0898 0.04687,0.1289 0.05078,0.0391 0.25,0.0625 l 0.375,0.043 v 0.2461 q -0.375,-0.0273 -0.84375,-0.0273 -0.5625,0 -0.988281,0.0273 v -0.2461 l 0.117187,-0.004 q 0.273438,-0.008 0.351563,-0.0547 0.08203,-0.0508 0.171875,-0.24219 0.277344,-0.5625 0.566406,-1.21484 l 1.074219,-2.4336 q 0.429687,-0.96875 0.585937,-1.40625 h 0.265625 l 1.976563,4.59766 q 0.199219,0.46875 0.265625,0.56641 0.06641,0.0937 0.152344,0.13672 0.08594,0.0391 0.386718,0.0547 v 0.2461 q -0.507812,-0.0273 -0.96875,-0.0273 -0.429687,0 -1.144531,0.0273 v -0.2461 l 0.386719,-0.0234 q 0.207031,-0.0156 0.246094,-0.043 0.05859,-0.043 0.05859,-0.10938 0,-0.0703 -0.117187,-0.36719 z m -2.113281,-0.32032 h 1.96875 l -0.984375,-2.35156 z" id="path248" />
      <path d="m 68.585373,107.67384 q -0.06641,1.14453 -0.06641,2.07031 v 2.00781 q 0,1.19531 0.05078,1.35547 0.02734,0.082 0.257812,0.10547 l 0.332032,0.0352 v 0.22657 q -0.425782,-0.0273 -0.8125,-0.0273 -0.429688,0 -1.125,0.0273 v -0.22657 l 0.335937,-0.0273 q 0.222656,-0.0195 0.253906,-0.11328 0.05078,-0.15234 0.05078,-1.38672 v -1.99609 l -0.0039,-0.75 -0.01172,-0.51172 q 0,-0.19141 -0.04297,-0.23438 -0.0625,-0.0625 -0.261719,-0.0625 h -0.320312 v -0.23437 q 0.8125,-0.0742 1.296875,-0.30469 z" id="path250" />
      <path d="m 70.323654,111.58399 q 0.01953,0.76953 0.394531,1.16797 0.375,0.39844 0.984375,0.39844 0.273438,0 0.542969,-0.0898 0.269531,-0.0898 0.535156,-0.26953 l 0.06641,0.0586 -0.125,0.32812 q -0.324219,0.1875 -0.667969,0.28125 -0.34375,0.0937 -0.707031,0.0937 -0.792969,0 -1.28125,-0.5 -0.484375,-0.5039 -0.484375,-1.36328 0,-0.65625 0.273437,-1.13672 0.179688,-0.3164 0.664063,-0.58594 0.484375,-0.26953 0.941406,-0.26953 0.691406,0 1.09375,0.40625 0.40625,0.40625 0.40625,1.13672 l -0.0078,0.23047 q -0.257812,0.0625 -0.492187,0.082 -0.417969,0.0312 -1.160156,0.0312 z m 0.01172,-0.29297 q 0.605469,0.0273 1.335937,0.0273 0.292969,0 0.566407,-0.0273 v -0.21875 q 0,-0.34375 -0.136719,-0.65234 -0.08594,-0.19141 -0.300781,-0.31641 -0.214844,-0.1289 -0.496094,-0.1289 -0.4375,0 -0.699219,0.32031 -0.261719,0.32031 -0.269531,0.99609 z" id="path252" />
      <path d="m 73.39006,110.07618 0.746094,-0.36328 q 0.246094,0.0977 0.40625,0.28125 0.257813,0.28906 0.832031,1.23047 0.507813,-0.67578 1.035157,-1.44922 0.152343,0.0234 0.253906,0.0234 0.08203,0 0.34375,-0.0234 v 0.23047 q -0.210938,0.0117 -0.339844,0.125 -0.210937,0.18359 -1.121094,1.3164 0.527344,0.77735 0.882813,1.24219 0.242187,0.31641 0.390625,0.39844 0.09375,0.0508 0.296875,0.0508 v 0.22656 q -0.359375,0.082 -0.78125,0.20703 -0.199219,-0.14453 -0.335938,-0.3164 -0.08594,-0.10938 -0.863281,-1.27735 -0.367187,0.44922 -0.566406,0.72657 -0.195313,0.27734 -0.5,0.76953 -0.164063,-0.0273 -0.296875,-0.0273 -0.140625,0 -0.382813,0.0273 v -0.23828 q 0.199219,0 0.269532,-0.0352 0.07031,-0.0352 0.382812,-0.38281 0.453125,-0.50391 0.914063,-1.08594 -0.726563,-1.08203 -0.941407,-1.26953 -0.210937,-0.1875 -0.453125,-0.1875 -0.06641,0 -0.171875,0.0117 z" id="path254" />
      <path d="m 78.487717,107.95118 q 0.179687,0 0.308593,0.13281 0.128907,0.12891 0.128907,0.3125 0,0.1836 -0.128907,0.3125 -0.128906,0.12891 -0.308593,0.12891 -0.183594,0 -0.3125,-0.12891 -0.128907,-0.1289 -0.128907,-0.3125 0,-0.18359 0.128907,-0.3125 0.128906,-0.13281 0.3125,-0.13281 z m 0.3125,1.73047 0.09375,0.0586 q -0.02734,0.29297 -0.03516,0.64453 -0.02734,1.14063 -0.02734,1.6836 0,0.50781 0.03516,0.86718 0.01563,0.14063 0.07422,0.19532 0.05859,0.0547 0.28125,0.082 l 0.265625,0.0352 v 0.22657 q -0.570313,-0.0273 -1.039063,-0.0273 -0.460937,0 -0.929687,0.0273 v -0.22657 l 0.335937,-0.0352 q 0.195313,-0.0156 0.238281,-0.0703 0.04687,-0.0586 0.05859,-0.37891 0.01953,-0.49609 0.01953,-1.36719 0,-0.60547 -0.01953,-0.93359 -0.0078,-0.1211 -0.07031,-0.17188 -0.05859,-0.0508 -0.269532,-0.0508 H 77.51897 v -0.23047 q 0.476562,-0.0703 0.699218,-0.1289 0.226563,-0.0586 0.582032,-0.19922 z" id="path256" />
      <path d="m 80.241623,112.2793 v 0.25391 q 0,0.30469 0.05469,0.37891 0.101563,0.125 0.394532,0.24218 0.296875,0.11719 0.609375,0.11719 0.402343,0 0.65625,-0.21484 0.253906,-0.21875 0.253906,-0.51953 0,-0.23828 -0.148438,-0.38282 -0.148437,-0.14453 -0.566406,-0.23046 -0.777344,-0.15625 -1.027344,-0.27344 -0.25,-0.11719 -0.375,-0.3125 -0.125,-0.19531 -0.125,-0.47266 0,-0.51953 0.375,-0.84375 0.378907,-0.32422 1.070313,-0.32422 0.546875,0 1.089844,0.21875 -0.03125,0.26563 -0.05078,0.89063 h -0.230468 q -0.0078,-0.34375 -0.07422,-0.45313 -0.08984,-0.14453 -0.328125,-0.26172 -0.238281,-0.11718 -0.507813,-0.11718 -0.355468,0 -0.570312,0.18359 -0.210938,0.17969 -0.210938,0.45313 0,0.26171 0.167969,0.39453 0.167969,0.13672 0.929688,0.28906 0.5625,0.11328 0.742187,0.21094 0.179688,0.0977 0.289063,0.29687 0.109375,0.19922 0.109375,0.45703 0,0.52735 -0.453125,0.91016 -0.449219,0.38281 -1.203125,0.38281 -0.480469,0 -1.078125,-0.15234 -0.105469,-0.0273 -0.105469,-0.082 l 0.01172,-0.0547 q 0.01563,-0.0586 0.02734,-0.20703 0.03516,-0.37891 0.03516,-0.58985 l -0.0039,-0.1875 z" id="path258" />
    </g>
    <g id="text-orthodox-church">
      <path d="m 45.516372,119.28613 q 0,-0.85677 0.552083,-1.3802 0.552083,-0.52344 1.471354,-0.52344 0.901041,0 1.411457,0.48698 0.513021,0.48437 0.513021,1.28906 0,0.86719 -0.59375,1.45052 -0.59375,0.58333 -1.497395,0.58333 -0.565104,0 -0.973958,-0.22916 -0.408854,-0.22917 -0.645833,-0.66927 -0.236979,-0.44011 -0.236979,-1.00782 z m 0.528646,-0.21354 q 0,0.58854 0.200521,1.02604 0.203125,0.4349 0.541666,0.65365 0.338541,0.21614 0.773437,0.21614 0.403646,0 0.705729,-0.18489 0.302083,-0.1849 0.473958,-0.55208 0.174479,-0.36719 0.174479,-0.89323 0,-0.55209 -0.192708,-0.94271 -0.190104,-0.39323 -0.523438,-0.59115 -0.333333,-0.19791 -0.789062,-0.19791 -0.416666,0 -0.718749,0.17448 -0.302083,0.17448 -0.473958,0.51302 -0.171875,0.33593 -0.171875,0.77864 z" id="path261" />
      <path d="m 50.576265,119.21061 q 0.104167,-0.099 0.226562,-0.26041 0.145834,-0.19011 0.270834,-0.26042 0.124999,-0.0703 0.26302,-0.0703 0.143229,0 0.21875,0.0338 0.03646,0.0156 0.03646,0.0495 l -0.0026,0.026 q -0.03906,0.21094 -0.04427,0.59115 h -0.117187 q -0.0599,-0.13281 -0.143229,-0.1875 -0.08073,-0.0547 -0.195312,-0.0547 -0.153646,0 -0.286459,0.10417 -0.130208,0.10416 -0.174479,0.29166 -0.04427,0.1875 -0.04427,0.73698 0,0.36198 0.02865,0.60938 0.01042,0.0911 0.05208,0.11458 0.09896,0.0547 0.291666,0.0547 h 0.15625 v 0.15104 q -0.398437,-0.0182 -0.755208,-0.0182 -0.346354,0 -0.684895,0.0182 v -0.15104 l 0.25,-0.0208 q 0.132812,-0.0104 0.166666,-0.0495 0.03646,-0.0391 0.04687,-0.25261 0.01823,-0.375 0.01823,-0.89062 0,-0.62761 -0.04948,-0.73698 -0.03385,-0.0703 -0.213541,-0.0703 h -0.21875 v -0.15105 q 0.252604,-0.0286 0.45052,-0.0729 0.197917,-0.0469 0.351563,-0.11719 0.03646,-0.0182 0.0599,-0.0182 0.02865,0 0.03906,0.0156 0.01042,0.0156 0.01042,0.0703 z" id="path263" />
      <path d="m 52.659597,119.09343 v 1.02083 q 0,0.39844 0.02604,0.51041 0.02604,0.11198 0.104166,0.17448 0.08073,0.0625 0.203125,0.0625 0.07552,0 0.145833,-0.0286 0.07292,-0.0312 0.14323,-0.0911 l 0.07552,0.0911 -0.252604,0.29948 q -0.08333,0.0286 -0.161458,0.0443 -0.07813,0.0156 -0.151041,0.0156 -0.192709,0 -0.325521,-0.0703 -0.132813,-0.0677 -0.192708,-0.17708 -0.0599,-0.11198 -0.0599,-0.33594 l 0.0078,-0.5026 v -0.98959 q -0.20052,0 -0.414062,0.0182 v -0.11198 q 0.223958,-0.0859 0.414062,-0.17968 -0.0026,-0.3724 -0.02083,-0.8073 0.302083,-0.1276 0.434896,-0.20572 l 0.06771,0.0521 q -0.02083,0.20312 -0.04427,0.96094 0.317708,0 0.518229,-0.008 l 0.208333,-0.0104 -0.02865,0.26823 -0.10677,-0.003 -0.5,0.003 z" id="path265" />
      <path d="m 54.378346,119.11686 0.341146,-0.29948 q 0.119792,-0.11197 0.234375,-0.15364 0.117187,-0.0417 0.28125,-0.0417 0.289062,0 0.499999,0.11719 0.213542,0.11458 0.294271,0.29687 0.08333,0.17969 0.08333,0.61459 l -0.01563,0.77083 q 0,0.26042 0.02083,0.41146 0.0078,0.0625 0.04167,0.0937 0.03646,0.0312 0.153646,0.0417 l 0.197917,0.0208 v 0.15104 q -0.252604,-0.0182 -0.492188,-0.0182 -0.205729,0 -0.408854,0.0182 0.04687,-0.65365 0.04687,-1.28646 0,-0.42448 -0.05469,-0.57552 -0.05208,-0.15104 -0.190104,-0.23958 -0.138021,-0.0885 -0.348958,-0.0885 -0.216146,0 -0.393229,0.10416 -0.177083,0.10157 -0.244792,0.23698 -0.04687,0.0964 -0.04687,0.45834 v 0.45312 q 0,0.61979 0.02865,0.6849 0.02865,0.0651 0.208333,0.0807 l 0.226563,0.0208 v 0.15104 q -0.40625,-0.0182 -0.653646,-0.0182 -0.257812,0 -0.674479,0.0182 v -0.15104 l 0.164063,-0.0208 q 0.153646,-0.0182 0.192708,-0.0417 0.03906,-0.026 0.05208,-0.11459 0.01823,-0.14062 0.01823,-0.6302 v -1.75781 q 0,-0.69532 -0.03646,-0.77865 -0.02344,-0.0573 -0.210937,-0.0573 h -0.179688 v -0.15886 q 0.403646,-0.0417 0.645833,-0.11718 l 0.213542,-0.0729 q 0.04167,0 0.04167,0.0547 l -0.0078,0.10677 -0.01563,0.46875 q -0.01302,0.35416 -0.01302,0.54948 z" id="path267" />
      <path d="m 56.724699,119.8903 q 0,-0.35937 0.166667,-0.64844 0.166666,-0.29166 0.466145,-0.45573 0.302084,-0.16406 0.684896,-0.16406 0.554687,0 0.88802,0.32813 0.333333,0.32812 0.333333,0.875 0,0.64583 -0.434895,1.02604 -0.388021,0.34114 -0.929687,0.34114 -0.520833,0 -0.848958,-0.34896 -0.325521,-0.35156 -0.325521,-0.95312 z m 0.489583,-0.1849 q 0,0.53646 0.21875,0.91927 0.221354,0.38021 0.635417,0.38021 0.315104,0 0.507812,-0.23958 0.195312,-0.23958 0.195312,-0.72656 0,-0.39323 -0.114583,-0.67969 -0.114583,-0.28906 -0.302083,-0.41927 -0.1875,-0.13281 -0.419271,-0.13281 -0.205729,0 -0.372395,0.10416 -0.164063,0.10417 -0.242188,0.27865 -0.106771,0.23698 -0.106771,0.51562 z" id="path269" />
      <path d="m 61.672613,118.78093 v -0.94271 q 0,-0.16406 -0.03646,-0.20573 -0.03646,-0.0417 -0.166666,-0.0417 h -0.223959 v -0.15625 q 0.463542,-0.0312 0.864583,-0.19271 l 0.04687,0.0312 q -0.01823,0.26563 -0.03125,0.64063 l -0.01042,0.69271 -0.0052,0.22396 v 1.55468 q 0,0.4349 0.02604,0.48438 0.03906,0.0703 0.216146,0.0937 l 0.184895,0.0234 v 0.15365 q -0.320312,-0.0234 -0.565103,-0.0234 -0.04427,0 -0.328125,0.0234 0.01823,-0.17708 0.02865,-0.5026 -0.221354,0.17187 -0.565104,0.48177 -0.221354,0.0729 -0.390625,0.0729 -0.440104,0 -0.736979,-0.33073 -0.296875,-0.33073 -0.296875,-0.88541 0,-0.34636 0.114584,-0.59115 0.114583,-0.24479 0.273437,-0.35416 0.158854,-0.11198 0.494791,-0.28125 0.257813,-0.12761 0.476563,-0.12761 0.148437,0 0.304687,0.0391 0.158854,0.0391 0.325521,0.1198 z m 0,0.44791 q -0.179688,-0.19271 -0.375,-0.28906 -0.192708,-0.0964 -0.403646,-0.0964 -0.341145,0 -0.549479,0.25 -0.208333,0.24739 -0.208333,0.72656 0,0.48698 0.236979,0.76562 0.239583,0.27604 0.580729,0.27604 0.208333,0 0.382812,-0.11458 0.174479,-0.11719 0.255208,-0.30208 0.08073,-0.1849 0.08073,-0.58073 z" id="path271" />
      <path d="m 62.893965,119.8903 q 0,-0.35937 0.166667,-0.64844 0.166666,-0.29166 0.466145,-0.45573 0.302083,-0.16406 0.684896,-0.16406 0.554687,0 0.88802,0.32813 0.333333,0.32812 0.333333,0.875 0,0.64583 -0.434895,1.02604 -0.388021,0.34114 -0.929687,0.34114 -0.520833,0 -0.848958,-0.34896 -0.325521,-0.35156 -0.325521,-0.95312 z m 0.489583,-0.1849 q 0,0.53646 0.21875,0.91927 0.221354,0.38021 0.635416,0.38021 0.315104,0 0.507812,-0.23958 0.195313,-0.23958 0.195313,-0.72656 0,-0.39323 -0.114583,-0.67969 -0.114584,-0.28906 -0.302084,-0.41927 -0.187499,-0.13281 -0.41927,-0.13281 -0.205729,0 -0.372396,0.10416 -0.164062,0.10417 -0.242187,0.27865 -0.106771,0.23698 -0.106771,0.51562 z" id="path273" />
      <path d="m 65.750735,118.87468 0.497395,-0.24219 q 0.164063,0.0651 0.270833,0.1875 0.171875,0.19271 0.554688,0.82031 0.338541,-0.45052 0.690103,-0.96614 0.101563,0.0156 0.169271,0.0156 0.05469,0 0.229167,-0.0156 v 0.15364 q -0.140625,0.008 -0.226563,0.0833 -0.140625,0.1224 -0.747395,0.87761 0.351562,0.51823 0.588541,0.82812 0.161458,0.21094 0.260417,0.26563 0.0625,0.0339 0.197916,0.0339 v 0.15104 q -0.239583,0.0547 -0.520833,0.13802 -0.132812,-0.0964 -0.223958,-0.21093 -0.05729,-0.0729 -0.575521,-0.85157 -0.244791,0.29948 -0.377603,0.48438 -0.130209,0.18489 -0.333334,0.51302 -0.109375,-0.0182 -0.197916,-0.0182 -0.09375,0 -0.255208,0.0182 v -0.15885 q 0.132812,0 0.179687,-0.0234 0.04687,-0.0234 0.255208,-0.25521 0.302083,-0.33594 0.609375,-0.72396 -0.484375,-0.72135 -0.627604,-0.84635 -0.140625,-0.125 -0.302083,-0.125 -0.04427,0 -0.114583,0.008 z" id="path275" />
      <path d="m 73.052814,118.37468 -0.02083,-0.46355 q -0.231771,-0.15364 -0.486979,-0.22916 -0.252604,-0.0755 -0.528646,-0.0755 -0.703124,0 -1.127603,0.42708 -0.421875,0.42708 -0.421875,1.14323 0,0.5026 0.213542,0.89583 0.216145,0.39323 0.611979,0.6224 0.395833,0.22916 0.835937,0.22916 0.348958,0 0.690103,-0.0807 0.255209,-0.0599 0.513021,-0.25 l 0.05469,0.0521 q -0.05469,0.11979 -0.101562,0.24219 -0.304687,0.15104 -0.614583,0.22916 -0.307292,0.0755 -0.619791,0.0755 -0.640625,0 -1.127604,-0.24739 -0.484375,-0.2474 -0.744791,-0.68229 -0.260417,-0.4375 -0.260417,-0.98698 0,-0.54948 0.263021,-0.98177 0.263021,-0.4349 0.742187,-0.67188 0.481771,-0.23958 1.182291,-0.23958 0.367187,0 0.859375,0.11979 0.244791,0.0573 0.398437,0.0859 -0.117188,0.27864 -0.135417,0.78646 z" id="path277" />
      <path d="m 74.430418,119.11686 0.341146,-0.29948 q 0.119791,-0.11197 0.234374,-0.15364 0.117188,-0.0417 0.28125,-0.0417 0.289063,0 0.5,0.11719 0.213541,0.11458 0.294271,0.29687 0.08333,0.17969 0.08333,0.61459 l -0.01563,0.77083 q 0,0.26042 0.02083,0.41146 0.0078,0.0625 0.04167,0.0937 0.03646,0.0312 0.153646,0.0417 l 0.197916,0.0208 v 0.15104 q -0.252604,-0.0182 -0.492187,-0.0182 -0.205729,0 -0.408854,0.0182 0.04687,-0.65365 0.04687,-1.28646 0,-0.42448 -0.05469,-0.57552 -0.05208,-0.15104 -0.190104,-0.23958 -0.13802,-0.0885 -0.348958,-0.0885 -0.216145,0 -0.393229,0.10416 -0.177083,0.10157 -0.244791,0.23698 -0.04687,0.0964 -0.04687,0.45834 v 0.45312 q 0,0.61979 0.02865,0.6849 0.02865,0.0651 0.208333,0.0807 l 0.226562,0.0208 v 0.15104 q -0.406249,-0.0182 -0.653645,-0.0182 -0.257813,0 -0.674479,0.0182 v -0.15104 l 0.164062,-0.0208 q 0.153646,-0.0182 0.192709,-0.0417 0.03906,-0.026 0.05208,-0.11459 0.01823,-0.14062 0.01823,-0.6302 v -1.75781 q 0,-0.69532 -0.03646,-0.77865 -0.02344,-0.0573 -0.210938,-0.0573 h -0.179687 v -0.15886 q 0.403646,-0.0417 0.645833,-0.11718 l 0.213542,-0.0729 q 0.04167,0 0.04167,0.0547 l -0.0078,0.10677 -0.01563,0.46875 q -0.01302,0.35416 -0.01302,0.54948 z" id="path279" />
      <path d="m 78.776769,121.1403 0.03125,-0.46875 -0.153646,0.16667 q -0.179687,0.19531 -0.367187,0.27604 -0.184896,0.0781 -0.458333,0.0781 -0.234375,0 -0.403646,-0.099 -0.169271,-0.0989 -0.247396,-0.2552 -0.07552,-0.15886 -0.07552,-0.5 0,-0.17709 0.0078,-0.41146 l 0.0078,-0.41927 q 0,-0.44011 -0.02604,-0.48959 -0.02344,-0.0495 -0.164062,-0.0495 h -0.231771 v -0.14323 q 0.354166,-0.0312 0.653645,-0.13021 l 0.216146,-0.0807 q 0.04427,0 0.04427,0.0651 l -0.01823,0.26563 q -0.03646,0.55208 -0.03646,1.02604 0,0.47396 0.03906,0.60677 0.03906,0.13021 0.164062,0.21875 0.125,0.0859 0.304688,0.0859 0.242187,0 0.442708,-0.15625 0.203124,-0.15625 0.265624,-0.31511 0.03386,-0.0911 0.03386,-0.54948 0,-0.77083 -0.02865,-0.83854 -0.02604,-0.0547 -0.234375,-0.0547 h -0.205729 v -0.14323 q 0.268229,-0.0312 0.455729,-0.0729 0.1875,-0.0417 0.395833,-0.125 0.02604,-0.013 0.04687,-0.013 0.04427,0 0.04427,0.0495 l -0.01042,0.24219 q -0.03906,0.89062 -0.03906,1.5677 0,0.38021 0.03906,0.4349 0.05729,0.0807 0.247396,0.0807 h 0.151041 v 0.15104 q -0.32552,-0.0182 -0.552083,-0.0182 -0.16927,0 -0.338541,0.0182 z" id="path281" />
      <path d="m 80.794997,119.21061 q 0.104167,-0.099 0.226563,-0.26041 0.145833,-0.19011 0.270833,-0.26042 0.125,-0.0703 0.263021,-0.0703 0.143229,0 0.218749,0.0338 0.03646,0.0156 0.03646,0.0495 l -0.0026,0.026 q -0.03906,0.21094 -0.04427,0.59115 h -0.117188 q -0.05989,-0.13281 -0.143229,-0.1875 -0.08073,-0.0547 -0.195312,-0.0547 -0.153646,0 -0.286458,0.10417 -0.130209,0.10416 -0.174479,0.29166 -0.04427,0.1875 -0.04427,0.73698 0,0.36198 0.02865,0.60938 0.01042,0.0911 0.05208,0.11458 0.09896,0.0547 0.291666,0.0547 h 0.15625 v 0.15104 q -0.398437,-0.0182 -0.755207,-0.0182 -0.346354,0 -0.684896,0.0182 v -0.15104 l 0.25,-0.0208 q 0.132812,-0.0104 0.166667,-0.0495 0.03646,-0.0391 0.04687,-0.25261 0.01823,-0.375 0.01823,-0.89062 0,-0.62761 -0.04948,-0.73698 -0.03385,-0.0703 -0.213541,-0.0703 h -0.21875 v -0.15105 q 0.252604,-0.0286 0.450521,-0.0729 0.197916,-0.0469 0.351562,-0.11719 0.03646,-0.0182 0.0599,-0.0182 0.02865,0 0.03906,0.0156 0.01042,0.0156 0.01042,0.0703 z" id="path283" />
      <path d="m 84.021558,120.77051 0.07031,0.0625 -0.10677,0.16666 q -0.177084,0.0964 -0.364583,0.14323 -0.1875,0.0495 -0.382813,0.0495 -0.382812,0 -0.651041,-0.14583 -0.265625,-0.14583 -0.411458,-0.42188 -0.145833,-0.27604 -0.145833,-0.65624 0,-0.33594 0.111979,-0.58334 0.111979,-0.25 0.3125,-0.39062 0.203124,-0.14063 0.505208,-0.27604 0.213541,-0.0964 0.476562,-0.0964 0.200521,0 0.34375,0.0339 0.145833,0.0312 0.312499,0.11458 -0.0651,0.34375 -0.07031,0.6875 h -0.164062 v -0.13021 q 0,-0.16667 -0.04948,-0.23437 -0.04687,-0.0703 -0.218749,-0.13803 -0.171875,-0.0677 -0.375,-0.0677 -0.351563,0 -0.541667,0.21614 -0.190104,0.21354 -0.190104,0.64063 0,0.54948 0.28125,0.8802 0.252604,0.29948 0.651041,0.29948 0.15625,0 0.307292,-0.0391 0.151042,-0.0391 0.299479,-0.11458 z" id="path285" />
      <path d="m 85.224684,119.11686 0.341145,-0.29948 q 0.119792,-0.11197 0.234375,-0.15364 0.117188,-0.0417 0.28125,-0.0417 0.289062,0 0.5,0.11719 0.213541,0.11458 0.29427,0.29687 0.08333,0.17969 0.08333,0.61459 l -0.01563,0.77083 q 0,0.26042 0.02083,0.41146 0.0078,0.0625 0.04167,0.0937 0.03646,0.0312 0.153645,0.0417 l 0.197917,0.0208 v 0.15104 q -0.252604,-0.0182 -0.492187,-0.0182 -0.205729,0 -0.408854,0.0182 0.04687,-0.65365 0.04687,-1.28646 0,-0.42448 -0.05469,-0.57552 -0.05208,-0.15104 -0.190104,-0.23958 -0.138021,-0.0885 -0.348958,-0.0885 -0.216146,0 -0.393229,0.10416 -0.177083,0.10157 -0.244791,0.23698 -0.04687,0.0964 -0.04687,0.45834 v 0.45312 q 0,0.61979 0.02864,0.6849 0.02865,0.0651 0.208334,0.0807 l 0.226562,0.0208 v 0.15104 q -0.40625,-0.0182 -0.653645,-0.0182 -0.257813,0 -0.674479,0.0182 v -0.15104 l 0.164062,-0.0208 q 0.153646,-0.0182 0.192708,-0.0417 0.03906,-0.026 0.05208,-0.11459 0.01823,-0.14062 0.01823,-0.6302 v -1.75781 q 0,-0.69532 -0.03646,-0.77865 -0.02344,-0.0573 -0.210938,-0.0573 H 84.36008 v -0.15886 q 0.403645,-0.0417 0.645833,-0.11718 l 0.213541,-0.0729 q 0.04167,0 0.04167,0.0547 l -0.0078,0.10677 -0.01563,0.46875 q -0.01302,0.35416 -0.01302,0.54948 z" id="path287" />
    </g>
  </g>
</svg>
