<?xml version="1.0" encoding="UTF-8" standalone="no"?>
<svg
   viewBox="0 0 259.99372 151.99371"
   width="3.6110237in"
   height="2.1110237in"
   version="1.1"
   id="svg13"
   sodipodi:docname="stalexisbusinesscard-back-use.svg"
   inkscape:version="1.2.2 (b0a8486541, 2022-12-01)"
   xml:space="preserve"
   xmlns:inkscape="http://www.inkscape.org/namespaces/inkscape"
   xmlns:sodipodi="http://sodipodi.sourceforge.net/DTD/sodipodi-0.dtd"
   xmlns="http://www.w3.org/2000/svg"
   xmlns:svg="http://www.w3.org/2000/svg"><defs
     id="defs17"><marker
       style="overflow:visible"
       id="Arrow1L"
       refX="0"
       refY="0"
       orient="auto-start-reverse"
       inkscape:stockid="Arrow1L"
       markerWidth="8.75"
       markerHeight="5"
       viewBox="0 0 8.75 5"
       inkscape:isstock="true"
       inkscape:collect="always"
       preserveAspectRatio="xMidYMid"><path
         style="fill:context-stroke;fill-rule:evenodd;stroke:none"
         d="M 0,0 5,-5 -12.5,0 5,5 Z"
         id="arrow1L"
         transform="scale(-0.5)" /></marker></defs><sodipodi:namedview
     id="namedview15"
     pagecolor="#ffffff"
     bordercolor="#000000"
     borderopacity="0.25"
     inkscape:showpageshadow="2"
     inkscape:pageopacity="0.0"
     inkscape:pagecheckerboard="0"
     inkscape:deskcolor="#d1d1d1"
     inkscape:document-units="cm"
     showgrid="false"
     inkscape:zoom="1.8894689"
     inkscape:cx="113.78859"
     inkscape:cy="103.99748"
     inkscape:window-width="1854"
     inkscape:window-height="1011"
     inkscape:window-x="0"
     inkscape:window-y="0"
     inkscape:window-maximized="1"
     inkscape:current-layer="layer1" /><style
     type="text/css"
     id="style11">.common {fill:none;stroke-width:2.8346457600000003} .bleed {stroke:#E61937;} .trim {stroke:#1D44B8;} .safe {stroke:#17E600;} .ornament {stroke: #000000;}  .cut {stroke: #0045AD} .fold {stroke: #CC21A1;}</style><g
     inkscape:groupmode="layer"
     id="layer1"
     inkscape:label="design"><g
       id="g12230"
       transform="matrix(0,-0.492758,0.492758,0,9.9507458,129.98167)"><g
         inkscape:label="Image"
         id="g8"
         style="display:inline"
         transform="translate(-105.78174,-109.81498)"><path
           id="rect3312"
           style="fill:none;stroke:#000000;stroke-width:2.56062;stroke-linecap:square"
           d="m 112.81232,240.83005 h 30.10128 v 44.03283 h -30.10128 z" /><path
           id="rect3316"
           style="fill:none;stroke:#000000;stroke-width:2;stroke-linecap:square"
           d="m 168.9167,241.25375 h 20.5905 v 42.30578 h -20.5905 z" /><path
           id="rect3318"
           style="fill:none;stroke:#000000;stroke-width:2;stroke-linecap:square"
           d="m 171.72047,292.58224 h 16.77498 v 47.1031 h -16.77498 z" /><path
           id="rect3320"
           style="fill:none;stroke:#000000;stroke-width:2;stroke-linecap:square"
           d="m 169.82225,347.39948 h 19.52972 v 49.97359 h -19.52972 z" /><path
           id="rect3320-3"
           style="display:inline;fill:none;stroke:#000000;stroke-width:2.5518;stroke-linecap:square"
           d="m 111.5491,346.94293 h 32.14785 v 49.4218 H 111.5491 Z" /><path
           id="rect3322"
           style="fill:none;stroke:#000000;stroke-width:2;stroke-linecap:square"
           d="m 216.63666,240.43401 h 23.24857 v 42.27581 h -23.24857 z" /></g><g
         id="layer1-4"
         inkscape:label="map"
         transform="translate(-105.78174,-109.81498)"><path
           style="fill:none;stroke:#000000;stroke-width:7;stroke-linecap:square"
           d="m 294.0937,114.31127 -4.13353,59.57779 -7.81279,128.42195 -1.87857,36.44494 -9.20608,55.48778 -20.0972,87.34172 -28.84494,105.75773"
           id="path857"
           sodipodi:nodetypes="ccccccc" /><path
           style="fill:none;stroke:#000000;stroke-width:7;stroke-linecap:square"
           d="m 307.55768,113.62648 -1.50974,16.09921 -7.44305,109.14224 -5.1148,99.87936 -12.61852,78.22326 -20.94934,79.70705 -27.42264,96.05265"
           id="path859"
           sodipodi:nodetypes="ccccccc" /><path
           style="fill:none;stroke:#000000;stroke-width:7;stroke-linecap:square"
           d="m 285.92483,231.90149 -176.6189,1.2248"
           id="path861" /><path
           style="fill:none;stroke:#000000;stroke-width:7;stroke-linecap:square"
           d="m 157.1629,233.24376 -0.56628,177.00401"
           id="path863"
           sodipodi:nodetypes="cc" /><path
           style="fill:none;stroke:#000000;stroke-width:7;stroke-linecap:square"
           d="m 269.88609,454.35621 -39.45971,-1.40483 -19.27105,-14.78788 0.19451,-28.35292 -54.59509,0.48641"
           id="path865"
           sodipodi:nodetypes="ccccc" /><g
           id="g5379"
           transform="translate(75.386659,83.843325)"><g
             aria-label="N"
             id="text3116"
             style="font-size:26.6667px;line-height:0;-inkscape-font-specification:'sans-serif, Normal';stroke:#000000;stroke-width:2;stroke-linecap:square"><path
               d="M 88.854163,53.512009 H 86.05416 L 75.86748,37.698655 h -0.106667 q 0.05333,0.933335 0.133334,2.320003 0.08,1.386669 0.08,2.853337 V 53.512009 H 73.760811 V 34.471985 h 2.773337 l 10.160013,15.76002 h 0.106666 q -0.02667,-0.426668 -0.08,-1.280002 -0.02667,-0.853335 -0.08,-1.866669 -0.02667,-1.013335 -0.02667,-1.866669 v -10.74668 h 2.240003 z"
               style="font-family:'Noto Sans';-inkscape-font-specification:'Noto Sans, Normal'"
               id="path337" /></g><g
             aria-label="S"
             id="text3120"
             style="font-size:26.6667px;line-height:0;-inkscape-font-specification:'sans-serif, Normal';stroke:#000000;stroke-width:2;stroke-linecap:square"><path
               d="m 87.320827,117.5591 q 0,2.53334 -1.840003,3.94667 -1.840002,1.41334 -4.960006,1.41334 -1.600002,0 -2.960004,-0.24 -1.360001,-0.24 -2.266669,-0.66667 v -2.29333 q 0.960001,0.42666 2.373336,0.77333 1.440002,0.34667 2.960004,0.34667 2.133336,0 3.200004,-0.82667 1.093335,-0.82667 1.093335,-2.24 0,-0.93334 -0.400001,-1.57334 -0.4,-0.64 -1.386668,-1.17333 -0.960002,-0.56 -2.693337,-1.17334 -2.42667,-0.88 -3.680005,-2.16 -1.226668,-1.28 -1.226668,-3.49334 0,-1.52 0.773334,-2.58667 0.773335,-1.09333 2.133336,-1.68 1.386669,-0.58667 3.173338,-0.58667 1.573335,0 2.880003,0.29334 1.306669,0.29333 2.373337,0.77333 l -0.746668,2.05334 q -0.986668,-0.42667 -2.160003,-0.72001 -1.146668,-0.29333 -2.400003,-0.29333 -1.786669,0 -2.693336,0.77334 -0.906668,0.74666 -0.906668,2 0,0.96 0.4,1.6 0.400001,0.64 1.306669,1.14667 0.906667,0.50667 2.453336,1.09333 1.680002,0.61334 2.82667,1.33334 1.173335,0.69333 1.760003,1.68 0.613334,0.98667 0.613334,2.48 z"
               style="font-family:'Noto Sans';-inkscape-font-specification:'Noto Sans, Normal'"
               id="path340" /></g><g
             aria-label="E"
             id="text3124"
             style="font-size:26.6667px;line-height:0;-inkscape-font-specification:'sans-serif, Normal';stroke:#000000;stroke-width:2;stroke-linecap:square"><path
               d="M 117.31251,87.684364 H 106.67249 V 68.64434 h 10.64002 v 2.10667 h -8.24001 v 5.946674 h 7.76001 v 2.080002 h -7.76001 v 6.800009 h 8.24001 z"
               style="font-family:'Noto Sans';-inkscape-font-specification:'Noto Sans, Normal'"
               id="path343" /></g><g
             aria-label="W"
             id="text3128"
             style="font-size:26.6667px;line-height:0;-inkscape-font-specification:'sans-serif, Normal';stroke:#000000;stroke-width:2;stroke-linecap:square"><path
               d="m 59.540816,68.64434 -5.066673,19.040024 h -2.42667 L 48.340802,75.204349 q -0.213334,-0.773335 -0.426667,-1.546669 -0.213334,-0.773334 -0.346667,-1.360002 -0.133334,-0.613334 -0.186667,-0.853334 -0.02667,0.346667 -0.293334,1.493335 -0.24,1.120001 -0.613334,2.34667 L 42.874128,87.684364 H 40.447459 L 35.407452,68.64434 h 2.50667 l 2.960004,11.626682 q 0.32,1.226668 0.533334,2.373336 0.24,1.146668 0.373334,2.160003 0.133333,-1.040002 0.4,-2.26667 0.266667,-1.226668 0.613334,-2.400003 L 46.154133,68.64434 h 2.480003 l 3.493337,11.573348 q 0.373334,1.226668 0.640001,2.453337 0.266667,1.200001 0.400001,2.133336 0.133333,-0.986668 0.373334,-2.133336 0.24,-1.173335 0.56,-2.42667 L 57.034146,68.64434 Z"
               style="font-family:'Noto Sans';-inkscape-font-specification:'Noto Sans, Normal'"
               id="path346" /></g><path
             style="fill:none;fill-opacity:1;stroke:#000000;stroke-width:2;stroke-linecap:square;stroke-linejoin:round;marker-start:url(#Arrow1L)"
             d="M 81.307487,73.763441 V 94.065256"
             id="path4596" /></g><g
           aria-label="Atlantis Business Park"
           transform="matrix(0.09990344,-0.82457967,1.2044526,0.06839484,0,0)"
           id="text3426-6"
           style="font-size:13.2529px;line-height:0;-inkscape-font-specification:'sans-serif, Normal';letter-spacing:0.919414px;stroke:#000000;stroke-width:0.993954;stroke-linecap:square"><path
             d="m -502.43112,247.67964 -1.74715,-4.48977 h -5.74934 l -1.72684,4.48977 h -1.84872 l 5.66808,-14.56636 h 1.64557 l 5.64776,14.56636 z m -3.92093,-10.50322 q -0.0609,-0.16252 -0.20315,-0.58915 -0.14221,-0.42663 -0.28442,-0.87358 -0.1219,-0.46726 -0.20316,-0.71105 -0.14221,0.62979 -0.32505,1.23926 -0.18284,0.58916 -0.30474,0.93452 l -1.64557,4.3882 h 4.59135 z"
             style="font-size:20.3157px;font-family:'Noto Sans';-inkscape-font-specification:'Noto Sans, Normal'"
             id="path349" /><path
             d="m -494.23868,246.42007 q 0.40631,0 0.83294,-0.061 0.42663,-0.0813 0.69073,-0.16252 v 1.36115 q -0.28442,0.14221 -0.81262,0.22347 -0.52821,0.10158 -1.01579,0.10158 -0.85326,0 -1.58462,-0.28442 -0.71105,-0.30474 -1.158,-1.0361 -0.44694,-0.73137 -0.44694,-2.05189 v -6.3385 h -1.544 v -0.85326 l 1.56431,-0.71105 0.71105,-2.31598 h 1.05642 v 2.49883 h 3.14893 v 1.38146 h -3.14893 v 6.29787 q 0,0.99547 0.46726,1.48305 0.48758,0.46726 1.23926,0.46726 z"
             style="font-size:20.3157px;font-family:'Noto Sans';-inkscape-font-specification:'Noto Sans, Normal'"
             id="path351" /><path
             d="m -487.83403,247.67964 h -1.78778 v -15.43993 h 1.78778 z"
             style="font-size:20.3157px;font-family:'Noto Sans';-inkscape-font-specification:'Noto Sans, Normal'"
             id="path353" /><path
             d="m -479.33687,236.60758 q 1.99094,0 2.94578,0.87358 0.95483,0.87358 0.95483,2.78325 v 7.41523 h -1.3002 l -0.34537,-1.54399 h -0.0813 q -0.71105,0.89389 -1.50336,1.32052 -0.772,0.42663 -2.15347,0.42663 -1.48304,0 -2.4582,-0.772 -0.97515,-0.79231 -0.97515,-2.4582 0,-1.62525 1.27989,-2.49883 1.27989,-0.89389 3.94125,-0.97515 l 1.84872,-0.0609 v -0.6501 q 0,-1.36115 -0.58915,-1.88936 -0.58916,-0.52821 -1.66589,-0.52821 -0.85326,0 -1.62525,0.2641 -0.772,0.24379 -1.44242,0.56884 l -0.54852,-1.34083 q 0.71105,-0.386 1.6862,-0.65011 0.97515,-0.28442 2.03157,-0.28442 z m 0.52821,5.8103 q -2.03157,0.0813 -2.82388,0.6501 -0.772,0.56884 -0.772,1.60494 0,0.9142 0.54852,1.34083 0.56884,0.42663 1.44242,0.42663 1.38147,0 2.29567,-0.75168 0.91421,-0.77199 0.91421,-2.35662 v -0.97515 z"
             style="font-size:20.3157px;font-family:'Noto Sans';-inkscape-font-specification:'Noto Sans, Normal'"
             id="path355" /><path
             d="m -465.90297,236.58727 q 1.95031,0 2.94578,0.95484 0.99547,0.93452 0.99547,3.04735 v 7.09018 h -1.76747 v -6.96828 q 0,-2.62073 -2.43788,-2.62073 -1.8081,0 -2.49883,1.01579 -0.69074,1.01578 -0.69074,2.92546 v 5.64776 h -1.78778 v -10.88921 h 1.44242 l 0.2641,1.48304 h 0.10158 q 0.52821,-0.85326 1.46273,-1.25957 0.93452,-0.42663 1.97062,-0.42663 z"
             style="font-size:20.3157px;font-family:'Noto Sans';-inkscape-font-specification:'Noto Sans, Normal'"
             id="path357" /><path
             d="m -454.03339,246.42007 q 0.40631,0 0.83294,-0.061 0.42663,-0.0813 0.69074,-0.16252 v 1.36115 q -0.28442,0.14221 -0.81263,0.22347 -0.52821,0.10158 -1.01579,0.10158 -0.85326,0 -1.58462,-0.28442 -0.71105,-0.30474 -1.158,-1.0361 -0.44694,-0.73137 -0.44694,-2.05189 v -6.3385 h -1.54399 v -0.85326 l 1.5643,-0.71105 0.71105,-2.31598 h 1.05642 v 2.49883 h 3.14893 v 1.38146 h -3.14893 v 6.29787 q 0,0.99547 0.46726,1.48305 0.48758,0.46726 1.23926,0.46726 z"
             style="font-size:20.3157px;font-family:'Noto Sans';-inkscape-font-specification:'Noto Sans, Normal'"
             id="path359" /><path
             d="m -448.50231,232.70697 q 0.40631,0 0.71105,0.28442 0.32505,0.2641 0.32505,0.85326 0,0.56884 -0.32505,0.85326 -0.30474,0.28442 -0.71105,0.28442 -0.44695,0 -0.75168,-0.28442 -0.30474,-0.28442 -0.30474,-0.85326 0,-0.58916 0.30474,-0.85326 0.30473,-0.28442 0.75168,-0.28442 z m 0.87357,4.08346 v 10.88921 h -1.78778 v -10.88921 z"
             style="font-size:20.3157px;font-family:'Noto Sans';-inkscape-font-specification:'Noto Sans, Normal'"
             id="path361" /><path
             d="m -436.16548,244.67292 q 0,1.58462 -1.17831,2.39725 -1.17832,0.81263 -3.16925,0.81263 -1.13768,0 -1.97063,-0.18284 -0.81263,-0.18284 -1.44241,-0.5079 v -1.62525 q 0.6501,0.32505 1.56431,0.60947 0.93452,0.2641 1.88936,0.2641 1.36115,0 1.97062,-0.42663 0.60947,-0.44694 0.60947,-1.17831 0,-0.40631 -0.22347,-0.73136 -0.22347,-0.32505 -0.81263,-0.6501 -0.56884,-0.32506 -1.64557,-0.73137 -1.05642,-0.40631 -1.8081,-0.81263 -0.75168,-0.40631 -1.15799,-0.97515 -0.40632,-0.56884 -0.40632,-1.46273 0,-1.38147 1.11737,-2.13315 1.13768,-0.75168 2.96609,-0.75168 0.99547,0 1.84873,0.20316 0.87357,0.18284 1.62525,0.5282 l -0.60947,1.4221 q -0.69073,-0.28442 -1.44241,-0.48757 -0.75168,-0.20316 -1.544,-0.20316 -1.09704,0 -1.6862,0.36568 -0.56884,0.34537 -0.56884,0.95484 0,0.44695 0.26411,0.772 0.2641,0.30473 0.87357,0.60947 0.62979,0.28442 1.66589,0.69073 1.0361,0.386 1.76746,0.79231 0.73137,0.40632 1.11737,0.99547 0.386,0.56884 0.386,1.44242 z"
             style="font-size:20.3157px;font-family:'Noto Sans';-inkscape-font-specification:'Noto Sans, Normal'"
             id="path363" /><path
             d="m -422.01534,233.17423 q 2.72231,0 4.10377,0.81263 1.40179,0.79231 1.40179,2.78325 0,1.27989 -0.71105,2.13315 -0.71105,0.83294 -2.05189,1.07673 v 0.10158 q 0.91421,0.14221 1.64557,0.52821 0.75168,0.386 1.17831,1.09705 0.42663,0.71105 0.42663,1.84872 0,1.97063 -1.36115,3.04736 -1.34083,1.07673 -3.67714,1.07673 h -5.09924 v -14.50541 z m 0.36569,6.17597 q 1.86904,0 2.55977,-0.58915 0.69074,-0.60947 0.69074,-1.78778 0,-1.19863 -0.85326,-1.70652 -0.83295,-0.52821 -2.68167,-0.52821 h -2.39726 v 4.61166 z m -2.68168,1.52368 v 5.26177 h 2.92546 q 1.92999,0 2.68168,-0.75168 0.75168,-0.75168 0.75168,-1.97063 0,-1.13767 -0.79232,-1.82841 -0.77199,-0.71105 -2.78325,-0.71105 z"
             style="font-size:20.3157px;font-family:'Noto Sans';-inkscape-font-specification:'Noto Sans, Normal'"
             id="path365" /><path
             d="m -403.17748,236.79043 v 10.88921 h -1.46273 l -0.26411,-1.44241 h -0.0813 q -0.52821,0.85326 -1.46273,1.25957 -0.93452,0.386 -1.99094,0.386 -1.97062,0 -2.96609,-0.93452 -0.99547,-0.95484 -0.99547,-3.02704 v -7.13081 h 1.8081 v 7.00891 q 0,2.60041 2.41756,2.60041 1.8081,0 2.49883,-1.01578 0.71105,-1.01579 0.71105,-2.92546 v -5.66808 z"
             style="font-size:20.3157px;font-family:'Noto Sans';-inkscape-font-specification:'Noto Sans, Normal'"
             id="path367" /><path
             d="m -391.71422,244.67292 q 0,1.58462 -1.17831,2.39725 -1.17831,0.81263 -3.16925,0.81263 -1.13768,0 -1.97062,-0.18284 -0.81263,-0.18284 -1.44242,-0.5079 v -1.62525 q 0.6501,0.32505 1.56431,0.60947 0.93452,0.2641 1.88936,0.2641 1.36115,0 1.97062,-0.42663 0.60947,-0.44694 0.60947,-1.17831 0,-0.40631 -0.22347,-0.73136 -0.22347,-0.32505 -0.81263,-0.6501 -0.56884,-0.32506 -1.64557,-0.73137 -1.05641,-0.40631 -1.8081,-0.81263 -0.75168,-0.40631 -1.15799,-0.97515 -0.40631,-0.56884 -0.40631,-1.46273 0,-1.38147 1.11736,-2.13315 1.13768,-0.75168 2.96609,-0.75168 0.99547,0 1.84873,0.20316 0.87358,0.18284 1.62526,0.5282 l -0.60947,1.4221 q -0.69074,-0.28442 -1.44242,-0.48757 -0.75168,-0.20316 -1.54399,-0.20316 -1.09705,0 -1.68621,0.36568 -0.56884,0.34537 -0.56884,0.95484 0,0.44695 0.26411,0.772 0.2641,0.30473 0.87357,0.60947 0.62979,0.28442 1.66589,0.69073 1.0361,0.386 1.76747,0.79231 0.73136,0.40632 1.11736,0.99547 0.386,0.56884 0.386,1.44242 z"
             style="font-size:20.3157px;font-family:'Noto Sans';-inkscape-font-specification:'Noto Sans, Normal'"
             id="path369" /><path
             d="m -387.23956,232.70697 q 0.40632,0 0.71105,0.28442 0.32505,0.2641 0.32505,0.85326 0,0.56884 -0.32505,0.85326 -0.30473,0.28442 -0.71105,0.28442 -0.44694,0 -0.75168,-0.28442 -0.30474,-0.28442 -0.30474,-0.85326 0,-0.58916 0.30474,-0.85326 0.30474,-0.28442 0.75168,-0.28442 z m 0.87358,4.08346 v 10.88921 h -1.78779 v -10.88921 z"
             style="font-size:20.3157px;font-family:'Noto Sans';-inkscape-font-specification:'Noto Sans, Normal'"
             id="path371" /><path
             d="m -376.75146,236.58727 q 1.95031,0 2.94578,0.95484 0.99547,0.93452 0.99547,3.04735 v 7.09018 h -1.76747 v -6.96828 q 0,-2.62073 -2.43788,-2.62073 -1.8081,0 -2.49883,1.01579 -0.69074,1.01578 -0.69074,2.92546 v 5.64776 h -1.78778 v -10.88921 h 1.44242 l 0.2641,1.48304 h 0.10158 q 0.52821,-0.85326 1.46273,-1.25957 0.93452,-0.42663 1.97062,-0.42663 z"
             style="font-size:20.3157px;font-family:'Noto Sans';-inkscape-font-specification:'Noto Sans, Normal'"
             id="path373" /><path
             d="m -364.31304,236.58727 q 1.40178,0 2.39725,0.60947 1.01579,0.60947 1.544,1.72683 0.54852,1.09705 0.54852,2.5801 v 1.07673 h -7.45586 q 0.0406,1.84873 0.93452,2.82388 0.91421,0.95484 2.53946,0.95484 1.0361,0 1.82842,-0.18284 0.81262,-0.20316 1.66588,-0.56884 v 1.56431 q -0.83294,0.36568 -1.64557,0.52821 -0.81263,0.18284 -1.92999,0.18284 -1.54399,0 -2.74262,-0.62979 -1.17831,-0.62978 -1.84873,-1.86904 -0.6501,-1.25958 -0.6501,-3.06767 0,-1.78778 0.58915,-3.06767 0.60948,-1.27989 1.68621,-1.97063 1.09705,-0.69073 2.53946,-0.69073 z m -0.0203,1.46273 q -1.27988,0 -2.03157,0.83294 -0.73136,0.81263 -0.87357,2.27536 h 5.54619 q -0.0203,-1.38147 -0.65011,-2.23473 -0.62978,-0.87357 -1.99094,-0.87357 z"
             style="font-size:20.3157px;font-family:'Noto Sans';-inkscape-font-specification:'Noto Sans, Normal'"
             id="path375" /><path
             d="m -349.05077,244.67292 q 0,1.58462 -1.17831,2.39725 -1.17831,0.81263 -3.16925,0.81263 -1.13768,0 -1.97062,-0.18284 -0.81263,-0.18284 -1.44242,-0.5079 v -1.62525 q 0.65011,0.32505 1.56431,0.60947 0.93453,0.2641 1.88936,0.2641 1.36115,0 1.97063,-0.42663 0.60947,-0.44694 0.60947,-1.17831 0,-0.40631 -0.22348,-0.73136 -0.22347,-0.32505 -0.81262,-0.6501 -0.56884,-0.32506 -1.64558,-0.73137 -1.05641,-0.40631 -1.80809,-0.81263 -0.75168,-0.40631 -1.158,-0.97515 -0.40631,-0.56884 -0.40631,-1.46273 0,-1.38147 1.11736,-2.13315 1.13768,-0.75168 2.96609,-0.75168 0.99547,0 1.84873,0.20316 0.87358,0.18284 1.62526,0.5282 l -0.60947,1.4221 q -0.69074,-0.28442 -1.44242,-0.48757 -0.75168,-0.20316 -1.54399,-0.20316 -1.09705,0 -1.6862,0.36568 -0.56884,0.34537 -0.56884,0.95484 0,0.44695 0.2641,0.772 0.26411,0.30473 0.87358,0.60947 0.62978,0.28442 1.66588,0.69073 1.0361,0.386 1.76747,0.79231 0.73136,0.40632 1.11736,0.99547 0.386,0.56884 0.386,1.44242 z"
             style="font-size:20.3157px;font-family:'Noto Sans';-inkscape-font-specification:'Noto Sans, Normal'"
             id="path377" /><path
             d="m -338.40013,244.67292 q 0,1.58462 -1.17831,2.39725 -1.17832,0.81263 -3.16925,0.81263 -1.13768,0 -1.97063,-0.18284 -0.81262,-0.18284 -1.44241,-0.5079 v -1.62525 q 0.6501,0.32505 1.56431,0.60947 0.93452,0.2641 1.88936,0.2641 1.36115,0 1.97062,-0.42663 0.60947,-0.44694 0.60947,-1.17831 0,-0.40631 -0.22347,-0.73136 -0.22347,-0.32505 -0.81263,-0.6501 -0.56884,-0.32506 -1.64557,-0.73137 -1.05642,-0.40631 -1.8081,-0.81263 -0.75168,-0.40631 -1.15799,-0.97515 -0.40632,-0.56884 -0.40632,-1.46273 0,-1.38147 1.11737,-2.13315 1.13768,-0.75168 2.96609,-0.75168 0.99547,0 1.84873,0.20316 0.87357,0.18284 1.62525,0.5282 l -0.60947,1.4221 q -0.69073,-0.28442 -1.44241,-0.48757 -0.75168,-0.20316 -1.544,-0.20316 -1.09704,0 -1.6862,0.36568 -0.56884,0.34537 -0.56884,0.95484 0,0.44695 0.26411,0.772 0.2641,0.30473 0.87357,0.60947 0.62979,0.28442 1.66589,0.69073 1.0361,0.386 1.76746,0.79231 0.73137,0.40632 1.11737,0.99547 0.386,0.56884 0.386,1.44242 z"
             style="font-size:20.3157px;font-family:'Noto Sans';-inkscape-font-specification:'Noto Sans, Normal'"
             id="path379" /><path
             d="m -324.55472,233.17423 q 2.8442,0 4.14441,1.11737 1.3002,1.11736 1.3002,3.14893 0,1.19862 -0.54852,2.25504 -0.52821,1.0361 -1.8081,1.6862 -1.25957,0.65011 -3.43335,0.65011 h -1.66589 v 5.64776 h -1.82841 v -14.50541 z m -0.16252,1.56431 h -1.84873 v 5.72903 h 1.46273 q 2.0722,0 3.08799,-0.67042 1.01578,-0.67042 1.01578,-2.27536 0,-1.40178 -0.89389,-2.09252 -0.89389,-0.69073 -2.82388,-0.69073 z"
             style="font-size:20.3157px;font-family:'Noto Sans';-inkscape-font-specification:'Noto Sans, Normal'"
             id="path381" /><path
             d="m -311.30368,236.60758 q 1.99094,0 2.94578,0.87358 0.95483,0.87358 0.95483,2.78325 v 7.41523 h -1.3002 l -0.34537,-1.54399 h -0.0813 q -0.71105,0.89389 -1.50336,1.32052 -0.772,0.42663 -2.15347,0.42663 -1.48304,0 -2.4582,-0.772 -0.97515,-0.79231 -0.97515,-2.4582 0,-1.62525 1.27989,-2.49883 1.27989,-0.89389 3.94125,-0.97515 l 1.84872,-0.0609 v -0.6501 q 0,-1.36115 -0.58915,-1.88936 -0.58916,-0.52821 -1.66589,-0.52821 -0.85326,0 -1.62525,0.2641 -0.772,0.24379 -1.44242,0.56884 l -0.54852,-1.34083 q 0.71105,-0.386 1.6862,-0.65011 0.97515,-0.28442 2.03157,-0.28442 z m 0.52821,5.8103 q -2.03157,0.0813 -2.82388,0.6501 -0.772,0.56884 -0.772,1.60494 0,0.9142 0.54852,1.34083 0.56884,0.42663 1.44242,0.42663 1.38147,0 2.29567,-0.75168 0.91421,-0.77199 0.91421,-2.35662 v -0.97515 z"
             style="font-size:20.3157px;font-family:'Noto Sans';-inkscape-font-specification:'Noto Sans, Normal'"
             id="path383" /><path
             d="m -298.0323,236.58727 q 0.30474,0 0.6501,0.0406 0.36569,0.0203 0.62979,0.0813 l -0.22347,1.64558 q -0.26411,-0.0609 -0.58916,-0.10158 -0.30473,-0.0406 -0.58915,-0.0406 -0.83295,0 -1.56431,0.46726 -0.73137,0.44694 -1.17831,1.27989 -0.42663,0.81262 -0.42663,1.90967 v 5.81029 h -1.78778 v -10.88921 h 1.46273 l 0.20315,1.99093 h 0.0813 q 0.5282,-0.89389 1.36115,-1.54399 0.83294,-0.6501 1.97062,-0.6501 z"
             style="font-size:20.3157px;font-family:'Noto Sans';-inkscape-font-specification:'Noto Sans, Normal'"
             id="path385" /><path
             d="m -292.03396,240.30504 q 0,0.32505 -0.0406,0.85326 -0.0203,0.52821 -0.0406,0.91421 h 0.0813 q 0.1219,-0.16253 0.36568,-0.46726 0.24379,-0.30474 0.48758,-0.60947 0.2641,-0.32505 0.44695,-0.52821 l 3.47398,-3.67714 h 2.09252 l -4.40851,4.65229 4.71324,6.23692 h -2.15346 l -3.77872,-5.07892 -1.23926,1.07673 v 4.00219 h -1.76746 v -15.43993 h 1.76746 z"
             style="font-size:20.3157px;font-family:'Noto Sans';-inkscape-font-specification:'Noto Sans, Normal'"
             id="path387" /></g><g
           id="g11364"
           transform="matrix(0.71701061,0,0,0.71701061,71.750247,87.261006)"><path
             id="rect2230"
             style="fill:#a50021;stroke:#a50021;stroke-width:0.299532;stroke-linecap:square;stroke-linejoin:round"
             d="m 54.533054,282.71567 h 46.849906 v 70.85381 H 54.533054 Z" /><g
             id="g11358"
             transform="matrix(1.0938248,0,0,1.0938248,-6.9374427,-30.166775)"><path
               style="display:inline;fill:#000000;fill-opacity:1;stroke-width:0.0163408"
               d="m 77.169394,345.04365 -0.15501,-0.0173 -0.20409,-0.0413 -0.20387,-0.0413 -0.22057,-0.0737 -0.22082,-0.0737 -0.21274,-0.10378 -0.2123,-0.10377 -0.17145,-0.11351 -0.17187,-0.1135 -0.13059,-0.10485 -0.13058,-0.10486 -0.14744,-0.14745 -0.14745,-0.14744 -0.10486,-0.13058 -0.10485,-0.13059 -0.11286,-0.17144 -0.11307,-0.17188 -0.10334,-0.21274 -0.10334,-0.21252 -0.0569,-0.16344 -0.0569,-0.16323 -0.0417,-0.17144 -0.0417,-0.17188 -0.0266,-0.17188 -0.0266,-0.17187 -0.0108,-0.19609 -0.0108,-0.19609 0.0173,-0.22057 0.0173,-0.22082 0.0411,-0.2028 0.0411,-0.20279 0.0737,-0.22032 0.0737,-0.22031 0.0798,-0.16928 0.0798,-0.1695 h -0.0664 -0.0664 l -0.1736,-0.0266 -0.17382,-0.0266 -0.16345,-0.0387 -0.16344,-0.0385 -0.19609,-0.0672 -0.1961,-0.0677 -0.2123,-0.10378 -0.21252,-0.10377 -0.19609,-0.12972 -0.19609,-0.12972 -0.18053,-0.15479 -0.18052,-0.1548 -0.13015,-0.1455 -0.13015,-0.1455 -0.0744,-0.0979 -0.0744,-0.0979 -0.085,-0.12647 -0.085,-0.12648 -0.0884,-0.16755 -0.0884,-0.16755 -0.0675,-0.17036 -0.0677,-0.17037 -0.0545,-0.19933 -0.0545,-0.19933 -0.0301,-0.17772 -0.0298,-0.17771 v -0.36769 -0.36764 l 0.0298,-0.17966 0.0301,-0.17966 0.0543,-0.21231 0.0543,-0.21252 0.0644,-0.17187 0.0651,-0.17145 0.0668,-0.14377 0.0668,-0.14377 0.11329,-0.19155 0.11328,-0.19155 0.12778,-0.17188 0.1282,-0.17187 0.18831,-0.19436 0.18852,-0.19436 0.12886,-0.10421 0.12842,-0.10421 0.13274,-0.0882 0.13296,-0.0882 0.16539,-0.0828 0.16539,-0.0828 0.14832,-0.0487 0.14831,-0.0486 0.13166,-0.0195 0.13166,-0.0195 v -8.9593 -8.95928 h -2.31754 -2.31756 l -0.0195,0.13296 -0.0195,0.13274 -0.048,0.14723 -0.048,0.14702 -0.0623,0.13253 -0.0623,0.13252 -0.0858,0.13815 -0.0858,0.13815 -0.1081,0.13945 -0.1081,0.13945 -0.16452,0.16431 -0.1641,0.16431 -0.1228,0.0984 -0.12236,0.099 -0.1308,0.0906 -0.1308,0.0906 -0.16215,0.0934 -0.16236,0.0934 -0.16453,0.0742 -0.16453,0.0741 -0.15371,0.0558 -0.15372,0.0556 -0.18939,0.0478 -0.18938,0.0478 -0.14702,0.0266 -0.14701,0.0266 -0.23741,0.0173 -0.23738,0.0173 -0.23639,-0.0173 -0.23663,-0.0173 -0.14701,-0.0266 -0.14702,-0.0266 -0.15912,-0.0402 -0.15912,-0.0402 -0.15933,-0.0569 -0.15934,-0.0569 -0.21231,-0.10551 -0.21273,-0.1055 -0.16021,-0.10615 -0.1602,-0.10637 -0.12604,-0.10226 -0.12604,-0.10248 -0.15912,-0.1602 -0.15913,-0.16042 -0.13685,-0.18312 -0.13685,-0.18312 -0.0841,-0.14074 -0.0841,-0.14074 -0.0809,-0.17145 -0.0809,-0.17144 -0.0729,-0.21877 -0.0729,-0.21879 -0.0424,-0.21802 -0.0424,-0.21801 -0.0108,-0.14572 -0.0108,-0.1455 h -0.002 -0.002 l -0.12993,0.0558 -0.13058,0.0558 -0.17858,0.0577 -0.17858,0.0577 -0.16258,0.0333 -0.16258,0.0333 -0.14723,0.0195 -0.14701,0.0195 -0.40853,-3.6e-4 -0.40848,-3.9e-4 -0.21015,-0.0374 -0.21036,-0.0374 -0.16582,-0.0478 -0.16582,-0.0478 -0.1695,-0.0664 -0.1695,-0.0664 -0.1602,-0.0824 -0.1602,-0.0822 -0.16885,-0.1122 -0.16885,-0.11221 -0.1308,-0.10572 -0.1308,-0.1055 -0.17296,-0.17772 -0.17295,-0.17771 -0.12626,-0.16993 -0.12626,-0.16993 -0.0923,-0.15718 -0.0923,-0.15717 -0.085,-0.18809 -0.085,-0.18766 -0.0586,-0.18226 -0.0586,-0.18203 -0.0402,-0.20172 -0.0402,-0.20171 -0.0173,-0.17858 -0.0173,-0.17857 v -0.17512 -0.17512 l 0.0173,-0.16928 0.0173,-0.16907 0.0411,-0.20409 0.0411,-0.20409 0.0716,-0.21468 0.0716,-0.21469 0.0895,-0.18528 0.0895,-0.18528 0.0841,-0.13836 0.0841,-0.13815 0.1174,-0.1561 0.11717,-0.15609 0.16172,-0.16799 0.16171,-0.16798 0.14832,-0.12064 0.14874,-0.12064 0.16258,-0.10788 0.16258,-0.10788 0.21295,-0.10551 0.21317,-0.1055 0.22083,-0.0737 0.22082,-0.0737 0.20409,-0.0411 0.20387,-0.0411 0.18723,-0.0195 0.18723,-0.0195 0.27063,0.0108 0.27061,0.0108 0.15502,0.0266 0.15501,0.0266 0.18766,0.0499 0.18766,0.0499 0.1548,0.0579 0.15479,0.0579 0.14356,0.0685 0.14355,0.0685 v -0.0726 -0.0726 l 0.0268,-0.17383 0.0266,-0.17382 0.0335,-0.1388 0.0333,-0.13879 0.0674,-0.20345 0.0677,-0.20344 0.11804,-0.23766 0.11826,-0.23765 0.11459,-0.17187 0.11458,-0.17188 0.10551,-0.1308 0.1055,-0.1308 0.18615,-0.17966 0.18592,-0.17966 0.1615,-0.12128 0.1615,-0.12172 0.20236,-0.11804 0.20258,-0.11805 0.19955,-0.0817 0.2002,-0.0819 0.1388,-0.0422 0.13879,-0.0422 0.1228,-0.0266 0.12237,-0.0266 0.17145,-0.0266 0.17144,-0.0266 0.29426,3.8e-4 0.29429,3.7e-4 0.21778,0.0333 0.21775,0.0333 0.22108,0.0579 0.22106,0.0579 0.19047,0.0744 0.19069,0.0744 0.20236,0.10485 0.20236,0.10486 0.15718,0.10269 0.15717,0.10269 0.16344,0.1321 0.16323,0.13188 0.18053,0.18593 0.18009,0.18571 0.075,0.0979 0.0744,0.0979 0.0906,0.13879 0.0902,0.1388 0.0683,0.13642 0.0683,0.13642 0.0558,0.16756 0.0558,0.16755 0.0194,0.12518 0.0195,0.12496 h 2.31744 2.3175 v -1.33102 -1.33108 l -0.0534,-0.009 -0.0532,-0.009 -0.1308,-0.0108 -0.1308,-0.0108 -0.15912,-0.0333 -0.15912,-0.0335 -0.15112,-0.0502 -0.15134,-0.0501 -0.16344,-0.0809 -0.16345,-0.0809 -0.15112,-0.10767 -0.15069,-0.10766 -0.17706,-0.18226 -0.17664,-0.18225 -0.10853,-0.16323 -0.10853,-0.16323 -0.0891,-0.17944 -0.0893,-0.17944 -0.0579,-0.15718 -0.0579,-0.15717 -0.0424,-0.1455 -0.0424,-0.14529 -0.0396,-0.19609 -0.0396,-0.19609 -0.0266,-0.21252 -0.0266,-0.21252 v -0.47386 -0.47391 l 0.035,-0.18809 0.035,-0.18809 0.0566,-0.19609 0.0566,-0.19609 0.0826,-0.19436 0.0826,-0.19436 0.0995,-0.17339 0.0994,-0.17339 0.10139,-0.14161 0.1014,-0.14161 0.14356,-0.16409 0.14355,-0.16431 0.18333,-0.15782 0.18334,-0.15783 0.19609,-0.13166 0.19609,-0.13167 0.22874,-0.11112 0.22871,-0.11113 0.1388,-0.051 0.1388,-0.051 0.22082,-0.0558 0.2208,-0.0558 0.23027,-0.0266 0.23025,-0.0266 -0.0806,-0.1708 -0.0806,-0.17036 -0.0716,-0.21469 -0.0716,-0.21446 -0.0411,-0.20409 -0.0411,-0.20388 -0.0173,-0.22082 -0.0173,-0.22056 0.0108,-0.19609 0.0108,-0.19609 0.0266,-0.17188 0.0266,-0.17188 0.0478,-0.19003 0.0471,-0.19004 0.0597,-0.16107 0.0592,-0.1615 0.0969,-0.19868 0.0971,-0.19869 0.12021,-0.18009 0.11999,-0.18009 0.0984,-0.11956 0.099,-0.11955 0.16106,-0.15913 0.16085,-0.15912 0.11459,-0.0915 0.11437,-0.0915 0.15912,-0.10572 0.15933,-0.10572 0.1708,-0.0876 0.17101,-0.0873 0.1762,-0.0683 0.1762,-0.0685 0.21339,-0.0549 0.21338,-0.0549 0.19545,-0.0268 0.19522,-0.0266 0.31061,-3.9e-4 0.31057,-3.7e-4 0.1388,0.0195 0.1388,0.0195 0.18809,0.0413 0.18809,0.0413 0.16712,0.0558 0.16712,0.0558 0.15069,0.0664 0.15069,0.0664 0.17231,0.099 0.1723,0.099 0.17188,0.12453 0.17144,0.12431 0.19415,0.1881 0.19414,0.1883 0.10486,0.1308 0.10486,0.1308 0.0871,0.1308 0.0871,0.1308 0.0716,0.13058 0.0716,0.13058 0.0634,0.1388 0.0631,0.1388 0.0549,0.16042 0.0549,0.1602 0.0333,0.12561 0.0331,0.12604 0.0268,0.14723 0.0266,0.14702 0.0173,0.23613 0.0173,0.23613 -0.0173,0.26564 -0.0173,0.26564 -0.0331,0.18982 -0.0335,0.18939 -0.0333,0.12885 -0.0335,0.12886 -0.0486,0.13771 -0.0486,0.13794 -0.0478,0.10637 -0.0478,0.10615 0.14074,0.0108 0.14075,0.0108 0.17209,0.0298 0.17209,0.03 0.17858,0.0502 0.17858,0.0502 0.18095,0.0735 0.18096,0.0737 0.15501,0.0826 0.15502,0.0826 0.14507,0.0971 0.14506,0.0971 0.1241,0.1014 0.1241,0.10139 0.10485,0.0979 0.10486,0.0979 0.12993,0.15566 0.13059,0.15544 0.12604,0.18896 0.12582,0.18917 0.0915,0.18658 0.0915,0.18658 0.059,0.15933 0.0592,0.15934 0.0478,0.18507 0.0478,0.18528 0.03,0.18636 0.03,0.18636 -4.1e-4,0.433 -3.7e-4,0.43304 -0.0195,0.17988 -0.0194,0.17966 -0.0331,0.18398 -0.0335,0.18442 -0.0478,0.18333 -0.0478,0.18334 -0.0512,0.14723 -0.0512,0.14723 -0.0979,0.20409 -0.0979,0.20409 -0.075,0.11998 -0.0744,0.12064 -0.0992,0.12496 -0.0992,0.12475 -0.11459,0.11329 -0.11458,0.11328 -0.12842,0.0956 -0.12843,0.0951 -0.10809,0.0607 -0.1081,0.0607 -0.14312,0.0616 -0.14269,0.0616 -0.18442,0.0489 -0.18442,0.0487 -0.19284,0.0266 -0.19285,0.0266 h -0.0564 -0.0564 v 1.3318 1.33175 h 2.39317 2.39317 l 0.0108,-0.0612 0.0108,-0.0612 0.0301,-0.13815 0.03,-0.13815 0.0586,-0.14788 0.0586,-0.14788 0.0579,-0.10636 0.0579,-0.10616 0.088,-0.13317 0.088,-0.13318 0.12885,-0.15458 0.12886,-0.15458 0.15177,-0.14313 0.15177,-0.14312 0.17966,-0.13512 0.17965,-0.13512 0.15502,-0.0945 0.15501,-0.0947 0.19609,-0.0936 0.19609,-0.0936 0.17966,-0.0653 0.17988,-0.0653 0.20387,-0.0495 0.20409,-0.0497 0.18766,-0.0301 0.18831,-0.03 0.34314,3.6e-4 0.34315,3.9e-4 0.20928,0.037 0.20928,0.037 0.16907,0.0478 0.16906,0.0476 0.16907,0.0668 0.16906,0.0668 0.17037,0.0899 0.17079,0.0897 0.15718,0.10485 0.156958,0.10486 0.15458,0.12885 0.15479,0.12885 0.14356,0.15069 0.14355,0.15069 0.11394,0.14702 0.11372,0.14723 0.0925,0.14939 0.0925,0.14939 0.10961,0.22899 0.10983,0.22872 0.0495,0.14723 0.0497,0.14701 0.0344,0.13491 0.0344,0.13491 0.0229,0.12669 0.0229,0.12669 0.0108,0.0979 0.0108,0.0979 0.0108,0.061 0.0108,0.061 0.0925,-0.0467 0.0925,-0.0467 0.18853,-0.075 0.18852,-0.0752 0.22031,-0.0566 0.2203,-0.0566 0.18766,-0.0266 0.18766,-0.0266 0.28594,-3.6e-4 0.28594,-3.9e-4 0.18809,0.0266 0.18766,0.0266 0.19609,0.048 0.19609,0.048 0.17188,0.0616 0.17144,0.0614 0.21555,0.10875 0.21555,0.10853 0.16193,0.10896 0.16172,0.10896 0.15479,0.12929 0.1548,0.12885 0.12821,0.13621 0.1282,0.13642 0.0841,0.10636 0.0841,0.10616 0.1001,0.14961 0.10032,0.1496 0.0813,0.15285 0.0815,0.15286 0.0722,0.17966 0.0722,0.17966 0.0428,0.14723 0.0428,0.14701 0.0333,0.15782 0.0335,0.15783 0.0195,0.18247 0.0195,0.18203 -0.0108,0.3219 -0.0108,0.3219 -0.0266,0.14723 -0.0266,0.14723 -0.0396,0.1576 -0.0396,0.15761 -0.0502,0.14485 -0.0502,0.14485 -0.11113,0.22872 -0.11112,0.22873 -0.12345,0.18507 -0.12388,0.18506 -0.10486,0.12583 -0.10485,0.12604 -0.16907,0.16323 -0.1695,0.16323 -0.15501,0.11631 -0.1548,0.11632 -0.15501,0.0936 -0.15501,0.0936 -0.13534,0.0651 -0.13534,0.0651 -0.15047,0.058 -0.15048,0.0579 -0.21317,0.0549 -0.21317,0.0545 -0.18744,0.0301 -0.18744,0.0301 -0.34315,-4.1e-4 -0.34317,-3.6e-4 -0.15501,-0.0195 -0.15502,-0.0195 -0.17187,-0.0342 -0.17188,-0.0342 -0.1589,-0.0471 -0.15912,-0.0471 -0.15675,-0.0672 -0.15674,-0.0672 -0.009,0.009 -0.009,0.009 -0.0173,0.16215 -0.0173,0.16236 -0.0402,0.20172 -0.0402,0.20171 -0.0653,0.19868 -0.0655,0.19869 -0.12064,0.24503 -0.12064,0.24506 -0.10701,0.15999 -0.10702,0.15934 -0.10269,0.12647 -0.1027,0.12626 -0.13945,0.1388 -0.13944,0.1388 -0.13015,0.10485 -0.13037,0.10486 -0.155008,0.10183 -0.15502,0.10182 -0.16041,0.0826 -0.16042,0.0826 -0.16755,0.0653 -0.16756,0.0653 -0.17879,0.0497 -0.1788,0.0497 -0.19609,0.0342 -0.19609,0.0342 -0.33938,0.0108 -0.33943,0.0108 -0.257,-0.0195 -0.25697,-0.0195 -0.23027,-0.0387 -0.23025,-0.0385 -0.16236,-0.0413 -0.16237,-0.0413 -0.18744,-0.0651 -0.18744,-0.0651 -0.1308,-0.0599 -0.1308,-0.0599 -0.14744,-0.0865 -0.14745,-0.0867 -0.1468,-0.1135 -0.1468,-0.11351 -0.14182,-0.14917 -0.14183,-0.14918 -0.10701,-0.16042 -0.10702,-0.16042 -0.0631,-0.13815 -0.0634,-0.13815 -0.0432,-0.13079 -0.0432,-0.1308 -0.0331,-0.14702 -0.0333,-0.14723 -0.0195,-0.20798 -0.0194,-0.20841 h -2.3904 -2.39045 v 8.95928 8.95926 l 0.13491,0.0195 0.1349,0.0195 0.16583,0.0549 0.16582,0.0549 0.14464,0.0729 0.14485,0.0729 0.14701,0.0966 0.14723,0.0969 0.14702,0.1228 0.14701,0.12236 0.15285,0.16172 0.15285,0.16193 0.11783,0.15653 0.11783,0.15652 0.0958,0.1548 0.0958,0.1548 0.10982,0.22873 0.10983,0.22872 0.0651,0.18809 0.0651,0.18809 0.0426,0.18053 0.0426,0.18009 0.0266,0.16279 0.0266,0.16258 0.0108,0.26964 0.0108,0.26962 -0.0195,0.19609 -0.0195,0.19609 -0.0404,0.20301 -0.0406,0.2028 -0.0644,0.1976 -0.0644,0.19782 -0.0869,0.18809 -0.0869,0.18766 -0.0949,0.15501 -0.0949,0.15502 -0.11047,0.14723 -0.11091,0.14701 -0.13448,0.14355 -0.13447,0.14356 -0.15718,0.13188 -0.15696,0.1321 -0.17187,0.11415 -0.17188,0.11415 -0.21252,0.10442 -0.21231,0.10464 -0.16344,0.0586 -0.16344,0.0586 -0.19437,0.0478 -0.19479,0.0478 -0.17771,0.0266 -0.17772,0.0266 h -0.0651 -0.0644 l 0.0426,0.0938 0.0426,0.094 0.0707,0.20495 0.0707,0.20496 0.0402,0.20344 0.0404,0.20344 0.0195,0.16344 0.0195,0.16345 4.1e-4,0.31859 3.7e-4,0.31856 -0.0266,0.19545 -0.0266,0.19522 -0.0558,0.21726 -0.0558,0.21751 -0.0677,0.17231 -0.0672,0.17231 -0.0895,0.17469 -0.0895,0.17468 -0.10702,0.1615 -0.10766,0.1615 -0.11761,0.14075 -0.11697,0.14074 -0.15414,0.14961 -0.15394,0.14961 -0.0962,0.0776 -0.0962,0.0774 -0.17901,0.11956 -0.17901,0.11955 -0.19869,0.0971 -0.19868,0.0968 -0.16107,0.0597 -0.16107,0.0592 -0.19003,0.0476 -0.19004,0.0478 -0.17188,0.0266 -0.17187,0.0268 -0.27764,0.009 -0.27764,0.009 -0.15502,-0.0173 z m 0.65601,-0.24428 0.1695,-0.0173 0.1388,-0.0266 0.1388,-0.0266 0.18809,-0.0538 0.18766,-0.0538 0.17966,-0.0765 0.17965,-0.077 0.17188,-0.0984 0.17188,-0.0984 0.0815,-0.0586 0.0819,-0.0586 0.12237,-0.0984 0.1228,-0.0986 0.13188,-0.13102 0.13188,-0.13101 0.10377,-0.1308 0.10378,-0.1308 0.0971,-0.14723 0.0971,-0.14723 0.0858,-0.17188 0.0863,-0.17188 0.061,-0.16214 0.0608,-0.16237 0.0467,-0.18074 0.0467,-0.18052 0.0266,-0.17966 0.0266,-0.17966 v -0.30227 -0.30226 l -0.0266,-0.21252 -0.0266,-0.21252 -0.0543,-0.21231 -0.0545,-0.21274 -0.0502,-0.12669 -0.0502,-0.12669 -0.0642,-0.12755 -0.0642,-0.12756 -0.0586,-0.0971 -0.0586,-0.0971 v -0.0108 -0.0108 l 0.26132,-0.0108 0.26134,-0.0108 0.1762,-0.0266 0.1762,-0.0266 0.18506,-0.0478 0.18528,-0.0476 0.18377,-0.0718 0.18377,-0.0716 0.10485,-0.053 0.10486,-0.053 0.1228,-0.0739 0.1228,-0.0739 0.15285,-0.11307 0.15263,-0.11264 0.13967,-0.13382 0.13966,-0.13383 0.12302,-0.14701 0.1228,-0.14723 0.10334,-0.15761 0.10334,-0.15761 0.1055,-0.21877 0.10551,-0.21853 0.0579,-0.17533 0.0579,-0.17555 0.0406,-0.2002 0.0404,-0.2002 0.0195,-0.19609 0.0195,-0.19609 -0.0108,-0.24504 -0.0108,-0.24504 -0.0268,-0.15501 -0.0266,-0.15501 -0.04,-0.15675 -0.04,-0.15674 -0.0588,-0.17036 -0.059,-0.17036 -0.0938,-0.19609 -0.0938,-0.1961 -0.096,-0.15479 -0.096,-0.1548 -0.1228,-0.16323 -0.1228,-0.16323 -0.15415,-0.1602 -0.15393,-0.16042 -0.14896,-0.12063 -0.14896,-0.12064 -0.11978,-0.077 -0.11977,-0.0768 -0.16885,-0.0809 -0.16885,-0.0808 -0.15912,-0.0402 -0.15912,-0.0404 -0.16085,-0.0108 -0.16107,-0.0108 v -9.19738 -9.19741 h 2.63672 2.63663 l 0.0108,0.24096 0.0108,0.24097 0.0266,0.15501 0.0266,0.15501 0.064,0.19307 0.0642,0.19306 0.0765,0.14896 0.077,0.14896 0.0949,0.12777 0.0949,0.12821 0.13037,0.12777 0.13015,0.12777 0.14053,0.0999 0.14053,0.0999 0.1909,0.0971 0.1909,0.0971 0.16107,0.0599 0.16106,0.0601 0.21469,0.0549 0.21468,0.0549 0.22082,0.0333 0.22057,0.0335 0.2448,0.0195 0.24452,0.0195 0.29463,-0.0108 0.29461,-0.0108 0.15501,-0.0266 0.15502,-0.0266 0.18614,-0.0495 0.18636,-0.0497 0.16475,-0.0653 0.16474,-0.0653 0.16777,-0.0876 0.16798,-0.0873 0.1388,-0.0936 0.1388,-0.0936 0.158898,-0.13318 0.15891,-0.13339 0.15285,-0.17036 0.15263,-0.1708 0.12972,-0.19371 0.12972,-0.19371 0.0966,-0.19847 0.0966,-0.19847 0.0653,-0.19198 0.0653,-0.19199 0.0402,-0.19176 0.0402,-0.19177 0.0173,-0.1589 0.0173,-0.15891 v -0.20495 -0.20496 h 0.0108 0.0108 l 0.1241,0.0716 0.12453,0.0716 0.10485,0.0525 0.10486,0.0525 0.14053,0.0534 0.14052,0.0534 0.16345,0.0424 0.16344,0.0424 0.14702,0.0266 0.14701,0.0266 0.26467,0.0195 0.26499,0.0195 0.23025,-0.0195 0.23025,-0.0195 0.17469,-0.0337 0.17468,-0.0337 0.22083,-0.072 0.22056,-0.072 0.21252,-0.10486 0.21231,-0.10485 0.14701,-0.0969 0.14702,-0.0969 0.12301,-0.099 0.12237,-0.099 0.17209,-0.1775 0.17209,-0.17749 0.1014,-0.13383 0.1014,-0.13383 0.0876,-0.14398 0.0873,-0.14377 0.0454,-0.0893 0.0454,-0.0893 0.0727,-0.18053 0.0726,-0.18052 0.0558,-0.21598 0.0558,-0.21598 0.0266,-0.18917 0.0266,-0.18939 -4.1e-4,-0.25665 -3.5e-4,-0.25667 -0.0229,-0.16863 -0.0229,-0.16864 -0.035,-0.15025 -0.035,-0.15026 -0.0644,-0.18766 -0.0644,-0.18831 -0.0809,-0.16582 -0.0809,-0.16582 -0.0871,-0.13923 -0.0871,-0.13923 -0.096,-0.12778 -0.0958,-0.12777 -0.1535,-0.1602 -0.1535,-0.1602 -0.14896,-0.12064 -0.14874,-0.12064 -0.14507,-0.094 -0.14507,-0.094 -0.15371,-0.0781 -0.15372,-0.0783 -0.15069,-0.0582 -0.15069,-0.0579 -0.1388,-0.04 -0.13879,-0.04 -0.12237,-0.0266 -0.1228,-0.0266 -0.14247,-0.0173 -0.14248,-0.0173 h -0.24964 -0.24988 l -0.17772,0.0268 -0.17749,0.0266 -0.15761,0.04 -0.15739,0.04 -0.1708,0.0599 -0.17079,0.0599 -0.16431,0.0794 -0.16431,0.0793 -0.15329,0.0908 -0.15306,0.0912 h -0.009 -0.009 v -0.20496 -0.20495 l -0.0173,-0.15891 -0.0173,-0.1589 -0.0335,-0.16345 -0.0331,-0.16344 -0.0742,-0.22361 -0.0742,-0.22416 -0.10248,-0.20906 -0.10247,-0.20928 -0.11372,-0.17187 -0.11351,-0.17188 -0.12345,-0.14723 -0.12344,-0.14723 -0.13729,-0.13188 -0.13707,-0.13188 -0.114578,-0.0912 -0.11437,-0.0908 -0.14507,-0.094 -0.14485,-0.0943 -0.19004,-0.0949 -0.19003,-0.0951 -0.22057,-0.0731 -0.22082,-0.0733 -0.16345,-0.0333 -0.16322,-0.0331 -0.20409,-0.0195 -0.20409,-0.0195 -0.21231,0.0108 -0.21274,0.0108 -0.20387,0.0346 -0.20409,0.0346 -0.19242,0.0553 -0.19198,0.0554 -0.18377,0.075 -0.18376,0.075 -0.15502,0.0828 -0.15501,0.0828 -0.17987,0.11912 -0.17966,0.11913 -0.15675,0.1308 -0.15674,0.13079 -0.14593,0.15372 -0.14529,0.15372 -0.0979,0.13253 -0.0979,0.13252 -0.0858,0.14377 -0.0863,0.14356 -0.064,0.16344 -0.064,0.16345 -0.0268,0.12604 -0.0266,0.12604 v 0.13102 0.13101 h -2.63905 -2.63907 v -1.57436 -1.57439 l 0.23306,-0.0108 0.23306,-0.0108 0.14701,-0.0266 0.14723,-0.0266 0.14701,-0.0413 0.14723,-0.0413 0.18399,-0.0882 0.18377,-0.0882 0.12647,-0.0869 0.12669,-0.0869 0.15501,-0.15545 0.15502,-0.15566 0.10096,-0.14312 0.10097,-0.14312 0.0912,-0.17858 0.0912,-0.17793 0.0549,-0.14399 0.0549,-0.14399 0.0424,-0.14723 0.0424,-0.14723 0.0413,-0.20495 0.0413,-0.20495 0.0266,-0.21144 0.0268,-0.21145 0.0108,-0.31058 0.0108,-0.31059 -0.0195,-0.17966 -0.0195,-0.17966 -0.0402,-0.2002 -0.0402,-0.2002 -0.0586,-0.17555 -0.0586,-0.17533 -0.0936,-0.1961 -0.0938,-0.19609 -0.0837,-0.13404 -0.0837,-0.13404 -0.0977,-0.1282 -0.0977,-0.12821 -0.12626,-0.13404 -0.12647,-0.13404 -0.14248,-0.11956 -0.14247,-0.11956 -0.16172,-0.10701 -0.16193,-0.10702 -0.16344,-0.0824 -0.16345,-0.0819 -0.14939,-0.0577 -0.14939,-0.0577 -0.14356,-0.0415 -0.14377,-0.0415 -0.18074,-0.0339 -0.18095,-0.034 -0.31459,-0.0108 -0.31459,-0.0108 v -0.0173 -0.0173 l 0.0558,-0.0923 0.0556,-0.0919 0.0653,-0.1308 0.0653,-0.1308 0.0515,-0.13079 0.0514,-0.1308 0.0543,-0.21274 0.0543,-0.21231 0.0266,-0.2123 0.0266,-0.21252 v -0.30227 -0.30226 l -0.0266,-0.17966 -0.0266,-0.17966 -0.0467,-0.18074 -0.0467,-0.18074 -0.0607,-0.16237 -0.0608,-0.16236 -0.0904,-0.17728 -0.0906,-0.17728 -0.0934,-0.14161 -0.0934,-0.14161 -0.10096,-0.12496 -0.10096,-0.12518 -0.14053,-0.14031 -0.14031,-0.14053 -0.12497,-0.10075 -0.12496,-0.10096 -0.14723,-0.0962 -0.14701,-0.0962 -0.20604,-0.10247 -0.20603,-0.10227 -0.20236,-0.0672 -0.20236,-0.0672 -0.20452,-0.0413 -0.20453,-0.0413 -0.24071,-0.0173 -0.24071,-0.0173 -0.21648,0.0173 -0.21676,0.0173 -0.19609,0.0396 -0.19609,0.0396 -0.17966,0.0588 -0.17988,0.0588 -0.21751,0.10486 -0.2175,0.10485 -0.14247,0.0925 -0.14247,0.0923 -0.13729,0.1068 -0.13728,0.1068 -0.1494,0.14896 -0.14917,0.14896 -0.10788,0.1388 -0.10789,0.1388 -0.0923,0.14247 -0.0923,0.14204 -0.10485,0.21724 -0.10486,0.21751 -0.059,0.17988 -0.0588,0.17966 -0.0396,0.19609 -0.0396,0.19609 -0.0173,0.22057 -0.0173,0.22082 0.0108,0.16344 0.0108,0.16345 0.0266,0.16647 0.0266,0.16647 0.0564,0.2056 0.0564,0.20561 0.0839,0.20452 0.0841,0.20452 0.10939,0.19155 0.10983,0.19155 0.0195,0.0359 0.0195,0.0359 -0.24939,2e-5 -0.24938,9e-5 -0.17966,0.0266 -0.17987,0.0266 -0.17145,0.0422 -0.17188,0.0417 -0.15501,0.0558 -0.15501,0.0558 -0.17966,0.0865 -0.17988,0.0863 -0.14939,0.0925 -0.14939,0.0923 -0.15285,0.1174 -0.15285,0.11739 -0.17966,0.18096 -0.17988,0.18096 -0.11653,0.15501 -0.11653,0.15501 -0.0674,0.11048 -0.0677,0.11091 -0.0891,0.17663 -0.0891,0.17728 -0.0592,0.16993 -0.0592,0.17015 -0.04,0.16323 -0.04,0.16344 -0.0268,0.18442 -0.0266,0.18442 v 0.23381 0.23358 l 0.0173,0.21058 0.0173,0.21057 0.0266,0.17188 0.0266,0.17188 0.0415,0.18809 0.0415,0.18766 0.0642,0.19609 0.0642,0.19609 0.0982,0.20344 0.0982,0.20344 0.0873,0.13188 0.0876,0.13188 0.11523,0.13253 0.11524,0.13231 0.12517,0.10096 0.12497,0.10097 0.0882,0.0564 0.0882,0.0566 0.11588,0.0586 0.11632,0.0586 0.16777,0.0564 0.16776,0.0564 0.18939,0.0335 0.18939,0.0331 0.22208,0.0108 0.22186,0.0108 v 1.57441 1.57439 h -2.55536 -2.55542 l -0.0108,-0.15912 -0.0108,-0.15912 -0.0389,-0.15502 -0.0393,-0.15501 -0.10637,-0.2123 -0.10615,-0.21274 -0.11048,-0.15393 -0.11047,-0.15437 -0.19588,-0.20301 -0.19587,-0.20301 -0.1308,-0.1055 -0.13102,-0.1055 -0.17987,-0.11978 -0.17966,-0.11977 -0.17188,-0.0897 -0.17187,-0.0895 -0.18853,-0.0735 -0.18852,-0.0739 -0.18744,-0.0497 -0.18745,-0.0497 -0.14636,-0.0266 -0.14637,-0.0268 -0.22847,-0.0108 -0.22846,-0.0108 -0.1909,0.0108 -0.1909,0.0108 -0.20474,0.0413 -0.20474,0.0413 -0.1775,0.0579 -0.17749,0.0579 -0.2175,0.10551 -0.21751,0.1055 -0.14248,0.0923 -0.14225,0.0925 -0.0979,0.0744 -0.0979,0.075 -0.1855,0.18053 -0.18528,0.18052 -0.0992,0.1228 -0.0992,0.1228 -0.1135,0.17145 -0.1135,0.17187 -0.10334,0.21252 -0.10335,0.21274 -0.0664,0.19869 -0.0664,0.19868 -0.0404,0.20171 -0.0402,0.20171 -0.0173,0.19609 -0.0173,0.19609 -1.6e-4,0.14269 -1.7e-4,0.14291 h -0.0108 -0.0108 l -0.13296,-0.0798 -0.13318,-0.0798 -0.14723,-0.0733 -0.14701,-0.0729 -0.14918,-0.0586 -0.14917,-0.0586 -0.18593,-0.0493 -0.18615,-0.0489 -0.15501,-0.0301 -0.15501,-0.0301 h -0.3513 -0.35132 l -0.16345,0.0301 -0.16344,0.0301 -0.15285,0.0396 -0.15328,0.0396 -0.15761,0.0586 -0.15739,0.0586 -0.17966,0.0899 -0.17988,0.0895 -0.1388,0.0901 -0.1388,0.0906 -0.0979,0.0744 -0.0982,0.0744 -0.17749,0.17209 -0.1775,0.1721 -0.11069,0.13879 -0.11048,0.1388 -0.0822,0.12648 -0.0824,0.12647 -0.0914,0.17901 -0.0915,0.17901 -0.0586,0.15221 -0.0586,0.1522 -0.0549,0.21274 -0.0549,0.21274 -0.0266,0.22032 -0.0266,0.22005 v 0.16798 0.16799 l 0.0173,0.1589 0.0173,0.15891 0.0331,0.16344 0.0335,0.16345 0.0495,0.16171 0.0497,0.16172 0.0783,0.18117 0.0778,0.18139 0.0882,0.15112 0.0882,0.15112 0.10615,0.15026 0.10615,0.15025 0.18636,0.19372 0.18636,0.19371 0.12345,0.10031 0.12388,0.0999 0.17145,0.1122 0.17187,0.11221 0.17988,0.088 0.17988,0.0876 0.18765,0.0644 0.18766,0.0644 0.14702,0.0342 0.14723,0.0342 0.19284,0.0266 0.19285,0.0266 h 0.22489 0.22517 l 0.17858,-0.0173 0.17858,-0.0173 0.20409,-0.0407 0.20409,-0.0402 0.18938,-0.0631 0.18939,-0.0631 0.17793,-0.0906 0.17815,-0.0906 0.083,-0.0495 0.083,-0.0497 0.0108,0.27364 0.0108,0.27364 0.0266,0.17145 0.0266,0.17144 0.0482,0.18852 0.0482,0.18853 0.088,0.21725 0.088,0.21752 0.10096,0.17663 0.10097,0.17664 0.13188,0.17749 0.13188,0.1775 0.17339,0.17339 0.17339,0.17339 0.1695,0.12626 0.16949,0.12626 0.15307,0.0904 0.15285,0.0901 0.15934,0.0707 0.15934,0.0707 0.1522,0.0508 0.1522,0.0506 0.1829,0.0406 0.18291,0.0406 0.14723,0.0195 0.14701,0.0195 0.28594,-3.9e-4 0.28594,-3.9e-4 0.17966,-0.0266 0.17966,-0.0266 0.17188,-0.0417 0.17144,-0.0422 0.16345,-0.0571 0.16344,-0.0569 0.21231,-0.10139 0.2123,-0.1014 0.15394,-0.0956 0.15371,-0.0956 0.14312,-0.10766 0.14313,-0.10767 0.14788,-0.13534 0.14787,-0.13534 0.13253,-0.15825 0.13253,-0.15826 0.0863,-0.1308 0.0863,-0.1308 0.0592,-0.11826 0.0592,-0.11804 0.0385,-0.10269 0.0385,-0.1027 0.0268,-0.11415 0.0266,-0.11415 0.0108,-0.15912 0.0108,-0.15912 h 2.5551 2.55508 v 9.19749 9.19748 l -0.16366,0.0108 -0.16366,0.0108 -0.12345,0.03 -0.12345,0.0301 -0.1375,0.0558 -0.1375,0.0558 -0.14313,0.0861 -0.14312,0.0858 -0.12237,0.0906 -0.12301,0.0901 -0.23077,0.22973 -0.23077,0.22975 -0.12237,0.16583 -0.1228,0.16582 -0.0819,0.13642 -0.0819,0.13642 -0.0895,0.17966 -0.0895,0.17966 -0.061,0.16344 -0.061,0.16345 -0.054,0.21252 -0.0541,0.21274 -0.0266,0.20171 -0.0266,0.20171 v 0.21827 0.21828 l 0.0266,0.19284 0.0266,0.19285 0.0486,0.19609 0.0489,0.19609 0.0882,0.2175 0.0882,0.21725 0.10227,0.1788 0.10226,0.17857 0.12885,0.17145 0.12885,0.17144 0.13296,0.14031 0.13296,0.14053 0.14832,0.12453 0.14896,0.12432 0.17187,0.11328 0.17145,0.11329 0.18765,0.094 0.1881,0.094 0.15933,0.0597 0.15934,0.0597 0.18485,0.0476 0.18485,0.0478 0.17879,0.0266 0.1788,0.0266 0.25498,0.0108 0.255,0.0108 -0.0884,0.14896 -0.0884,0.14896 -0.0726,0.14939 -0.0726,0.14939 -0.0569,0.14896 -0.0569,0.14896 -0.0411,0.15069 -0.0413,0.15069 -0.035,0.19609 -0.035,0.19609 -7.6e-4,0.31057 -4.1e-4,0.31061 0.0372,0.21252 0.037,0.21274 0.0541,0.18809 0.0538,0.18809 0.077,0.17987 0.0765,0.17966 0.0586,0.10616 0.0586,0.10637 0.0726,0.11458 0.0726,0.11458 0.10789,0.1388 0.10788,0.1388 0.15566,0.15653 0.15545,0.15652 0.12517,0.099 0.12518,0.099 0.13621,0.0891 0.1362,0.0886 0.10637,0.0586 0.10615,0.0584 0.17663,0.0752 0.17729,0.0752 0.16344,0.0486 0.16345,0.0486 0.17447,0.0333 0.17447,0.0333 0.14701,0.013 0.14723,0.013 0.14161,10e-4 0.14118,0.002 0.16949,-0.0173 z m -0.96324,-8.58896 -0.054,-0.0266 -0.0229,-0.0456 -0.0229,-0.0456 v -3.24248 -3.24252 l -1.07436,-0.61869 -1.07439,-0.61869 -0.0612,-0.0549 -0.0612,-0.0549 v -0.7735 -0.77349 l 0.0195,-0.0417 0.0195,-0.0422 0.037,-0.0108 0.037,-0.0108 0.035,0.0108 0.035,0.0108 1.00789,0.58012 1.00784,0.58015 0.037,0.0229 0.0368,0.0229 v -8.1298 -8.12978 l -3.89864,-0.002 -3.89857,-0.002 -0.0478,-0.0534 -0.0478,-0.0534 v -0.64976 -0.64974 l 0.0266,-0.0363 0.0266,-0.0361 0.0471,-0.0266 0.0471,-0.0266 h 3.87358 3.87357 v -1.71576 -1.71576 h -1.07821 -1.07824 l -0.0534,-0.0478 -0.0534,-0.0478 -0.002,-0.65373 -0.002,-0.65389 0.0512,-0.0586 0.0512,-0.0582 h 1.08499 1.08496 v -2.16682 -2.16679 l 0.0556,-0.0558 0.0556,-0.0556 h 0.65164 0.65162 l 0.0363,0.0266 0.0363,0.0266 0.0266,0.0478 0.0266,0.0471 v 2.14962 2.14958 h 1.07484 1.07484 l 0.0363,0.0268 0.0363,0.0266 0.0266,0.0471 0.0266,0.0471 v 0.60594 0.60596 l -0.0229,0.0558 -0.0229,0.0556 -0.0497,0.0266 -0.0497,0.0266 h -1.06298 -1.06295 v 1.71567 1.7157 l 3.97047,0.002 3.97048,0.002 0.0536,0.0536 0.0536,0.0536 0.002,0.62924 0.002,0.62926 -0.0266,0.0575 -0.0266,0.0577 -0.0458,0.0229 -0.0458,0.0229 h -3.95526 -3.9553 l 0.002,8.57298 0.002,8.57302 1.08661,0.626 1.08667,0.626 0.045,0.0502 0.0447,0.0501 -8e-4,0.75555 -7.1e-4,0.75548 -0.0195,0.0569 -0.0195,0.0569 -0.0569,0.002 -0.0569,0.002 -1.03766,-0.59867 -1.03763,-0.59865 -0.0195,-0.009 -0.0195,-0.009 -0.002,2.81199 -0.002,2.81201 -0.0536,0.0536 -0.0536,0.0536 -0.63293,0.002 -0.63292,0.002 -0.0538,-0.0266 z m -10.74725,-23.30842 -0.14702,-0.0173 -0.1388,-0.0266 -0.13879,-0.0266 -0.17188,-0.0556 -0.17188,-0.0556 -0.14571,-0.0742 -0.1455,-0.0742 -0.13102,-0.0938 -0.13102,-0.0936 -0.1362,-0.13642 -0.13642,-0.13642 -0.0912,-0.13728 -0.0912,-0.1375 -0.0644,-0.14615 -0.0644,-0.14615 -0.0396,-0.15653 -0.04,-0.15653 -0.0173,-0.18311 -0.0173,-0.18312 0.0108,-0.17188 0.0108,-0.17188 0.0301,-0.14701 0.03,-0.14723 0.0512,-0.14031 0.0512,-0.14053 0.0737,-0.12885 0.0737,-0.12886 0.0912,-0.11912 0.0912,-0.11913 0.12345,-0.11523 0.12345,-0.11523 0.15804,-0.10486 0.15804,-0.10485 0.12409,-0.0573 0.12453,-0.0571 0.14464,-0.0482 0.14464,-0.0482 0.16474,-0.0337 0.16474,-0.0337 0.20301,-0.0173 0.20301,-0.0173 0.21252,0.0108 0.21252,0.0108 0.20387,0.0229 0.20409,0.0229 0.2328,0.0443 0.23306,0.0445 3.1e-4,0.0984 3e-4,0.099 0.0333,0.24506 0.0335,0.24504 0.0108,0.10334 0.0108,0.10334 -0.0614,-0.002 -0.0614,-0.002 -0.0268,-0.0899 -0.0266,-0.0897 -0.0642,-0.1228 -0.0642,-0.12237 -0.11458,-0.11459 -0.11459,-0.11458 -0.10204,-0.0536 -0.1014,-0.0538 -0.0947,-0.0335 -0.0947,-0.0333 -0.14701,-0.0229 -0.14723,-0.0229 h -0.17988 -0.17965 l -0.15005,0.0266 -0.1496,0.0266 -0.12778,0.0404 -0.12777,0.0406 -0.10637,0.0536 -0.10615,0.0536 -0.0971,0.0644 -0.0971,0.0642 -0.1107,0.11048 -0.11047,0.11047 -0.064,0.0941 -0.064,0.094 -0.0672,0.13404 -0.0677,0.13404 -0.0413,0.14291 -0.0413,0.14269 -0.0229,0.14787 -0.0229,0.14788 v 0.25347 0.25345 l 0.0229,0.15501 0.0229,0.15502 0.0266,0.0949 0.0268,0.0949 0.0549,0.14593 0.0545,0.14593 0.0798,0.13275 0.0798,0.13274 0.10118,0.11913 0.10118,0.1189 0.11761,0.0919 0.11762,0.0923 0.1042,0.0586 0.10421,0.0584 0.15069,0.0538 0.15069,0.0538 0.1695,0.0301 0.16906,0.0266 0.20625,-0.0108 0.20626,-0.0108 0.10636,-0.0266 0.10616,-0.0266 0.13339,-0.0636 0.13361,-0.0636 0.11977,-0.0951 0.11978,-0.0951 0.0969,-0.12345 0.0969,-0.12345 0.0837,-0.14507 0.0837,-0.14507 0.0413,-0.002 0.0413,-0.002 0.0195,0.0229 0.0195,0.0229 -0.0266,0.12042 -0.0266,0.12064 -0.0579,0.17966 -0.0579,0.17966 -0.0607,0.12215 -0.0607,0.12215 -0.1308,0.0383 -0.1308,0.038 -0.14636,0.0335 -0.14659,0.0333 -0.16431,0.0229 -0.16431,0.0229 -0.25346,0.009 -0.25321,0.009 -0.14702,-0.0173 z m 25.767738,-4.1e-4 -0.148748,-0.013 -0.16279,-0.0333 -0.16258,-0.0333 -0.12821,-0.0417 -0.12777,-0.0421 -0.12323,-0.0569 -0.12323,-0.0569 -0.16453,-0.10918 -0.16453,-0.10918 -0.14744,-0.14788 -0.14745,-0.14788 -0.0778,-0.11761 -0.0781,-0.11761 -0.0722,-0.15221 -0.0722,-0.1522 -0.0402,-0.15501 -0.04,-0.15501 -0.0195,-0.16172 -0.0195,-0.16171 0.0108,-0.2221 0.0108,-0.22208 0.0301,-0.1388 0.0298,-0.1388 0.04,-0.10637 0.0402,-0.10615 0.0664,-0.13101 0.0664,-0.13102 0.0971,-0.13058 0.0971,-0.13059 0.1375,-0.13101 0.1375,-0.13102 0.1388,-0.0915 0.13879,-0.0919 0.11545,-0.0579 0.11545,-0.0579 0.16323,-0.0569 0.16323,-0.0569 0.1708,-0.0342 0.17079,-0.0344 0.204088,-0.0173 0.20387,-0.0173 0.21253,0.0108 0.21252,0.0108 0.20387,0.0229 0.20409,0.0229 0.22361,0.0443 0.22364,0.0443 0.0108,0.10701 0.0108,0.10681 0.0339,0.26964 0.0337,0.26964 0.002,0.0653 0.001,0.0653 -0.0569,0.002 -0.0569,0.002 -0.0383,-0.12215 -0.0383,-0.12215 -0.0599,-0.10248 -0.0599,-0.10247 -0.099,-0.099 -0.099,-0.099 -0.0915,-0.0543 -0.0915,-0.0543 -0.11242,-0.0394 -0.11242,-0.0394 -0.15458,-0.0266 -0.15437,-0.0266 -0.24505,0.0108 -0.24504,0.0108 -0.156528,0.0406 -0.15653,0.0406 -0.12561,0.0525 -0.12625,0.0525 -0.12605,0.0822 -0.12604,0.0819 -0.11545,0.11632 -0.11545,0.11631 -0.0664,0.0979 -0.0664,0.0979 -0.0523,0.10355 -0.0523,0.10356 -0.0461,0.14161 -0.0463,0.14161 -0.03,0.16345 -0.0301,0.16344 3.9e-4,0.27764 3.7e-4,0.27796 0.0298,0.16345 0.03,0.16344 0.0497,0.15502 0.0497,0.15501 0.0653,0.1308 0.0653,0.1308 0.064,0.094 0.064,0.094 0.0994,0.10637 0.0995,0.10615 0.10809,0.0813 0.10789,0.0811 0.1228,0.0636 0.12236,0.0636 0.13037,0.0435 0.13015,0.0435 0.137718,0.0229 0.13771,0.0229 h 0.17621 0.1762 l 0.11977,-0.0229 0.11977,-0.0229 0.11221,-0.0424 0.1122,-0.0424 0.0999,-0.061 0.0999,-0.061 0.12777,-0.12216 0.12777,-0.12236 0.0869,-0.13167 0.0869,-0.13166 0.0428,-0.0858 0.0428,-0.0854 h 0.0495 0.0497 l 0.0108,0.0266 0.0108,0.0268 -0.0195,0.11523 -0.0195,0.11524 -0.0569,0.17014 -0.0569,0.17037 -0.0623,0.13317 -0.0625,0.13318 -0.22694,0.0599 -0.22694,0.0599 -0.14723,0.0266 -0.14701,0.0266 -0.17966,0.0173 -0.17988,0.0173 -0.1388,-10e-4 -0.1388,-0.001 -0.14895,-0.013 z m -29.708668,-0.11026 -0.0108,-0.038 0.0173,-0.0173 0.0173,-0.0173 0.0951,-0.0173 0.0951,-0.0173 0.0839,-0.0266 0.0839,-0.0266 0.0426,-0.0456 0.0426,-0.0456 0.0173,-0.0569 0.0173,-0.0569 0.0173,-0.17966 0.0173,-0.17966 -3.4e-4,-1.27459 -4.1e-4,-1.27457 -0.0173,-0.16755 -0.0173,-0.16755 -0.0195,-0.0664 -0.0195,-0.0664 -0.0536,-0.0469 -0.0536,-0.0469 -0.11955,-0.0266 -0.11956,-0.0266 -0.0525,-0.0108 -0.0523,-0.0108 -0.0108,-0.0301 -0.0108,-0.03 0.0108,-0.0229 0.0108,-0.0229 0.76373,0.001 0.7638,0.002 v 0.046 0.0465 l -0.0489,0.0108 -0.0489,0.0108 -0.12777,0.0268 -0.12756,0.0266 -0.0536,0.0469 -0.0536,0.0469 -0.0173,0.062 -0.0173,0.062 -0.0173,0.17965 -0.0173,0.17966 v 1.26644 1.26637 l 0.0173,0.17966 0.0173,0.17966 0.0173,0.0573 0.0173,0.0569 0.0426,0.0454 0.0426,0.0456 0.0839,0.0266 0.0839,0.0266 0.0951,0.0173 0.0951,0.0173 0.0173,0.0173 0.0173,0.0173 -0.0108,0.038 -0.0108,0.038 h -0.76125 -0.76123 l -0.0108,-0.038 z m 23.89157,0.0301 -0.009,-0.009 v -0.037 -0.037 l 0.013,-0.0108 0.013,-0.0108 0.12929,-0.0266 0.12907,-0.0268 0.11437,-0.061 0.11458,-0.061 0.15826,-0.17772 0.15847,-0.17771 0.40513,-0.55495 0.40511,-0.555 0.061,-0.0893 0.0612,-0.0893 v -0.0195 -0.0195 l -0.054,-0.0793 -0.0543,-0.0793 -0.32689,-0.46571 -0.32689,-0.46571 -0.18377,-0.27329 -0.18377,-0.27334 -0.0798,-0.0873 -0.0798,-0.0876 -0.0949,-0.0497 -0.0949,-0.0497 -0.0489,-0.0108 -0.0489,-0.0108 -0.0623,-0.0173 -0.0623,-0.0173 0.002,-0.0502 0.002,-0.0502 0.68465,3.5e-4 0.68472,3.7e-4 0.013,0.0266 0.013,0.0266 -0.0108,0.0266 -0.0108,0.0266 -0.0599,0.0108 -0.0599,0.0108 -0.10464,0.0266 -0.10464,0.0266 -0.0173,0.0266 -0.0173,0.0266 0.045,0.0919 0.045,0.0915 0.28229,0.41946 0.28229,0.41947 0.15112,0.20841 0.15112,0.20842 h 0.009 0.009 l 0.14614,-0.20842 0.14615,-0.20841 0.17145,-0.26132 0.17144,-0.26132 0.12453,-0.21252 0.12431,-0.2123 0.0108,-0.0515 0.0108,-0.0514 -0.0469,-0.0266 -0.0469,-0.0266 -0.10572,-0.0195 -0.10593,-0.0195 -0.0298,-0.0173 -0.03,-0.0173 0.002,-0.0417 0.002,-0.0422 0.62576,-0.001 0.62571,-10e-4 0.0108,0.038 0.0108,0.038 -0.0173,0.0173 -0.0173,0.0173 -0.13793,0.0266 -0.13772,0.0266 -0.0897,0.0432 -0.0899,0.0435 -0.11523,0.11459 -0.11524,0.11458 -0.10766,0.1388 -0.10767,0.1388 -0.37767,0.52784 -0.37765,0.52778 v 0.0454 0.0454 l 0.21446,0.31727 0.21469,0.31723 0.15587,0.22082 0.15588,0.22057 0.22465,0.31056 0.22465,0.31061 0.10421,0.0999 0.10421,0.0999 0.0826,0.0422 0.0826,0.0417 0.1375,0.0266 0.13707,0.0266 0.0173,0.0173 0.0173,0.0173 -0.0108,0.0381 -0.0108,0.038 -0.75649,-0.001 -0.75648,-0.002 -0.002,-0.0512 -0.002,-0.0512 h 0.009 0.009 l 0.11955,-0.0266 0.11956,-0.0266 0.0707,-0.0266 0.0707,-0.0266 -0.0108,-0.0396 -0.0108,-0.0396 -0.0521,-0.0852 -0.0514,-0.0852 -0.24173,-0.35506 -0.24173,-0.35493 -0.20885,-0.29195 -0.20885,-0.29196 -0.14636,0.19782 -0.14637,0.19761 -0.19674,0.29424 -0.19674,0.29429 -0.11026,0.18312 -0.11026,0.18312 -0.0331,0.0752 -0.0333,0.0752 0.0266,0.0368 0.0266,0.0368 0.0629,0.0173 0.0629,0.0173 0.11113,0.0195 0.11112,0.0195 -0.002,0.0497 -0.002,0.0497 -0.64273,0.002 -0.64276,10e-4 -0.009,-0.009 z"
               id="path1" /><path
               style="fill:#ffffff;fill-opacity:1;stroke:#000000;stroke-width:0.023622;stroke-linecap:square;stroke-linejoin:round;stroke-opacity:1"
               d="m 76.8125,344.68651 c -1.005569,-0.24669 -1.794375,-0.87012 -2.252496,-1.78026 -0.217716,-0.43253 -0.30845,-0.85553 -0.309262,-1.44178 -8.12e-4,-0.58751 0.106245,-1.03509 0.365245,-1.52697 0.0905,-0.17187 0.174083,-0.33359 0.185738,-0.35937 0.01166,-0.0258 -0.08849,-0.0469 -0.222538,-0.0469 -1.08607,0 -2.227327,-0.62785 -2.852339,-1.56919 -0.874684,-1.31737 -0.647795,-3.08948 0.547828,-4.27879 0.479819,-0.47729 0.889827,-0.71319 1.324734,-0.76221 l 0.27559,-0.0311 v -9.24187 -9.24187 h -2.55521 -2.555211 l -0.03769,0.14063 c -0.02073,0.0773 -0.03807,0.19941 -0.03854,0.27126 -5e-4,0.0719 -0.08616,0.30136 -0.190425,0.51001 -0.392324,0.78511 -1.422142,1.5279 -2.404178,1.73408 -0.548112,0.11507 -0.826004,0.11548 -1.361679,0.002 -1.461986,-0.30979 -2.49178,-1.48698 -2.641657,-3.01975 -0.0245,-0.25056 -0.0619,-0.446 -0.08311,-0.43431 -1.973893,1.08789 -4.271675,0.26388 -4.994992,-1.79125 -0.191569,-0.5443 -0.216918,-1.38164 -0.05747,-1.89826 0.272672,-0.88347 0.926864,-1.69035 1.670279,-2.06013 1.026042,-0.51035 1.949789,-0.51757 2.963389,-0.0232 l 0.464305,0.22648 0.0435,-0.43815 c 0.06373,-0.64201 0.24448,-1.15937 0.577533,-1.65312 0.482669,-0.71555 1.108827,-1.17694 1.91551,-1.41145 0.493758,-0.14353 1.421177,-0.10325 1.937649,0.0842 1.135046,0.41189 2.043256,1.35557 2.191047,2.27662 l 0.03761,0.23438 H 71.315332 73.875 v -1.58131 -1.5813 l -0.463337,-0.0668 c -1.364587,-0.19659 -2.106782,-1.20321 -2.204118,-2.98939 -0.0389,-0.71386 0.05631,-1.18964 0.357444,-1.78618 0.512665,-1.01559 1.742819,-1.80182 2.825636,-1.80596 0.232031,-8.9e-4 0.421875,-0.0202 0.421875,-0.043 0,-0.0228 -0.06803,-0.15746 -0.151172,-0.29934 -0.601603,-1.02656 -0.571323,-2.3818 0.07553,-3.38062 0.457361,-0.70621 1.257895,-1.28676 2.014877,-1.46119 0.423298,-0.0975 1.243301,-0.0807 1.627543,0.0333 0.600563,0.17829 1.069969,0.45851 1.495719,0.8929 0.661195,0.67461 0.936016,1.36461 0.936016,2.35007 0,0.62988 -0.08862,1.03283 -0.332858,1.51355 -0.09111,0.17932 -0.165658,0.34104 -0.165658,0.35937 0,0.0183 0.162841,0.0333 0.361869,0.0333 1.428549,0 2.771854,1.09524 3.112454,2.53769 0.12007,0.5085 0.0889,1.45939 -0.0674,2.05606 -0.314545,1.20079 -1.063582,1.89559 -2.168021,2.01102 l -0.363904,0.038 v 1.58484 1.58485 h 2.648122 2.648122 l 0.03106,-0.27559 c 0.04917,-0.43619 0.285657,-0.84596 0.762214,-1.32071 1.412248,-1.40687 3.479081,-1.45941 4.816971,-0.12245 0.611614,0.61119 1.02761,1.56402 1.030085,2.35938 5e-4,0.16328 0.01144,0.29687 0.0243,0.29687 0.01286,0 0.149342,-0.0704 0.303298,-0.15645 1.327159,-0.74176 2.851868,-0.53841 3.917048,0.52242 1.354371,1.34883 1.333879,3.36043 -0.04823,4.73495 -0.593185,0.58992 -1.389249,0.90456 -2.292646,0.90615 -0.601884,0.001 -0.994416,-0.0851 -1.490952,-0.32705 -0.203147,-0.099 -0.378928,-0.18002 -0.390625,-0.18002 -0.0117,0 -0.02168,0.13359 -0.02219,0.29688 -0.0046,1.46336 -1.121705,2.82871 -2.599906,3.17752 -0.738907,0.17437 -1.880211,0.0489 -2.630609,-0.28922 -0.809306,-0.36464 -1.301418,-1.05735 -1.375042,-1.93554 l -0.03665,-0.43714 H 83.834685 81.1875 v 9.24187 9.24187 l 0.265625,0.0308 c 0.959271,0.11103 2.011236,1.25886 2.335188,2.54801 0.358813,1.42788 -0.427785,3.08307 -1.768078,3.72045 -0.400797,0.1906 -1.018296,0.33991 -1.41086,0.34113 -0.163281,5e-4 -0.296875,0.0143 -0.296875,0.0307 0,0.0164 0.05672,0.12183 0.12604,0.23438 0.361486,0.58689 0.492757,1.80875 0.274249,2.55266 -0.499594,1.70088 -2.241674,2.74537 -3.900289,2.33848 z m 1.28125,-8.46012 0.1875,-0.0401 0.03125,-2.82474 0.03125,-2.82474 1.024642,0.59381 c 0.563553,0.32659 1.069803,0.58511 1.125,0.57448 0.08622,-0.0166 0.100358,-0.13793 0.100358,-0.86124 v -0.8419 L 79.5,329.36623 78.40625,328.73049 78.36821,324.5215 c -0.02092,-2.31495 -0.04202,-6.17051 -0.04687,-8.56791 l -0.0088,-4.35892 4.015625,-0.0161 4.015625,-0.0161 v -0.75 -0.75 l -3.984375,-0.0161 -3.984375,-0.0161 v -1.68704 -1.68704 h 1.05 c 0.733333,0 1.072619,-0.0226 1.125,-0.075 0.102853,-0.10285 0.102853,-1.37215 0,-1.475 -0.05255,-0.0525 -0.398611,-0.075 -1.15625,-0.075 H 78.3125 v -2.18081 c 0,-1.93096 -0.01133,-2.18516 -0.09886,-2.21875 -0.18637,-0.0715 -1.310049,-0.0415 -1.388638,0.0371 -0.05541,0.0554 -0.075,0.6344 -0.075,2.21731 v 2.14231 l -1.109375,0.0171 -1.109375,0.0171 v 0.78125 0.78125 l 1.109375,0.0171 1.109375,0.0171 v 1.68605 1.68606 h -3.89375 c -2.945139,0 -3.912022,0.0183 -3.96875,0.075 -0.102521,0.10252 -0.102521,1.30998 0,1.4125 0.05673,0.0567 1.023611,0.075 3.96875,0.075 H 76.75 v 8.09885 8.09885 l -0.203125,-0.12257 c -0.887373,-0.53546 -1.897193,-1.07703 -1.978996,-1.06134 -0.08348,0.016 -0.101882,0.14963 -0.116569,0.84658 l -0.01744,0.82758 0.274646,0.17165 c 0.151055,0.0944 0.671481,0.39665 1.156501,0.67165 l 0.881857,0.5 0.0016,3.29229 c 0.0015,3.08221 0.0085,3.29412 0.110939,3.32088 0.162562,0.0425 1.018724,0.0343 1.234375,-0.0118 z M 67.354183,312.83851 c 0.282048,-0.0667 0.335121,-0.1048 0.419202,-0.30117 0.12946,-0.30236 0.222385,-0.67699 0.178747,-0.72062 -0.07195,-0.0719 -0.122871,-0.0288 -0.313564,0.26544 -0.467517,0.7215 -1.50267,0.85361 -2.246012,0.28663 -0.46388,-0.35381 -0.749647,-1.11609 -0.683593,-1.82345 0.09442,-1.01116 0.668659,-1.57143 1.66389,-1.62342 0.623728,-0.0326 0.960097,0.12639 1.189647,0.56228 0.08594,0.16318 0.191406,0.29677 0.234375,0.29687 0.04297,1.3e-4 0.07791,-0.0209 0.07765,-0.0467 -0.0016,-0.15885 -0.139345,-0.86703 -0.175817,-0.90392 -0.02422,-0.0245 -0.317097,-0.0767 -0.650836,-0.1161 -1.326425,-0.15643 -2.296325,0.25909 -2.748179,1.17738 -0.185177,0.37633 -0.205675,0.47222 -0.203263,0.9509 0.0021,0.41444 0.03392,0.60158 0.143709,0.84486 0.465256,1.03096 1.696528,1.48606 3.114041,1.15101 z m 25.720238,-0.003 c 0.34688,-0.0744 0.466896,-0.21147 0.586287,-0.66964 0.09209,-0.35342 0.0079,-0.49884 -0.151042,-0.26094 -0.545523,0.81644 -1.248635,1.02814 -2.063056,0.62116 -0.646954,-0.32328 -0.968228,-0.88846 -0.973993,-1.71343 -0.0042,-0.60243 0.08888,-0.93827 0.357786,-1.29084 0.28002,-0.36713 0.708316,-0.5752 1.246596,-0.60562 0.690247,-0.039 1.174657,0.22566 1.326209,0.72458 0.02349,0.0773 0.08669,0.14063 0.140432,0.14063 0.07814,0 0.08995,-0.047 0.05898,-0.23438 -0.02131,-0.1289 -0.03905,-0.30634 -0.03943,-0.3943 -0.0013,-0.29969 -0.113622,-0.36417 -0.758081,-0.43514 -1.049942,-0.11564 -1.743512,0.0712 -2.332504,0.6282 -0.440978,0.41706 -0.605578,0.79917 -0.615084,1.4279 -0.01014,0.67099 0.138089,1.07443 0.542654,1.47688 0.650623,0.64723 1.508685,0.83491 2.674248,0.58494 z M 63.75,312.75 c 0,-0.0563 -0.0577,-0.0937 -0.144304,-0.0937 -0.07937,0 -0.198087,-0.0393 -0.263821,-0.0874 -0.109288,-0.0799 -0.121633,-0.19495 -0.144251,-1.34415 -0.0136,-0.69122 -0.005,-1.4671 0.01907,-1.72417 l 0.0438,-0.46741 0.244755,-0.0733 c 0.134615,-0.0403 0.244755,-0.11191 0.244755,-0.15906 0,-0.069 -0.154083,-0.0823 -0.791762,-0.0682 -0.834268,0.0184 -1.032855,0.0942 -0.592752,0.22601 0.3182,0.0953 0.322233,0.11931 0.321093,1.90867 -10e-4,1.59014 -0.02838,1.73439 -0.339358,1.78874 -0.09936,0.0174 -0.192354,0.0667 -0.206648,0.1097 -0.01991,0.0598 0.165358,0.0781 0.791719,0.0781 0.685185,0 0.817708,-0.0152 0.817708,-0.0937 z m 23.625,0.0293 c 0,-0.0355 -0.03516,-0.0749 -0.07813,-0.0878 -0.30416,-0.0907 -0.30464,-0.0912 -0.231553,-0.23749 0.109634,-0.21946 0.833549,-1.29792 0.870519,-1.29685 0.0181,5e-4 0.252593,0.32418 0.521096,0.71925 0.378474,0.55687 0.466261,0.72521 0.390625,0.74905 -0.05366,0.0169 -0.139749,0.0439 -0.191312,0.06 -0.05156,0.0161 -0.09375,0.0583 -0.09375,0.0937 0,0.0409 0.287865,0.0645 0.786458,0.0645 0.832625,0 0.966798,-0.0607 0.492605,-0.22287 -0.281402,-0.0962 -0.327001,-0.14757 -1.064452,-1.19821 l -0.53684,-0.76483 0.351839,-0.49926 c 0.664198,-0.9425 0.824736,-1.11695 1.094818,-1.18967 0.435587,-0.1173 0.281522,-0.18766 -0.410886,-0.18766 -0.501222,0 -0.655226,0.0189 -0.63573,0.0781 0.01415,0.043 0.08681,0.0871 0.161459,0.0981 0.07465,0.011 0.135729,0.0543 0.135729,0.0964 0,0.0791 -0.53296,0.95911 -0.73779,1.21826 l -0.11627,0.14711 -0.44797,-0.65811 c -0.246384,-0.36197 -0.44797,-0.6848 -0.44797,-0.71742 0,-0.0326 0.08437,-0.0762 0.1875,-0.0968 0.103125,-0.0206 0.1875,-0.0663 0.1875,-0.10157 0,-0.0402 -0.279471,-0.0641 -0.75,-0.0641 -0.4125,0 -0.75,0.0239 -0.75,0.053 0,0.0292 0.107453,0.0952 0.238784,0.14682 0.195258,0.0767 0.32824,0.22368 0.729544,0.80635 0.269917,0.39191 0.554518,0.79737 0.632447,0.90102 l 0.141688,0.18846 -0.589087,0.7965 c -0.566098,0.76542 -0.690683,0.87886 -1.106501,1.00756 -0.06016,0.0186 -0.109375,0.0629 -0.109375,0.0983 0,0.0404 0.256886,0.0645 0.6875,0.0645 0.430614,0 0.6875,-0.0241 0.6875,-0.0645 z"
               id="path7902" /></g></g><g
           id="g11371"
           transform="translate(-1.6904271,17.757374)"><path
             id="rect11366"
             style="fill:#ffffff;stroke:#000000;stroke-width:0.377953;stroke-linecap:square;stroke-linejoin:round"
             d="m 264.16794,131.60059 h 62.22816 v 26.36182 h -62.22816 z" /><g
             aria-label="US - 1"
             id="text3426"
             style="font-size:10.3416px;line-height:0;-inkscape-font-specification:'sans-serif, Normal';stroke:#000000;stroke-width:0.775615;stroke-linecap:square"><path
               d="m 282.7896,147.60817 q 0,1.3775 -0.55844,2.49439 -0.55845,1.09827 -1.71256,1.74979 -1.13551,0.6329 -2.90391,0.6329 -2.47577,0 -3.77881,-1.34026 -1.28442,-1.35889 -1.28442,-3.57405 v -8.5628 h 1.67533 v 8.61865 q 0,1.61949 0.85628,2.513 0.8749,0.89351 2.62469,0.89351 1.80564,0 2.60607,-0.94936 0.81905,-0.96797 0.81905,-2.47577 v -8.60003 h 1.65672 z"
               style="font-size:18.6148px;font-family:'Noto Sans';-inkscape-font-specification:'Noto Sans, Normal'"
               id="path392" /><path
               d="m 293.82819,148.74368 q 0,1.7684 -1.28442,2.75499 -1.28442,0.98658 -3.46235,0.98658 -1.11689,0 -2.06624,-0.16753 -0.94936,-0.16754 -1.58226,-0.46537 v -1.60088 q 0.67013,0.29784 1.65672,0.53983 1.0052,0.242 2.06624,0.242 1.48918,0 2.23377,-0.57706 0.76321,-0.57706 0.76321,-1.56365 0,-0.65151 -0.27922,-1.09827 -0.27922,-0.44675 -0.96797,-0.81905 -0.67013,-0.39091 -1.88009,-0.81905 -1.69395,-0.61429 -2.56885,-1.5078 -0.85628,-0.89351 -0.85628,-2.43854 0,-1.06104 0.53983,-1.80563 0.53983,-0.76321 1.48919,-1.17274 0.96797,-0.40952 2.21516,-0.40952 1.09827,0 2.01039,0.20476 0.91213,0.20476 1.65672,0.53983 l -0.52121,1.43334 q -0.68875,-0.29784 -1.5078,-0.5026 -0.80044,-0.20476 -1.67533,-0.20476 -1.24719,0 -1.8801,0.53983 -0.6329,0.52121 -0.6329,1.39611 0,0.67013 0.27922,1.11688 0.27922,0.44676 0.91213,0.80044 0.6329,0.35368 1.71256,0.76321 1.17273,0.42814 1.97317,0.93074 0.81905,0.48398 1.22857,1.17273 0.42814,0.68875 0.42814,1.73118 z"
               style="font-size:18.6148px;font-family:'Noto Sans';-inkscape-font-specification:'Noto Sans, Normal'"
               id="path394" /><path
               d="m 300.28753,148.03631 v -1.45195 h 4.50478 v 1.45195 z"
               style="font-size:18.6148px;font-family:'Noto Sans';-inkscape-font-specification:'Noto Sans, Normal'"
               id="path396" /><path
               d="m 316.98502,152.2991 h -1.60088 v -9.28878 q 0,-0.80044 0.0186,-1.28442 0.0186,-0.48399 0.0558,-1.0052 -0.29783,0.29783 -0.53983,0.5026 -0.24199,0.20476 -0.61428,0.52121 l -1.41473,1.15412 -0.85628,-1.09827 3.59266,-2.79222 h 1.35888 z"
               style="font-size:18.6148px;font-family:'Noto Sans';-inkscape-font-specification:'Noto Sans, Normal'"
               id="path398" /></g></g></g></g></g></svg>
